<?xml version="1.0" encoding="UTF-8" standalone="no"?>
<svg
   xmlns:dc="http://purl.org/dc/elements/1.1/"
   xmlns:cc="http://creativecommons.org/ns#"
   xmlns:rdf="http://www.w3.org/1999/02/22-rdf-syntax-ns#"
   xmlns:svg="http://www.w3.org/2000/svg"
   xmlns="http://www.w3.org/2000/svg"
   xmlns:sodipodi="http://sodipodi.sourceforge.net/DTD/sodipodi-0.dtd"
   xmlns:inkscape="http://www.inkscape.org/namespaces/inkscape"
   width="7.147584"
   height="7.147584"
   viewBox="0 0 7.147584 7.147584"
   version="1.1"
   id="svg7"
   sodipodi:docname="CompareIcon.svg"
   inkscape:version="1.0 (4035a4fb49, 2020-05-01)">
  <metadata
     id="metadata13">
    <rdf:RDF>
      <cc:Work
         rdf:about="">
        <dc:format>image/svg+xml</dc:format>
        <dc:type
           rdf:resource="http://purl.org/dc/dcmitype/StillImage" />
      </cc:Work>
    </rdf:RDF>
  </metadata>
  <defs
     id="defs11" />
  <sodipodi:namedview
     inkscape:document-rotation="0"
     pagecolor="#ffffff"
     bordercolor="#666666"
     borderopacity="1"
     objecttolerance="10"
     gridtolerance="10"
     guidetolerance="10"
     inkscape:pageopacity="0"
     inkscape:pageshadow="2"
     inkscape:window-width="1366"
     inkscape:window-height="705"
     id="namedview9"
     showgrid="false"
     inkscape:zoom="44.833333"
     inkscape:cx="5.8066977"
     inkscape:cy="4.5719494"
     inkscape:window-x="-8"
     inkscape:window-y="-8"
     inkscape:window-maximized="1"
     inkscape:current-layer="svg7" />
  <desc
     id="desc2">Created with Lunacy</desc>
  <circle
     style="fill:none;stroke:#808080;stroke-width:0.3;stroke-linecap:round;stroke-linejoin:round;stroke-miterlimit:4;stroke-dasharray:none;stroke-opacity:1;paint-order:fill markers stroke"
     id="path15"
     cx="3.573792"
     cy="3.573792"
     r="3.4237919" />
  <path
     style="fill:none;stroke:#808080;stroke-width:0.17071;stroke-linecap:round;stroke-linejoin:round;stroke-miterlimit:4;stroke-dasharray:none;stroke-opacity:1;paint-order:markers fill stroke"
     d="M 3.5737918,0.82748594 V 6.3200978"
     id="path840" />
  <path
     id="path2"
     d="M 5.9111504,3.4902571 4.288833,2.3714175 C 4.271659,2.3596155 4.249394,2.3583865 4.231045,2.3679575 4.21264,2.3776375 4.201116,2.3966585 4.201116,2.4174685 v 2.2376788 c 0,0.02081 0.011524,0.039884 0.029929,0.049566 0.00817,0.00426 0.017118,0.00638 0.026013,0.00638 0.011132,0 0.022209,-0.00334 0.031775,-0.0099 L 5.9111504,3.5823462 c 0.015163,-0.010461 0.024165,-0.027638 0.024165,-0.046038 0,-0.018407 -0.00906,-0.035578 -0.024165,-0.046038 z"
     style="stroke-width:0.055942;fill:#808080" />
  <path
     style="stroke-width:0.055942;fill:#808080"
     d="M 1.2364334,3.4902571 2.8587508,2.3714175 c 0.017174,-0.011802 0.039439,-0.013031 0.057788,-0.00346 0.018405,0.00968 0.029929,0.028701 0.029929,0.049511 v 2.2376788 c 0,0.02081 -0.011524,0.039884 -0.029929,0.049566 -0.00817,0.00426 -0.017118,0.00638 -0.026013,0.00638 -0.011132,0 -0.022209,-0.00334 -0.031775,-0.0099 L 1.2364334,3.5823462 c -0.015163,-0.010461 -0.024165,-0.027638 -0.024165,-0.046038 0,-0.018407 0.00906,-0.035578 0.024165,-0.046038 z"
     id="path864" />
</svg>
