<?xml version="1.0" encoding="UTF-8" standalone="no"?>
<svg
   xmlns:dc="http://purl.org/dc/elements/1.1/"
   xmlns:cc="http://creativecommons.org/ns#"
   xmlns:rdf="http://www.w3.org/1999/02/22-rdf-syntax-ns#"
   xmlns:svg="http://www.w3.org/2000/svg"
   xmlns="http://www.w3.org/2000/svg"
   xmlns:sodipodi="http://sodipodi.sourceforge.net/DTD/sodipodi-0.dtd"
   xmlns:inkscape="http://www.inkscape.org/namespaces/inkscape"
   inkscape:version="1.0 (4035a4fb49, 2020-05-01)"
   sodipodi:docname="drawing11.svg"
   id="svg8"
   version="1.1"
   viewBox="0 0 84.297356 80.171501"
   height="80.171501mm"
   width="84.297356mm">
  <defs
     id="defs2">
    <clipPath
       id="clip6">
      <rect
         id="rect861"
         height="13"
         width="23"
         y="0"
         x="0" />
    </clipPath>
    <clipPath
       id="clip7">
      <path
         id="path858"
         d="M 0.585938,0.335938 H 22.050781 V 12.980469 H 0.585938 Z m 0,0"
         inkscape:connector-curvature="0" />
    </clipPath>
  </defs>
  <sodipodi:namedview
     inkscape:document-rotation="0"
     inkscape:window-maximized="1"
     inkscape:window-y="-8"
     inkscape:window-x="-8"
     inkscape:window-height="705"
     inkscape:window-width="1366"
     showgrid="false"
     inkscape:current-layer="layer1"
     inkscape:document-units="mm"
     inkscape:cy="323.01038"
     inkscape:cx="-12.824406"
     inkscape:zoom="0.35"
     inkscape:pageshadow="2"
     inkscape:pageopacity="0.0"
     borderopacity="1.0"
     bordercolor="#666666"
     pagecolor="#ffffff"
     id="base" />
  <metadata
     id="metadata5">
    <rdf:RDF>
      <cc:Work
         rdf:about="">
        <dc:format>image/svg+xml</dc:format>
        <dc:type
           rdf:resource="http://purl.org/dc/dcmitype/StillImage" />
      </cc:Work>
    </rdf:RDF>
  </metadata>
  <g
     transform="translate(-64.440609,-245.57496)"
     id="layer1"
     inkscape:groupmode="layer"
     inkscape:label="Layer 1">
    <path
       style="fill:#dcc5a1;fill-opacity:1;fill-rule:nonzero;stroke:none;stroke-width:0.352778"
       d="m 107.33756,300.2252 v 25.04997 H 93.672932 c -0.221861,-0.0937 -0.336241,-0.14607 -0.336241,-0.14607 0,-2.23242 0.228754,-4.12309 0.622872,-5.71748 1.923743,-8.02156 7.744577,-8.71884 7.744577,-8.71884 h 0.0675 c 0.0579,-0.0124 0.12403,-0.0179 0.17915,-0.0427 0.69177,-0.18742 1.16031,-1.20027 1.47863,-2.65273 0.0537,-0.24667 0.10197,-0.50436 0.14194,-0.78272 0.0758,-0.45751 0.14332,-0.94671 0.19017,-1.45246 0.0317,-0.30454 0.0593,-0.61047 0.0882,-0.92328 0.12264,-1.54065 0.16536,-3.21083 0.16536,-4.79833 0,0 1.83831,0.18466 3.32245,0.18466"
       id="path1169"
       inkscape:connector-curvature="0" />
    <path
       style="fill:#ebd9b3;fill-opacity:1;fill-rule:nonzero;stroke:none;stroke-width:0.352778"
       d="m 121.38666,325.1291 c 0,0 -0.12403,0.0524 -0.32384,0.14607 H 107.33756 V 300.2252 h 0.0303 c 1.48277,0 3.33486,-0.18466 3.33486,-0.18466 0,1.57923 0.0386,3.2315 0.1626,4.75974 0.0262,0.30317 0.0551,0.61047 0.0854,0.90538 0.0565,0.52778 0.11438,1.0225 0.19293,1.49103 v 0.008 c 0.0262,0.21222 0.0661,0.40239 0.10611,0.59394 0.28525,1.40146 0.70693,2.43361 1.32016,2.77812 0.0496,0.0207 0.0951,0.0482 0.14332,0.0579 0.0965,0.04 0.20257,0.0579 0.30868,0.0579 0,0 0.0951,0.008 0.26734,0.0455 0.89021,0.19293 3.80476,1.07211 5.87595,4.60265 1.27468,2.13872 2.2214,5.26548 2.2214,9.7882"
       id="path1171"
       inkscape:connector-curvature="0" />
    <g
       id="use1173"
       clip-path="url(#clip6)"
       transform="matrix(0.09333912,0,0,0.09333912,103.36055,304.68317)">
      <g
         clip-path="url(#clip7)"
         id="g1829"
         style="clip-rule:nonzero">
        <path
           style="fill:#ba9e7f;fill-opacity:1;fill-rule:nonzero;stroke:none"
           d="M 22.050781,7.128906 V 7.152344 C 21.09375,8.671875 17.8125,12.980469 11.324219,12.980469 h -0.05859 C 5.097656,12.949219 1.507813,8.484375 0.585938,7.175781 0.800781,5.878906 0.992188,4.503906 1.128906,3.066406 1.214844,2.199219 1.292969,1.335938 1.378906,0.445313 4.386719,1.191406 7.65625,1.660156 11.152344,1.714844 h 0.113281 c 3.578125,-0.054688 6.898438,-0.546875 9.992188,-1.378906 0.08594,0.855468 0.164062,1.726562 0.25,2.566406 0.148437,1.492187 0.328125,2.90625 0.542968,4.226562"
           id="path1827"
           inkscape:connector-curvature="0" />
      </g>
    </g>
    <path
       style="fill:#4c1717;fill-opacity:1;fill-rule:nonzero;stroke:none;stroke-width:0.352778"
       d="m 122.49736,318.82182 c 0,0 -3.96737,-7.80521 -9.49606,-8.12904 -0.14194,-0.011 4.11069,6.19703 -1.55305,7.63984 -1.39733,0.3514 -2.7864,0.4768 -4.08038,0.42857 h -0.0303 c -1.2926,0.0482 -2.68442,-0.0772 -4.08175,-0.42857 -5.666491,-1.44281 -1.40973,-7.65087 -1.55167,-7.63984 -5.530064,0.32383 -9.497438,8.12904 -9.497438,8.12904 l 1.752865,0.5898 2.4722,0.83096 c 0,0 -0.86265,2.24345 -0.910884,5.03259 h 23.662297 c -0.0496,-2.78914 -0.90813,-5.03259 -0.90813,-5.03259 l 2.46944,-0.83096 z m 0,0"
       id="path1175"
       inkscape:connector-curvature="0" />
    <path
       style="fill:#ccab8a;fill-opacity:1;fill-rule:nonzero;stroke:none;stroke-width:0.352778"
       d="m 107.32378,273.30798 c -14.261319,-0.0289 -14.346755,11.39362 -13.71148,18.84192 -0.979787,-1.75011 -3.868155,-1.10106 -3.635265,1.69912 0.227376,2.6789 4.316014,3.89295 4.258136,3.59667 1.167202,6.07164 7.889269,9.44094 13.088609,9.9205 0.0358,10e-4 0.0772,0 0.10611,10e-4 v -34.05951 h -0.10611"
       id="path1177"
       inkscape:connector-curvature="0" />
    <path
       style="fill:#ba9e7f;fill-opacity:1;fill-rule:nonzero;stroke:none;stroke-width:0.352778"
       d="m 90.694994,292.66528 c 0.713822,-1.08038 1.817631,-0.61598 2.090483,-0.38034 0.286631,0.26321 0.515385,0.60634 0.338995,1.24575 -0.103349,0.35691 -0.502984,0.38998 -0.405141,0.93706 0.107485,0.61185 0.409276,0.65457 0.581531,0.79238 0.169497,0.14056 0.381719,0.24666 0.489204,0.50711 0.09922,0.2577 0.121266,0.53468 0.06201,0.77033 -0.110244,0.44373 -0.789615,0.0896 -1.249878,-0.10473 -0.30179,-0.12954 -1.252639,-0.89297 -1.49655,-1.15067 -0.607716,-0.64629 -0.888834,-1.89893 -0.410654,-2.61689"
       id="path1179"
       inkscape:connector-curvature="0" />
    <path
       style="fill:#d9bd9e;fill-opacity:1;fill-rule:nonzero;stroke:none;stroke-width:0.352778"
       d="m 107.39406,273.30798 c 14.26407,-0.0289 14.34675,11.39362 13.7101,18.84192 0.98254,-1.75011 3.87091,-1.10106 3.63251,1.69912 -0.22462,2.6789 -4.30912,3.89295 -4.25676,3.59667 -1.1672,6.07164 -7.88927,9.44094 -13.08585,9.9205 -0.0344,10e-4 -0.0744,0 -0.11024,10e-4 v -34.05951 h 0.11024"
       id="path1181"
       inkscape:connector-curvature="0" />
    <path
       style="fill:#ba9e7f;fill-opacity:1;fill-rule:nonzero;stroke:none;stroke-width:0.352778"
       d="m 124.1262,292.66528 c -0.71658,-1.08038 -1.82039,-0.61598 -2.09324,-0.38034 -0.28663,0.26321 -0.51677,0.60634 -0.33486,1.24575 0.0978,0.35691 0.50022,0.38998 0.39962,0.93706 -0.10886,0.61185 -0.40789,0.65457 -0.57739,0.79238 -0.1695,0.14056 -0.38585,0.24666 -0.48783,0.50711 -0.10611,0.2577 -0.12126,0.53468 -0.0675,0.77033 0.11162,0.44373 0.79238,0.0896 1.24988,-0.10473 0.30041,-0.12954 1.25815,-0.89297 1.49793,-1.15067 0.60909,-0.64629 0.89021,-1.89893 0.41341,-2.61689"
       id="path1183"
       inkscape:connector-curvature="0" />
    <path
       style="fill:#dcc5a1;fill-opacity:1;fill-rule:nonzero;stroke:none;stroke-width:0.352778"
       d="m 107.24937,276.5381 c -4.76526,0 -8.248944,1.31051 -10.360097,3.89433 -2.947622,3.60495 -2.836,9.11986 -1.747353,13.07621 0.332107,1.20992 0.498853,4.4676 0.731739,5.66511 1.028018,5.34955 7.266391,8.19933 11.375711,8.19933 0.0344,0 0.0744,-0.006 0.11024,-0.006 v -30.82534 c -0.0372,0 -0.0717,-0.004 -0.11024,-0.004"
       id="path1185"
       inkscape:connector-curvature="0" />
    <path
       style="fill:#ebd9b3;fill-opacity:1;fill-rule:nonzero;stroke:none;stroke-width:0.352778"
       d="m 117.58603,280.43795 c -2.09324,-2.56729 -5.53971,-3.87642 -10.22642,-3.89572 v 30.82534 c 4.69084,-0.0496 10.29945,-3.16949 11.26271,-8.19382 0.22599,-1.19751 0.39825,-4.45657 0.73173,-5.66787 1.08176,-3.94532 1.19063,-9.45058 -1.76802,-13.06793"
       id="path1187"
       inkscape:connector-curvature="0" />
    <path
       style="fill:#b36e6e;fill-opacity:1;fill-rule:nonzero;stroke:none;stroke-width:0.352778"
       d="m 109.7574,302.53479 c 0,0 -1.07763,1.14928 -2.40192,1.14928 -1.32843,0 -2.34405,-1.12034 -2.34405,-1.12034 0,0 1.01562,-0.17502 2.34405,-0.17502 1.32429,0 2.40192,0.14608 2.40192,0.14608"
       id="path1189"
       inkscape:connector-curvature="0" />
    <path
       style="fill:#bf7873;fill-opacity:1;fill-rule:nonzero;stroke:none;stroke-width:0.352778"
       d="m 108.03071,302.007 c -0.37069,0 -0.6711,0.23013 -0.67523,0.51814 -0.01,-0.28801 -0.30869,-0.51814 -0.68076,-0.51814 -0.37758,0 -1.72668,0.52779 -1.72668,0.52779 0,0 1.31603,0.14194 1.69223,0.14194 0.37207,0 0.70556,0.14607 0.71521,-0.13367 0.004,0.27974 0.27285,0.17225 0.64905,0.17225 0.37345,0 1.75424,-0.18052 1.75424,-0.18052 0,0 -1.3491,-0.52779 -1.72806,-0.52779"
       id="path1191"
       inkscape:connector-curvature="0" />
    <path
       style="fill:#4c1717;fill-opacity:1;fill-rule:nonzero;stroke:none;stroke-width:0.352778"
       d="m 92.186029,282.48984 c -0.0303,-2.77812 1.180978,-3.68211 1.951302,-5.0381 0.771702,-1.35599 2.481845,-2.96967 3.252171,-3.63664 0.766189,-0.66698 1.59439,-1.51309 1.59439,-1.51309 0,0 1.300868,-0.98116 3.074398,-1.37253 1.7763,-0.38447 2.30546,0.0675 3.95911,0.70005 0.20808,0.0841 0.39136,0.16398 0.55397,0.24529 1.0225,-0.94534 1.0101,-1.02664 2.1456,-1.47312 2.12632,-0.83234 3.36517,0.40376 3.36517,0.40376 l -1.24023,0.18466 c 0,0 2.0078,-0.2701 3.66282,0.83096 1.65503,1.09829 2.23243,1.99402 2.23243,1.99402 0,0 -2.38539,-0.53606 -0.84612,0 1.53651,0.53743 2.89388,1.37803 4.13274,2.47633 1.24299,1.09692 2.54523,2.64583 3.13779,4.2609 0.58842,1.61367 -0.29765,-0.84061 -1.48001,-1.7446 -1.17822,-0.904 -2.12907,-1.22508 -2.12907,-1.22508 0,0 1.61781,1.58888 3.01652,4.83967 0.85163,1.98851 1.73496,4.6123 1.45383,8.89386 -0.4451,6.83645 -3.70692,9.3307 -3.70692,9.3307 0,0 0.75517,-0.79513 1.05834,-1.85346 0.30454,-1.06385 0.15985,-2.3909 0.12953,-2.22967 -0.062,0.32384 -3.27697,5.03535 -3.27697,5.03535 0,0 2.57831,-3.66971 1.61506,-8.41568 -0.34727,-1.71565 -1.29949,-2.74505 -1.70739,-3.26733 -0.12678,-0.16674 -0.23151,-0.32797 -0.34038,-0.48782 -1.55994,1.97473 -4.5048,2.81119 -4.5048,2.81119 0,0 1.90031,-2.02984 2.13733,-3.51675 0.23703,-1.48552 0.13229,-4.56406 -1.52273,-6.31003 -0.22462,-0.23703 -0.48782,-0.48094 -0.76895,-0.72209 0.76482,1.70738 0.71107,3.29626 -0.0179,4.93061 -0.3638,0.80753 -1.0225,1.44143 -1.65226,1.89894 -1.6757,1.42765 -4.22507,2.33853 -7.08312,2.33853 -1.37942,0 -2.68166,-0.21221 -3.85575,-0.59256 v 10e-4 c 0,0 -0.005,-10e-4 -0.008,-0.004 -0.19706,-0.062 -0.38723,-0.13229 -0.578779,-0.2067 -2.031227,-0.64768 -8.439105,-2.01331 -5.385371,7.86171 l 0.02479,0.14607 0.0069,-10e-4 c 0.439592,2.2021 1.697744,4.93062 1.697744,4.93062 0,0 -1.598525,-2.81395 -2.898013,-5.1387 -1.300869,-2.322 -1.460722,-4.48965 -1.340834,-7.44003 0.02479,-0.60634 0.07166,-1.13275 0.135049,-1.62884 -0.144696,0.1943 -0.290767,0.36931 -0.445106,0.50023 -1.063847,0.90261 -1.911339,0.88608 -1.911339,0.88608 0,0 2.433616,-1.3932 2.363335,-7.68257"
       id="path1193"
       inkscape:connector-curvature="0" />
    <path
       style="fill:#301e11;fill-opacity:1;fill-rule:nonzero;stroke:none;stroke-width:0.352778"
       d="m 100.68301,293.27437 c 0.90813,0 1.644,0.83647 1.644,1.86724 0,1.03078 -0.73587,1.86449 -1.644,1.86449 -0.90399,0 -1.642616,-0.83371 -1.642616,-1.86449 0,-1.03077 0.738626,-1.86724 1.642616,-1.86724"
       id="path1195"
       inkscape:connector-curvature="0" />
    <path
       style="fill:#301e11;fill-opacity:1;fill-rule:nonzero;stroke:none;stroke-width:0.352778"
       d="m 114.02104,293.27437 c 0.90813,0 1.64401,0.83647 1.64401,1.86724 0,1.03078 -0.73588,1.86449 -1.64401,1.86449 -0.90537,0 -1.64124,-0.83371 -1.64124,-1.86449 0,-1.03077 0.73587,-1.86724 1.64124,-1.86724"
       id="path1197"
       inkscape:connector-curvature="0" />
    <path
       style="fill:#0f0f0f;fill-opacity:1;fill-rule:nonzero;stroke:none;stroke-width:0.352778"
       d="m 105.23881,295.98359 c -0.20809,2.56591 -1.78456,4.07073 -4.33669,4.19475 -0.25631,0.0124 -0.5085,0.0138 -0.7469,0.005 -4.019734,-0.007 -4.707376,-3.52501 -4.787301,-5.74917 -0.04961,-1.27331 0.858517,-2.36334 2.14285,-2.48874 0.735875,-0.0744 1.566828,-0.0744 2.525941,-0.0744 3.00275,0 4.31051,0.71796 4.65777,1.29261 0.20395,0.34312 0.66008,1.42351 0.54433,2.81946 m 0.46026,-3.52226 c -2.57968,-3.14331 -12.301747,-0.91365 -12.314145,-0.91502 0.179144,0.70969 0.333483,1.40973 0.474043,2.10289 0.722091,0.0758 0.763434,1.69636 0.83647,2.29029 0.350023,2.86632 2.269628,4.97885 6.304522,4.87826 4.0473,-0.20946 4.99401,-3.13917 5.15938,-4.98161 0.18327,-2.01194 -0.46165,-3.3693 -0.46027,-3.37481"
       id="path1199"
       inkscape:connector-curvature="0" />
    <path
       style="fill:#0f0f0f;fill-opacity:1;fill-rule:nonzero;stroke:none;stroke-width:0.352778"
       d="m 110.01371,293.16413 c 0.34589,-0.57464 1.65227,-1.2926 4.65639,-1.2926 0.95911,0 1.79007,0 2.52733,0.0744 1.28432,0.1254 2.19245,1.21543 2.14146,2.48874 -0.0813,2.22415 -0.76756,5.74228 -4.7873,5.74917 -0.23702,0.008 -0.49058,0.007 -0.74828,-0.005 -2.54937,-0.12402 -4.12722,-1.62884 -4.3353,-4.19475 -0.11714,-1.39595 0.33899,-2.47909 0.5457,-2.81946 m -1.46761,2.67201 c 0.16674,1.84244 1.11208,4.77215 5.15938,4.98161 4.03626,0.1006 5.95588,-2.01194 6.30452,-4.87826 0.073,-0.59393 0.11438,-2.2145 0.83784,-2.29029 0.14056,-0.69316 0.29629,-1.3932 0.47267,-2.10289 -0.01,0.001 -9.73308,-2.22967 -12.31277,0.91502 0,0.006 -0.64354,1.36288 -0.46164,3.37481"
       id="path1201"
       inkscape:connector-curvature="0" />
    <path
       style="fill:#0f0f0f;fill-opacity:1;fill-rule:nonzero;stroke:none;stroke-width:0.352778"
       d="m 109.09732,294.93077 c 0,-10e-4 -0.65871,-0.52089 -1.8135,-0.51814 -1.07901,-0.003 -1.67432,0.51677 -1.67432,0.51814 -0.17777,-0.48782 -0.35278,-0.97565 -0.53055,-1.45934 h 4.54891 c -0.17777,0.48645 -0.35416,0.97152 -0.53054,1.45934"
       id="path1203"
       inkscape:connector-curvature="0" />
  </g>
</svg>
