<?xml version="1.0" encoding="UTF-8" standalone="no"?>
<svg
   xmlns:dc="http://purl.org/dc/elements/1.1/"
   xmlns:cc="http://creativecommons.org/ns#"
   xmlns:rdf="http://www.w3.org/1999/02/22-rdf-syntax-ns#"
   xmlns:svg="http://www.w3.org/2000/svg"
   xmlns="http://www.w3.org/2000/svg"
   xmlns:sodipodi="http://sodipodi.sourceforge.net/DTD/sodipodi-0.dtd"
   xmlns:inkscape="http://www.inkscape.org/namespaces/inkscape"
   inkscape:version="1.0 (4035a4fb49, 2020-05-01)"
   sodipodi:docname="drawing7.svg"
   id="svg8"
   version="1.1"
   viewBox="0 0 84.298729 80.17289"
   height="80.17289mm"
   width="84.298729mm">
  <defs
     id="defs2">
    <clipPath
       id="clip30">
      <rect
         id="rect1043"
         height="16"
         width="27"
         y="0"
         x="0" />
    </clipPath>
    <clipPath
       id="clip31">
      <path
         id="path1040"
         d="M 0.957031,0.4375 H 26.054688 V 15.226563 H 0.957031 Z m 0,0"
         inkscape:connector-curvature="0" />
    </clipPath>
  </defs>
  <sodipodi:namedview
     inkscape:document-rotation="0"
     inkscape:window-maximized="1"
     inkscape:window-y="-8"
     inkscape:window-x="-8"
     inkscape:window-height="705"
     inkscape:window-width="1366"
     showgrid="false"
     inkscape:current-layer="layer1"
     inkscape:document-units="mm"
     inkscape:cy="9.3109594"
     inkscape:cx="-396.30881"
     inkscape:zoom="0.35"
     inkscape:pageshadow="2"
     inkscape:pageopacity="0.0"
     borderopacity="1.0"
     bordercolor="#666666"
     pagecolor="#ffffff"
     id="base" />
  <metadata
     id="metadata5">
    <rdf:RDF>
      <cc:Work
         rdf:about="">
        <dc:format>image/svg+xml</dc:format>
        <dc:type
           rdf:resource="http://purl.org/dc/dcmitype/StillImage" />
        <dc:title />
      </cc:Work>
    </rdf:RDF>
  </metadata>
  <g
     transform="translate(-101.48159,-185.85403)"
     id="layer1"
     inkscape:groupmode="layer"
     inkscape:label="Layer 1">
    <path
       style="fill:#dcc5a1;fill-opacity:1;fill-rule:nonzero;stroke:none;stroke-width:0.352778"
       d="m 144.7699,236.37291 v 29.29985 h -15.98387 c -0.25631,-0.11024 -0.38034,-0.16537 -0.38034,-0.16537 0,-1.21956 0.0565,-2.34817 0.17226,-3.39686 0.0841,-0.91639 0.22187,-1.77767 0.38861,-2.56866 0.0978,-0.50574 0.21359,-0.97427 0.34726,-1.43178 0.42719,-1.5503 0.97565,-2.83601 1.60266,-3.9219 0.0124,-0.0331 0.022,-0.0551 0.0469,-0.0758 0.62563,-1.08452 1.32016,-1.95682 2.02847,-2.64722 v -0.008 c 0.51263,-0.51814 1.03077,-0.9288 1.53238,-1.27882 0.94396,-0.6587 1.80936,-1.03766 2.46807,-1.27055 h 0.0124 c 0.7152,-0.2384 1.17546,-0.29076 1.17546,-0.29076 h 0.0799 c 0.0634,-0.0138 0.14332,-0.0248 0.2136,-0.0441 0.44511,-0.12127 0.81718,-0.55122 1.11897,-1.1989 0.16812,-0.33348 0.30455,-0.73587 0.42719,-1.19338 0.0648,-0.22462 0.12127,-0.46715 0.17777,-0.71658 0.0675,-0.28801 0.12402,-0.59118 0.16812,-0.91501 0.022,-0.15434 0.0565,-0.29904 0.0675,-0.46716 0.15985,0.0662 0.35966,0.14332 0.58291,0.22186 v -2.12355 h -0.35692 c 0.01,-0.13229 0.0193,-0.27837 0.0317,-0.40928 0.11162,-1.43316 0.1695,-2.95314 0.17915,-4.44969 0.011,-0.38722 0.011,-0.78134 0.011,-1.1603 0,0 2.15112,0.21221 3.88882,0.21221"
       id="path1511"
       inkscape:connector-curvature="0" />
    <path
       style="fill:#ebd9b3;fill-opacity:1;fill-rule:nonzero;stroke:none;stroke-width:0.352778"
       d="m 161.20163,265.50739 c 0,0 -0.0441,0.01 -0.10749,0.04 -0.0703,0.0372 -0.15985,0.0689 -0.27561,0.12541 H 144.7699 v -29.29985 h 0.0344 c 1.73495,0 3.90123,-0.21222 3.90123,-0.21222 0,1.8452 0.0579,3.77721 0.19292,5.56452 0.01,0.15572 0.0289,0.31419 0.0427,0.45613 0.0207,0.2012 0.0317,0.40377 0.0565,0.60358 0.01,0.1571 0.0331,0.30317 0.0537,0.44511 0.0579,0.44924 0.113,0.8847 0.18052,1.29811 v 0.0124 c 0.022,0.24667 0.0675,0.46578 0.11024,0.68902 0.0689,0.33762 0.14745,0.64768 0.22738,0.95085 0.32384,1.15204 0.75103,1.97748 1.32154,2.30132 0.0565,0.022 0.12127,0.0565 0.16674,0.0689 0.113,0.0441 0.2384,0.0661 0.36105,0.0661 0,0 0.6587,0.0758 1.64538,0.46853 0.58566,0.23427 1.27882,0.58291 2.00918,1.09279 0.64768,0.44786 1.34496,1.02802 2.00504,1.76664 0.54984,0.60359 1.09003,1.32843 1.58337,2.17868 0.63527,1.09416 1.20854,2.41157 1.64538,3.98804 0.32659,1.16996 0.56913,2.50114 0.71658,3.99907 0.0358,0.19981 0.0579,0.40239 0.0703,0.61185 0.0744,0.87368 0.10748,1.79972 0.10748,2.78501"
       id="path1513"
       inkscape:connector-curvature="0" />
    <g
       id="use1515"
       clip-path="url(#clip30)"
       transform="matrix(0.09333912,0,0,0.09333912,140.03221,241.57088)">
      <g
         clip-path="url(#clip31)"
         id="g1314"
         style="clip-rule:nonzero">
        <path
           style="fill:#ba9e7f;fill-opacity:1;fill-rule:nonzero;stroke:none"
           d="m 26.054688,8.386719 v 0.027344 c -1.113282,1.78125 -4.957032,6.8125 -12.558594,6.8125 h -0.05078 C 6.230469,15.199219 2.035156,9.964844 0.957031,8.445313 1.210938,6.929688 1.417969,5.308594 1.589844,3.632813 1.675781,2.617188 1.785156,1.609375 1.871094,0.566406 c 3.523437,0.890625 7.34375,1.425782 11.4375,1.488282 h 0.136719 c 4.191406,-0.0625 8.058593,-0.628907 11.6875,-1.617188 0.101562,1.019531 0.195312,2.027344 0.289062,3.003906 0.1875,1.746094 0.378906,3.394532 0.632813,4.945313"
           id="path1312"
           inkscape:connector-curvature="0" />
      </g>
    </g>
    <path
       style="fill:#ccab8a;fill-opacity:1;fill-rule:nonzero;stroke:none;stroke-width:0.352778"
       d="m 144.76163,204.88887 c -16.68115,-0.0303 -16.77761,13.32563 -16.03623,22.03759 -1.14791,-2.04501 -4.52961,-1.28571 -4.24987,1.98713 0.26458,3.13366 5.04638,4.5558 4.98161,4.20991 1.36425,7.09552 9.22872,11.03946 15.30449,11.6017 0.04,0.001 0.0882,0 0.12678,0.004 v -39.84043 c -0.0427,0 -0.0868,0 -0.12678,0"
       id="path1517"
       inkscape:connector-curvature="0" />
    <path
       style="fill:#ba9e7f;fill-opacity:1;fill-rule:nonzero;stroke:none;stroke-width:0.352778"
       d="m 125.30924,227.53142 c 0.84061,-1.26504 2.13045,-0.71934 2.44602,-0.44373 0.339,0.30731 0.60634,0.70693 0.3955,1.45521 -0.11438,0.42168 -0.58154,0.45613 -0.46853,1.09416 0.12677,0.72072 0.47818,0.76619 0.67799,0.9288 0.19706,0.16261 0.44649,0.28939 0.57051,0.59118 0.11988,0.30316 0.14193,0.62425 0.0758,0.90124 -0.13092,0.52227 -0.92604,0.10748 -1.4621,-0.12127 -0.34864,-0.15159 -1.46899,-1.04593 -1.75011,-1.34635 -0.71245,-0.75792 -1.03766,-2.21864 -0.48507,-3.05924"
       id="path1519"
       inkscape:connector-curvature="0" />
    <path
       style="fill:#d9bd9e;fill-opacity:1;fill-rule:nonzero;stroke:none;stroke-width:0.352778"
       d="m 144.84569,204.88887 c 16.68253,-0.0303 16.77624,13.32563 16.03623,22.03759 1.14239,-2.04501 4.52686,-1.28571 4.24987,1.98713 -0.26734,3.13366 -5.04775,4.5558 -4.98023,4.20991 -1.36701,7.09552 -9.22734,11.03946 -15.30587,11.6017 -0.0455,0.001 -0.0896,0 -0.12816,0.004 v -39.84043 c 0.0427,0 0.0827,0 0.12816,0"
       id="path1521"
       inkscape:connector-curvature="0" />
    <path
       style="fill:#ba9e7f;fill-opacity:1;fill-rule:nonzero;stroke:none;stroke-width:0.352778"
       d="m 164.41108,227.53142 c -0.83509,-1.26504 -2.12494,-0.71934 -2.44326,-0.44373 -0.33762,0.30731 -0.60083,0.70693 -0.39688,1.45521 0.11851,0.42168 0.58567,0.45613 0.47129,1.09416 -0.12402,0.72072 -0.4768,0.76619 -0.67524,0.9288 -0.19844,0.16261 -0.45062,0.28939 -0.57464,0.59118 -0.11714,0.30316 -0.14056,0.62425 -0.0744,0.90124 0.12954,0.52227 0.92742,0.10748 1.46072,-0.12127 0.35278,-0.15159 1.47174,-1.04593 1.75286,-1.34635 0.71107,-0.75792 1.03767,-2.21864 0.47956,-3.05924"
       id="path1523"
       inkscape:connector-curvature="0" />
    <path
       style="fill:#dcc5a1;fill-opacity:1;fill-rule:nonzero;stroke:none;stroke-width:0.352778"
       d="m 144.67343,208.66746 c -5.57278,0 -9.64902,1.53375 -12.11846,4.55303 -3.44372,4.21956 -3.31281,10.6674 -2.04226,15.29347 0.38586,1.41525 0.58705,5.22966 0.85577,6.62836 1.20302,6.25905 8.49836,9.58977 13.30495,9.58977 0.0413,0 0.0882,-0.003 0.12678,-0.003 v -36.05494 c -0.0427,0 -0.0827,-0.007 -0.12678,-0.007"
       id="path1525"
       inkscape:connector-curvature="0" />
    <path
       style="fill:#ebd9b3;fill-opacity:1;fill-rule:nonzero;stroke:none;stroke-width:0.352778"
       d="m 156.76434,213.22738 c -2.44877,-3.00136 -6.47953,-4.53099 -11.96413,-4.55579 v 36.05774 c 5.49011,-0.0551 12.04544,-3.70829 13.17405,-9.58701 0.26734,-1.40146 0.46715,-5.21311 0.85438,-6.62836 1.27193,-4.61229 1.39596,-11.05049 -2.0643,-15.28658"
       id="path1527"
       inkscape:connector-curvature="0" />
    <path
       style="fill:#b36e6e;fill-opacity:1;fill-rule:nonzero;stroke:none;stroke-width:0.352778"
       d="m 147.60866,239.07524 c 0,0 -1.26091,1.34221 -2.81534,1.34221 -1.54891,0 -2.73678,-1.31327 -2.73678,-1.31327 0,0 1.18787,-0.20257 2.73678,-0.20257 1.55443,0 2.81534,0.17363 2.81534,0.17363"
       id="path1529"
       inkscape:connector-curvature="0" />
    <path
       style="fill:#bf7873;fill-opacity:1;fill-rule:nonzero;stroke:none;stroke-width:0.352778"
       d="m 145.58983,238.45788 c -0.43408,0 -0.78548,0.26872 -0.79651,0.6091 -0.005,-0.34038 -0.35553,-0.6091 -0.79375,-0.6091 -0.43684,0 -2.01745,0.61736 -2.01745,0.61736 0,0 1.53927,0.16124 1.97887,0.16124 0.43959,0 0.82682,0.17363 0.83233,-0.15159 0.007,0.3266 0.32522,0.19982 0.76344,0.19982 0.44097,0 2.0519,-0.20947 2.0519,-0.20947 0,0 -1.57785,-0.61736 -2.01883,-0.61736"
       id="path1531"
       inkscape:connector-curvature="0" />
    <path
       style="fill:#000200;fill-opacity:1;fill-rule:nonzero;stroke:none;stroke-width:0.352778"
       d="m 161.38628,214.644 c -0.27836,-2.04638 -0.74827,-4.26778 -1.47725,-5.90902 -1.61782,-3.60495 -4.95267,-5.1387 -10.21953,-7.31601 -4.68671,-1.94992 -6.39686,-0.95498 -11.25582,0.2136 -0.10473,-0.34175 -0.25356,-0.66973 -0.45889,-0.97152 -1.47174,-2.12769 -5.04086,-2.22002 -7.9747,-0.20808 -2.9366,2.01194 -4.12171,5.36746 -2.65135,7.49791 0.32522,0.46853 0.75654,0.83509 1.25815,1.10518 -0.86128,1.85897 -1.33119,3.68487 -1.5186,4.92236 -0.0303,0.22875 -0.062,0.44786 -0.0937,0.66558 -0.64216,4.77766 -0.0331,6.74826 0.5016,7.81348 0.24392,0.51126 0.48232,0.81718 0.55811,1.13137 0.27974,1.1355 0.11024,1.50344 0.67248,2.70096 0.3638,0.32659 1.29812,0.7717 1.5875,1.55856 0.51401,1.34634 0.70694,1.11897 0.70694,1.11897 0,0 -0.71934,-4.75561 -0.79237,-6.50986 -0.011,-0.0951 -0.011,-0.18466 -0.011,-0.25907 0,-0.84887 0.38722,-5.10701 3.16948,-7.55441 0.13092,-0.12402 0.26596,-0.24253 0.41892,-0.34864 2.34405,-1.77491 6.34036,-1.02388 6.77858,-1.02388 0.0882,0 0.99631,0.70694 2.3027,1.37252 1.26641,0.6532 2.8925,1.26229 4.50067,1.18788 9.98251,-0.51539 12.08402,4.91683 12.30588,6.0482 -0.011,0.1888 -0.0331,0.38448 -0.0441,0.5774 -0.11989,1.4056 -0.26734,3.03996 -0.37345,4.1355 -0.18328,1.30775 -0.34451,2.37436 -0.34451,2.37436 0,0 0.20395,0.22737 0.71245,-1.11897 0.24253,-0.66697 1.08038,-1.08038 1.40146,-1.39596 0.0565,-0.73724 0.26872,-2.65547 0.36105,-2.86356 0.0868,-0.17087 0.17087,-0.59669 0.2384,-1.13137 0.11575,-0.83509 0.19292,-1.91409 0.19292,-2.57693 0,-0.59807 -0.0992,-2.78915 -0.45199,-5.23655"
       id="path1533"
       inkscape:connector-curvature="0" />
    <path
       style="fill:#a36e73;fill-opacity:1;fill-rule:nonzero;stroke:none;stroke-width:0.352778"
       d="m 144.78368,248.38389 c 0,0 -2.55488,-0.60909 -3.99493,-1.02388 -0.46303,-0.12402 -0.83923,-0.27147 -1.12173,-0.41755 -0.33899,0.89573 -0.76757,1.48829 -1.31051,1.63849 -0.0675,0.022 -0.14745,0.0345 -0.21635,0.0441 h -0.0799 c 0,0 -0.5209,0.0662 -1.31327,0.35416 -0.71108,2.46944 -2.33165,5.26961 -4.63986,9.23699 -1.27606,2.19521 -0.38998,6.14329 0.35278,7.81072 h 24.51254 c 0.74277,-1.52411 1.63022,-5.61551 0.35416,-7.81072"
       id="path1535"
       inkscape:connector-curvature="0" />
    <path
       style="fill:#a36e73;fill-opacity:1;fill-rule:nonzero;stroke:none;stroke-width:0.352778"
       d="m 157.32658,258.21619 c -2.30959,-3.96737 -3.93016,-6.76754 -4.64261,-9.23698 -0.79237,-0.28802 -1.31465,-0.35416 -1.31465,-0.35416 h -0.0799 c -0.0634,-0.01 -0.14608,-0.022 -0.21223,-0.0441 -0.5457,-0.15021 -0.97289,-0.74276 -1.31326,-1.63849 -0.28113,0.14607 -0.66009,0.29352 -1.12173,0.41755 -1.43591,0.41479 -3.8585,1.02388 -3.8585,1.02388"
       id="path1537"
       inkscape:connector-curvature="0" />
    <path
       style="fill:#301e11;fill-opacity:1;fill-rule:nonzero;stroke:none;stroke-width:0.352778"
       d="m 137.06666,223.57645 c 1.04042,0 1.88378,0.95636 1.88378,2.14009 0,1.18236 -0.84336,2.13872 -1.88378,2.13872 -1.03904,0 -1.88653,-0.95636 -1.88653,-2.13872 0,-1.18373 0.84749,-2.14009 1.88653,-2.14009"
       id="path1539"
       inkscape:connector-curvature="0" />
    <path
       style="fill:#301e11;fill-opacity:1;fill-rule:nonzero;stroke:none;stroke-width:0.352778"
       d="m 152.36702,223.57645 c 1.04042,0 1.8824,0.95636 1.8824,2.14009 0,1.18236 -0.84198,2.13872 -1.8824,2.13872 -1.04042,0 -1.88377,-0.95636 -1.88377,-2.13872 0,-1.18373 0.84335,-2.14009 1.88377,-2.14009"
       id="path1541"
       inkscape:connector-curvature="0" />
    <path
       style="fill:#a36e73;fill-opacity:1;fill-rule:nonzero;stroke:none;stroke-width:0.352778"
       d="m 157.27284,225.9136 c -0.15021,3.18052 -1.192,5.53834 -4.58198,5.53834 -4.01009,0 -5.52042,-3.20394 -5.52042,-5.77536 0,-2.28617 2.49563,-2.84289 5.20209,-2.84289 2.70647,0 5.00504,0.88056 4.90031,3.07991 m -19.90852,5.53834 c -3.39273,0 -4.43315,-2.35782 -4.58473,-5.53834 -0.10335,-2.19935 2.19521,-3.07991 4.90168,-3.07991 2.70646,0 5.20209,0.55672 5.20209,2.84289 0,2.57142 -1.50895,5.77536 -5.51904,5.77536 m 15.23421,-9.36515 c -3.70692,0 -5.57692,0.99908 -7.57094,0.99908 -1.9954,0 -3.8654,-0.99908 -7.57232,-0.99908 -3.11023,0 -5.9669,1.10381 -5.9669,1.10381 v 1.56407 c 0.17914,0.01 0.49747,0.073 0.54294,0.60772 0.36518,4.38905 1.38493,6.7014 5.06016,6.7014 3.8902,0 5.39502,-1.84106 6.10609,-4.03077 0.55534,-1.56407 1.18235,-2.67063 1.83003,-2.67063 0.64492,0 1.27331,1.10656 1.83004,2.67063 0.70968,2.18971 2.21312,4.03077 6.1047,4.03077 3.67523,0 4.69498,-2.31235 5.05879,-6.7014 0.0455,-0.53468 0.36517,-0.59807 0.54432,-0.60772 v -1.56407 c 0,0 -2.85667,-1.10381 -5.96691,-1.10381"
       id="path1543"
       inkscape:connector-curvature="0" />
    <path
       style="fill:#ebc728;fill-opacity:1;fill-rule:nonzero;stroke:none;stroke-width:0.352778"
       d="m 142.96329,249.02055 3.66145,-0.0923 v 4.7749 h -3.66145 z m 0,0"
       id="path1545"
       inkscape:connector-curvature="0" />
    <path
       style="fill:#d7b82e;fill-opacity:1;fill-rule:nonzero;stroke:none;stroke-width:0.352778"
       d="m 142.96329,249.02055 -3.84611,-1.35737 -0.46163,6.50847 4.30774,-0.46853 z m 0,0"
       id="path1547"
       inkscape:connector-curvature="0" />
    <path
       style="fill:#d7b82e;fill-opacity:1;fill-rule:nonzero;stroke:none;stroke-width:0.352778"
       d="m 146.62474,249.02055 3.8461,-1.35737 0.46165,6.50847 -4.30775,-0.46853 z m 0,0"
       id="path1549"
       inkscape:connector-curvature="0" />
  </g>
</svg>
