<?xml version="1.0" encoding="UTF-8" standalone="no"?>
<svg
   xmlns:dc="http://purl.org/dc/elements/1.1/"
   xmlns:cc="http://creativecommons.org/ns#"
   xmlns:rdf="http://www.w3.org/1999/02/22-rdf-syntax-ns#"
   xmlns:svg="http://www.w3.org/2000/svg"
   xmlns="http://www.w3.org/2000/svg"
   xmlns:sodipodi="http://sodipodi.sourceforge.net/DTD/sodipodi-0.dtd"
   xmlns:inkscape="http://www.inkscape.org/namespaces/inkscape"
   inkscape:version="1.0 (4035a4fb49, 2020-05-01)"
   sodipodi:docname="drawing3.svg"
   id="svg8"
   version="1.1"
   viewBox="0 0 84.297348 80.171501"
   height="80.171501mm"
   width="84.297348mm">
  <defs
     id="defs2">
    <clipPath
       id="clip12">
      <rect
         id="rect899"
         height="15"
         width="26"
         y="0"
         x="0" />
    </clipPath>
    <clipPath
       id="clip13">
      <path
         id="path896"
         d="m 0.613281,0.144531 h 24.679688 v 14.53125 H 0.613281 Z m 0,0"
         inkscape:connector-curvature="0" />
    </clipPath>
    <clipPath
       id="clip14">
      <rect
         id="rect915"
         height="24"
         width="32"
         y="0"
         x="0" />
    </clipPath>
    <clipPath
       id="clip15">
      <path
         id="path912"
         d="M 0.984375,0.167969 H 31.128906 V 23.441406 H 0.984375 Z m 0,0"
         inkscape:connector-curvature="0" />
    </clipPath>
    <clipPath
       id="clip16">
      <rect
         id="rect931"
         height="24"
         width="31"
         y="0"
         x="0" />
    </clipPath>
    <clipPath
       id="clip17">
      <path
         id="path928"
         d="M 0.496094,0.246094 H 30.640625 V 23.515625 H 0.496094 Z m 0,0"
         inkscape:connector-curvature="0" />
    </clipPath>
    <clipPath
       id="clip18">
      <rect
         id="rect947"
         height="22"
         width="15"
         y="0"
         x="0" />
    </clipPath>
    <clipPath
       id="clip19">
      <path
         id="path944"
         d="M 0.414063,0.257813 H 14.992188 V 21.308594 H 0.414063 Z m 0,0"
         inkscape:connector-curvature="0" />
    </clipPath>
    <clipPath
       id="clip20">
      <rect
         id="rect963"
         height="23"
         width="15"
         y="0"
         x="0" />
    </clipPath>
    <clipPath
       id="clip21">
      <path
         id="path960"
         d="M 0.75,0.554688 H 14.535156 V 22.539063 H 0.75 Z m 0,0"
         inkscape:connector-curvature="0" />
    </clipPath>
    <clipPath
       id="clip22">
      <rect
         id="rect979"
         height="22"
         width="17"
         y="0"
         x="0" />
    </clipPath>
    <clipPath
       id="clip23">
      <path
         id="path976"
         d="m 0.914063,0.332031 h 15.28125 V 21.378906 H 0.914063 Z m 0,0"
         inkscape:connector-curvature="0" />
    </clipPath>
    <clipPath
       id="clip24">
      <rect
         id="rect995"
         height="23"
         width="15"
         y="0"
         x="0" />
    </clipPath>
    <clipPath
       id="clip25">
      <path
         id="path992"
         d="M 0.960938,0.628906 H 14.746094 V 22.617188 H 0.960938 Z m 0,0"
         inkscape:connector-curvature="0" />
    </clipPath>
  </defs>
  <sodipodi:namedview
     inkscape:document-rotation="0"
     inkscape:window-maximized="1"
     inkscape:window-y="-8"
     inkscape:window-x="-8"
     inkscape:window-height="705"
     inkscape:window-width="1366"
     showgrid="false"
     inkscape:current-layer="layer1"
     inkscape:document-units="mm"
     inkscape:cy="230.76541"
     inkscape:cx="264.18095"
     inkscape:zoom="1.4"
     inkscape:pageshadow="2"
     inkscape:pageopacity="0.0"
     borderopacity="1.0"
     bordercolor="#666666"
     pagecolor="#ffffff"
     id="base" />
  <metadata
     id="metadata5">
    <rdf:RDF>
      <cc:Work
         rdf:about="">
        <dc:format>image/svg+xml</dc:format>
        <dc:type
           rdf:resource="http://purl.org/dc/dcmitype/StillImage" />
        <dc:title />
      </cc:Work>
    </rdf:RDF>
  </metadata>
  <g
     transform="translate(-25.131087,-151.08092)"
     id="layer1"
     inkscape:groupmode="layer"
     inkscape:label="Layer 1">
    <path
       style="fill:#ffffff;fill-opacity:1;fill-rule:nonzero;stroke:none;stroke-width:0.352778"
       d="m 58.683561,219.41921 -0.188791,-0.19155 c 0,0.0703 0.07717,0.13229 0.188791,0.19155"
       id="path1375"
       inkscape:connector-curvature="0" />
    <path
       style="fill:#ffffff;fill-opacity:1;fill-rule:nonzero;stroke:none;stroke-width:0.352778"
       d="m 58.49477,219.19321 -0.0096,-0.0193 0.0096,0.0537 c 0,-0.007 0.0069,-0.022 0.0083,-0.0344 z m 0,0"
       id="path1377"
       inkscape:connector-curvature="0" />
    <path
       style="fill:#dcc5a1;fill-opacity:1;fill-rule:nonzero;stroke:none;stroke-width:0.352778"
       d="m 66.435024,202.22818 v 28.78171 H 50.725389 c -0.253559,-0.0965 -0.383092,-0.15159 -0.383092,-0.15159 0,-10.70322 4.61505,-14.54657 7.442781,-15.89705 1.258152,-0.59255 2.162144,-0.70417 2.162144,-0.70417 0.967385,0 1.581986,-1.22646 1.9954,-3.09508 0.06339,-0.28525 0.121266,-0.58015 0.16261,-0.90124 0.08957,-0.52503 0.163983,-1.08589 0.224615,-1.66742 0.02893,-0.35278 0.06339,-0.70004 0.09509,-1.06385 0.141936,-1.76802 0.191545,-3.68763 0.191545,-5.51353 0,0 2.098752,0.21222 3.818543,0.21222"
       id="path1379"
       inkscape:connector-curvature="0" />
    <path
       style="fill:#ebd9b3;fill-opacity:1;fill-rule:nonzero;stroke:none;stroke-width:0.352778"
       d="m 82.587011,230.8583 c 0,0 -0.143316,0.0551 -0.374827,0.15296 h -15.77716 v -28.78308 h 0.03306 c 1.708769,0 3.835082,-0.21222 3.835082,-0.21222 0,1.8135 0.04547,3.70968 0.186034,5.46806 0.03583,0.35278 0.06753,0.70555 0.1006,1.0418 0.06477,0.60495 0.130911,1.17408 0.219107,1.7129 v 0.01 c 0.03305,0.24529 0.06752,0.46026 0.124021,0.68488 0.396875,1.983 1.043175,3.32383 2.035362,3.32383 0,0 1.154798,0.14469 2.678907,0.96876 2.841514,1.55718 6.939801,5.54247 6.939801,15.63246"
       id="path1381"
       inkscape:connector-curvature="0" />
    <g
       id="use1383"
       clip-path="url(#clip12)"
       transform="matrix(0.09333912,0,0,0.09333912,61.883371,209.13079)">
      <g
         clip-path="url(#clip13)"
         id="g1739"
         style="clip-rule:nonzero">
        <path
           style="fill:#ba9e7f;fill-opacity:1;fill-rule:nonzero;stroke:none"
           d="m 25.292969,7.964844 v 0.019531 c -1.097656,1.75 -4.878906,6.691406 -12.339844,6.691406 h -0.05469 C 5.808594,14.648438 1.679688,9.511719 0.613281,8.015625 0.863281,6.527344 1.085938,4.9375 1.242188,3.289063 1.34375,2.292969 1.433594,1.304688 1.523438,0.273438 4.984375,1.144531 8.730469,1.671875 12.765625,1.730469 h 0.132813 c 4.117187,-0.058594 7.921875,-0.617188 11.484375,-1.585938 0.101562,1 0.179687,1.988282 0.285156,2.957032 0.1875,1.707031 0.367187,3.324218 0.625,4.863281"
           id="path1737"
           inkscape:connector-curvature="0" />
      </g>
    </g>
    <path
       style="fill:#ebebee;fill-opacity:1;fill-rule:nonzero;stroke:none;stroke-width:0.352778"
       d="m 60.619705,215.98651 c 0,0 5.829102,4.34082 11.73675,0 l -6.107464,8.79464 z m 0,0"
       id="path1385"
       inkscape:connector-curvature="0" />
    <path
       style="fill:#3f3019;fill-opacity:1;fill-rule:nonzero;stroke:none;stroke-width:0.352778"
       d="m 82.610438,230.8459 c 0,0 -0.143315,0.0579 -0.377585,0.16536 H 50.746062 c -0.252183,-0.10748 -0.38723,-0.16536 -0.38723,-0.16536 0,-14.52452 8.231021,-16.62052 9.467123,-16.84238 0.650433,0.72898 1.532379,1.6371 2.434992,2.53559 1.936144,1.90307 3.990798,3.76618 3.990798,3.76618 0,0 2.302706,-1.94028 4.303615,-3.67385 0,-0.0138 0.01101,-0.0248 0.01101,-0.0248 0.803394,-0.69041 1.566831,-1.34773 2.093238,-1.85209 0.101978,-0.091 0.198438,-0.1695 0.276987,-0.25494 0.210841,-0.19705 0.374827,-0.3514 0.463021,-0.45061 h 0.01241 c 0.294896,0.0675 0.712443,0.18741 1.222317,0.4079 0.08682,0.0331 0.173635,0.0772 0.275608,0.12126 0.558104,0.24943 1.22232,0.62425 1.893425,1.11759 0.09646,0.0772 0.183279,0.14469 0.27423,0.22048 2.623783,2.05328 5.532823,6.29075 5.532823,14.92967"
       id="path1387"
       inkscape:connector-curvature="0" />
    <path
       style="fill:#ccab8a;fill-opacity:1;fill-rule:nonzero;stroke:none;stroke-width:0.352778"
       d="m 66.330294,169.1911 c -16.641189,0 -16.736274,13.88373 -15.993511,22.96776 -1.142393,-2.1525 -4.518585,-1.48691 -4.245736,1.90445 0.268717,3.27008 5.039486,4.9568 4.97472,4.57784 1.361499,7.47723 9.19289,11.79738 15.264527,11.79738 0.04272,0 0.08544,-0.006 0.128159,-0.006 v -41.24056 c -0.04272,0 -0.08544,-0.001 -0.128159,-0.001"
       id="path1389"
       inkscape:connector-curvature="0" />
    <path
       style="fill:#ba9e7f;fill-opacity:1;fill-rule:nonzero;stroke:none;stroke-width:0.352778"
       d="m 47.218284,192.6329 c 0.826823,-1.30913 2.093239,-0.74689 2.407433,-0.45889 0.33073,0.3142 0.591178,0.72899 0.388606,1.5062 -0.117132,0.43408 -0.576019,0.46853 -0.46302,1.13137 0.121267,0.7469 0.468531,0.79375 0.665592,0.96187 0.192924,0.16812 0.436838,0.29766 0.56224,0.61047 0.115754,0.31695 0.136426,0.64906 0.0689,0.93844 -0.122647,0.53468 -0.906748,0.10887 -1.43178,-0.12815 -0.347268,-0.15848 -1.444184,-1.08176 -1.721171,-1.39595 -0.701421,-0.78549 -1.022505,-2.29719 -0.476801,-3.16536"
       id="path1391"
       inkscape:connector-curvature="0" />
    <path
       style="fill:#d9bd9e;fill-opacity:1;fill-rule:nonzero;stroke:none;stroke-width:0.352778"
       d="m 66.583855,169.1911 c 16.642564,0 16.73765,13.88373 15.999021,22.96776 1.141018,-2.1525 4.519964,-1.48691 4.238847,1.90445 -0.264583,3.27008 -5.036732,4.9568 -4.970587,4.57784 -1.362879,7.47723 -9.191513,11.79738 -15.267281,11.79738 -0.03721,0 -0.08544,-0.006 -0.126783,-0.006 v -41.24056 c 0.0441,0 0.08957,-0.001 0.126783,-0.001"
       id="path1393"
       inkscape:connector-curvature="0" />
    <path
       style="fill:#ba9e7f;fill-opacity:1;fill-rule:nonzero;stroke:none;stroke-width:0.352778"
       d="m 85.759255,192.63014 c -0.818558,-1.31326 -2.086351,-0.74551 -2.400544,-0.45613 -0.330729,0.31282 -0.591177,0.72899 -0.391364,1.5062 0.114377,0.4327 0.577398,0.46578 0.4644,1.12724 -0.124021,0.74552 -0.46853,0.7965 -0.664213,0.96325 -0.195683,0.16812 -0.442352,0.29765 -0.56224,0.61184 -0.117133,0.3142 -0.139181,0.65044 -0.07166,0.93569 0.122647,0.53744 0.908126,0.11024 1.431784,-0.12953 0.347263,-0.15434 1.448319,-1.07901 1.721168,-1.39458 0.704178,-0.78135 1.023885,-2.29443 0.472668,-3.16398"
       id="path1395"
       inkscape:connector-curvature="0" />
    <path
       style="fill:#dcc5a1;fill-opacity:1;fill-rule:nonzero;stroke:none;stroke-width:0.352778"
       d="m 66.359235,173.10197 c -5.477701,0 -9.487795,1.58887 -11.910386,4.71564 -3.387217,4.36425 -3.25906,11.03809 -2.007804,15.83228 0.378963,1.45935 0.574644,5.40743 0.841984,6.85988 1.1796,6.47678 8.348157,9.92876 13.076206,9.92876 0.03721,0 0.08406,-0.006 0.122645,-0.006 v -37.32692 c -0.04134,0 -0.08268,-0.004 -0.122645,-0.004"
       id="path1397"
       inkscape:connector-curvature="0" />
    <path
       style="fill:#ebd9b3;fill-opacity:1;fill-rule:nonzero;stroke:none;stroke-width:0.352778"
       d="m 78.215873,177.82313 c -2.407431,-3.10473 -6.366534,-4.69223 -11.75742,-4.71703 v 37.3283 c 5.39364,-0.0634 11.842859,-3.84197 12.948045,-9.92463 0.26045,-1.45108 0.460263,-5.40053 0.839226,-6.85988 1.245746,-4.77903 1.369769,-11.44323 -2.029851,-15.82676"
       id="path1399"
       inkscape:connector-curvature="0" />
    <path
       style="fill:#3a2e17;fill-opacity:1;fill-rule:nonzero;stroke:none;stroke-width:0.352778"
       d="m 78.849772,170.90951 c -3.684873,-3.05511 -8.598958,-5.0891 -11.954481,-4.69774 -3.356901,-0.39136 -8.26961,1.64263 -11.953102,4.69774 -6.013762,4.98987 -4.619185,19.79138 -4.619185,19.79138 0,0 0.966004,-0.25769 1.528243,0.37069 0.771702,0.86817 1.219565,1.87138 1.426271,2.93109 0.208081,1.05282 1.070734,1.52136 1.070734,1.52136 0,0 -1.435915,-7.10655 0.04272,-10.27466 0.912262,-1.96232 1.706012,-4.10104 4.455197,-6.16534 1.806609,-1.3491 4.995388,-1.72392 8.049122,-1.68121 3.053731,-0.0427 6.241135,0.33211 8.043608,1.68121 2.757456,2.0643 3.549825,4.20302 4.462087,6.16534 1.480013,3.16811 0.03858,10.27466 0.03858,10.27466 0,0 0.862653,-0.46854 1.072116,-1.52136 0.208082,-1.05971 0.657323,-2.06292 1.427647,-2.93109 0.560863,-0.62838 1.525487,-0.37069 1.525487,-0.37069 0,0 1.401466,-14.80151 -4.615048,-19.79138"
       id="path1401"
       inkscape:connector-curvature="0" />
    <path
       style="fill:#3f3019;fill-opacity:1;fill-rule:nonzero;stroke:none;stroke-width:0.352778"
       d="m 57.742361,177.72391 c 0.654569,-1.56821 2.181434,-4.2857 6.214954,-5.33439 1.218184,-0.31833 5.072555,-0.70418 6.624228,0 1.547537,0.70969 2.321994,1.72117 2.769856,2.96416 0.461645,1.28571 0.259073,5.30545 -5.750554,5.85942 -2.286164,0.20946 -6.174989,1.43316 -6.843337,2.77537 -1.110697,2.22415 1.689476,4.04867 1.689476,4.04867 0,0 -3.80201,-1.61644 -4.728052,-4.26778 -0.413408,-1.19338 -1.058333,-3.45474 0.02342,-6.04545"
       id="path1403"
       inkscape:connector-curvature="0" />
    <g
       id="use1405"
       clip-path="url(#clip14)"
       transform="matrix(0.09333912,0,0,0.09333912,54.475038,189.02246)">
      <g
         clip-path="url(#clip15)"
         id="g1721"
         style="clip-rule:nonzero">
        <path
           style="fill:#ffffff;fill-opacity:1;fill-rule:nonzero;stroke:none"
           d="m 1.40625,6.246094 c -1.585938,5.25 1.074219,17.914062 11.832031,17.164062 9.441407,-0.667968 14.367188,-3.820312 16.191407,-9 C 34.222656,0.785156 28.238281,1.222656 19.390625,0.40625 9.96875,-0.472656 2.988281,0.996094 1.40625,6.246094"
           id="path1719"
           inkscape:connector-curvature="0" />
      </g>
    </g>
    <g
       id="use1407"
       clip-path="url(#clip16)"
       transform="matrix(0.09333912,0,0,0.09333912,68.233371,189.02246)">
      <g
         clip-path="url(#clip17)"
         id="g1715"
         style="clip-rule:nonzero">
        <path
           style="fill:#ffffff;fill-opacity:1;fill-rule:nonzero;stroke:none"
           d="M 30.21875,6.320313 C 31.800781,11.574219 29.148438,24.234375 18.378906,23.484375 8.941406,22.820313 4.011719,19.664063 2.191406,14.492188 -2.601563,0.859375 3.386719,1.296875 12.238281,0.480469 21.65625,-0.390625 28.632813,1.070313 30.21875,6.320313"
           id="path1713"
           inkscape:connector-curvature="0" />
      </g>
    </g>
    <g
       id="use1409"
       clip-path="url(#clip18)"
       transform="matrix(0.09333912,0,0,0.09333912,55.180591,189.02246)">
      <g
         clip-path="url(#clip19)"
         id="g1727"
         style="clip-rule:nonzero">
        <path
           style="fill:#ffffff;fill-opacity:1;fill-rule:nonzero;stroke:none"
           d="m 3.832031,21.308594 -3.417968,-5.457031 8.28125,-15.59375 6.296875,0.222656 z m 0,0"
           id="path1725"
           inkscape:connector-curvature="0" />
      </g>
    </g>
    <g
       id="use1411"
       clip-path="url(#clip20)"
       transform="matrix(0.09333912,0,0,0.09333912,57.297258,189.02246)">
      <g
         clip-path="url(#clip21)"
         id="g1733"
         style="clip-rule:nonzero">
        <path
           style="fill:#ffffff;fill-opacity:1;fill-rule:nonzero;stroke:none"
           d="M 3.148438,22.542969 0.75,22.4375 12.136719,0.554688 14.535156,0.859375 Z m 0,0"
           id="path1731"
           inkscape:connector-curvature="0" />
      </g>
    </g>
    <g
       id="use1413"
       clip-path="url(#clip22)"
       transform="matrix(0.09333912,0,0,0.09333912,69.291704,189.02246)">
      <g
         clip-path="url(#clip23)"
         id="g1745"
         style="clip-rule:nonzero">
        <path
           style="fill:#ffffff;fill-opacity:1;fill-rule:nonzero;stroke:none"
           d="m 5.039063,21.378906 -4.125,-3.894531 8.992187,-17.152344 6.289063,0.222657 z m 0,0"
           id="path1743"
           inkscape:connector-curvature="0" />
      </g>
    </g>
    <g
       id="use1415"
       clip-path="url(#clip24)"
       transform="matrix(0.09333912,0,0,0.09333912,71.761148,189.02246)">
      <g
         clip-path="url(#clip25)"
         id="g1751"
         style="clip-rule:nonzero">
        <path
           style="fill:#ffffff;fill-opacity:1;fill-rule:nonzero;stroke:none"
           d="M 3.359375,22.617188 0.960938,22.511719 12.347656,0.628906 14.746094,0.921875 Z m 0,0"
           id="path1749"
           inkscape:connector-curvature="0" />
      </g>
    </g>
    <path
       style="fill:#000000;fill-opacity:1;fill-rule:nonzero;stroke:none;stroke-width:0.352778"
       d="m 78.633419,191.88601 c 0,0 -0.08682,1.11069 -0.154339,1.60265 -0.343133,2.55489 -1.544783,3.25907 -2.973808,3.42994 -1.562695,0.19155 -2.401919,0.0386 -3.507108,-0.22738 -1.398706,-0.33624 -2.123556,-1.25815 -2.746428,-2.5535 -0.494718,-1.03215 -0.570508,-2.32888 -0.570508,-2.32888 -0.381717,-1.79008 1.639867,-2.48874 5.45152,-2.55075 2.288921,-0.0386 4.575086,0.62563 4.500671,2.62792 m -13.524065,-0.0772 c 0,0 -0.07579,1.29673 -0.573265,2.32888 -0.622872,1.29536 -1.346346,2.21726 -2.742298,2.5535 -1.109319,0.26597 -1.945788,0.41893 -3.509862,0.22738 -1.426268,-0.17087 -2.632051,-0.87505 -2.973806,-3.42993 -0.06752,-0.49197 -0.152963,-1.60266 -0.152963,-1.60266 -0.07579,-2.00229 2.210374,-2.66651 4.497917,-2.62792 3.81441,0.062 5.835991,0.76067 5.454276,2.55075 m 14.972385,-2.24759 c 0,-0.83784 -2.326127,-0.57188 -6.17637,-0.72346 -2.658232,-0.10611 -4.740449,0.28663 -5.629285,1.14377 h -2.762965 c -0.888836,-0.85714 -2.972429,-1.24988 -5.626531,-1.14377 -3.852992,0.15158 -6.177746,-0.11438 -6.177746,0.72346 0,0.13367 -0.05374,0.31971 0.0758,0.53331 0.261827,0.4327 0.723469,0 0.80064,2.0078 0,0 0.239779,1.46761 0.304546,1.95819 0.343133,2.5535 2.080837,3.18189 3.507108,3.35552 1.564071,0.19155 2.440506,0 3.547068,-0.26596 1.398711,-0.339 2.539724,-1.63987 3.165355,-2.9366 0.369316,-0.77032 0.657323,-1.99126 0.777214,-2.55626 h 2.017448 c 0.119888,0.565 0.405141,1.78594 0.777213,2.55626 0.62425,1.29673 1.766645,2.5976 3.162597,2.9366 1.107943,0.26596 1.984375,0.45751 3.54707,0.26596 1.427649,-0.17363 3.165353,-0.80202 3.508484,-3.35552 0.06614,-0.49058 0.304548,-1.95819 0.304548,-1.95819 0.07855,-2.0078 0.541568,-1.5751 0.80064,-2.0078 0.130913,-0.2136 0.07717,-0.39964 0.07717,-0.53331"
       id="path1417"
       inkscape:connector-curvature="0" />
    <path
       style="fill:#301e11;fill-opacity:1;fill-rule:nonzero;stroke:none;stroke-width:0.352778"
       d="m 60.218695,190.12074 c 0.964625,0 1.75011,0.89159 1.75011,1.98713 0,1.09967 -0.785485,1.99126 -1.75011,1.99126 -0.966005,0 -1.74873,-0.89159 -1.74873,-1.99126 0,-1.09554 0.782725,-1.98713 1.74873,-1.98713"
       id="path1419"
       inkscape:connector-curvature="0" />
    <path
       style="fill:#301e11;fill-opacity:1;fill-rule:nonzero;stroke:none;stroke-width:0.352778"
       d="m 74.424891,190.12074 c 0.966004,0 1.747353,0.89159 1.747353,1.98713 0,1.09967 -0.781349,1.99126 -1.747353,1.99126 -0.966005,0 -1.748729,-0.89159 -1.748729,-1.99126 0,-1.09554 0.782724,-1.98713 1.748729,-1.98713"
       id="path1421"
       inkscape:connector-curvature="0" />
    <path
       style="fill:#171707;fill-opacity:1;fill-rule:nonzero;stroke:none;stroke-width:0.352778"
       d="m 59.507627,214.24743 1.382173,-1.84106 5.155239,3.55258 -0.567751,3.97426 z m 0,0"
       id="path1423"
       inkscape:connector-curvature="0" />
    <path
       style="fill:#171707;fill-opacity:1;fill-rule:nonzero;stroke:none;stroke-width:0.352778"
       d="m 73.891589,214.24743 -1.382173,-1.84106 -5.15524,3.55258 0.567754,3.97426 z m 0,0"
       id="path1425"
       inkscape:connector-curvature="0" />
    <path
       style="fill:#de4f17;fill-opacity:1;fill-rule:nonzero;stroke:none;stroke-width:0.352778"
       d="m 66.045039,215.95895 h 1.309137 l 0.567754,3.97426 h -2.444642 z m 0,0"
       id="path1427"
       inkscape:connector-curvature="0" />
    <path
       style="fill:#de4f17;fill-opacity:1;fill-rule:nonzero;stroke:none;stroke-width:0.352778"
       d="m 65.477288,219.93321 -1.120343,5.2021 2.200727,3.22736 2.005044,-3.22736 -0.640786,-5.2021 z m 0,0"
       id="path1429"
       inkscape:connector-curvature="0" />
    <path
       style="fill:#3a2e17;fill-opacity:1;fill-rule:nonzero;stroke:none;stroke-width:0.352778"
       d="m 67.85027,206.65582 c -0.299032,0 -1.969217,-0.0179 -2.261359,-0.0606 -0.463021,-0.0689 1.405599,2.74643 -1.164445,1.78455 -2.31648,-0.86954 -4.085883,-2.86632 -4.085883,-4.28845 0,-1.51446 2.104268,-1.45383 4.575087,-1.87275 0.551215,-0.0909 1.655025,-0.63114 1.655025,-0.63114 0,0 1.200271,0.53054 1.719791,0.61184 2.531457,0.39688 4.692222,0.59532 4.692222,2.13734 0,1.65227 -1.951302,3.4258 -4.398698,4.2733 -1.5875,0.54984 -0.367938,-1.95406 -0.73174,-1.95406 m 6.166721,-2.92971 c -0.242533,-1.34359 -0.866786,-2.14836 -1.770777,-2.56729 -1.292601,-0.59806 -1.977486,-0.69453 -2.808444,-0.6711 -1.41111,0.0386 -2.99172,0.24529 -2.99172,0.24529 0,0 -2.01607,-0.73311 -4.099664,-0.14056 -2.153875,0.61185 -3.348632,2.17041 -3.655935,2.76573 -0.591177,1.13687 0.186034,5.30957 0.366559,6.77856 0.107487,0.88057 0.77308,1.98162 1.518597,2.4598 0.344509,0.22187 3.764799,2.10565 4.344953,2.12907 0.72485,0.0248 1.448319,0.0551 2.170412,0.0854 0.647678,0.0248 1.748731,-0.0331 2.346798,-0.27698 1.157552,-0.47818 2.932465,-1.71015 4.036274,-2.82912 1.145149,-1.15342 0.649055,-7.39731 0.542947,-7.97884"
       id="path1431"
       inkscape:connector-curvature="0" />
  </g>
</svg>
