<?xml version="1.0" encoding="UTF-8" standalone="no"?>
<svg
   xmlns:dc="http://purl.org/dc/elements/1.1/"
   xmlns:cc="http://creativecommons.org/ns#"
   xmlns:rdf="http://www.w3.org/1999/02/22-rdf-syntax-ns#"
   xmlns:svg="http://www.w3.org/2000/svg"
   xmlns="http://www.w3.org/2000/svg"
   xmlns:sodipodi="http://sodipodi.sourceforge.net/DTD/sodipodi-0.dtd"
   xmlns:inkscape="http://www.inkscape.org/namespaces/inkscape"
   inkscape:version="1.0 (4035a4fb49, 2020-05-01)"
   sodipodi:docname="drawing2.svg"
   id="svg8"
   version="1.1"
   viewBox="0 0 84.297356 80.171501"
   height="80.171501mm"
   width="84.297356mm">
  <defs
     id="defs2">
    <clipPath
       id="clip9">
      <rect
         id="rect880"
         height="15"
         width="25"
         y="0"
         x="0" />
    </clipPath>
    <clipPath
       id="clip10">
      <path
         id="path877"
         d="M 0.441406,0.00390625 H 24.730469 V 14.3125 H 0.441406 Z m 0,0"
         inkscape:connector-curvature="0" />
    </clipPath>
  </defs>
  <sodipodi:namedview
     inkscape:document-rotation="0"
     inkscape:window-maximized="1"
     inkscape:window-y="-8"
     inkscape:window-x="-8"
     inkscape:window-height="705"
     inkscape:window-width="1366"
     showgrid="false"
     inkscape:current-layer="layer1"
     inkscape:document-units="mm"
     inkscape:cy="157.82989"
     inkscape:cx="-14.972261"
     inkscape:zoom="1.4"
     inkscape:pageshadow="2"
     inkscape:pageopacity="0.0"
     borderopacity="1.0"
     bordercolor="#666666"
     pagecolor="#ffffff"
     id="base" />
  <metadata
     id="metadata5">
    <rdf:RDF>
      <cc:Work
         rdf:about="">
        <dc:format>image/svg+xml</dc:format>
        <dc:type
           rdf:resource="http://purl.org/dc/dcmitype/StillImage" />
        <dc:title />
      </cc:Work>
    </rdf:RDF>
  </metadata>
  <g
     transform="translate(-73.512036,-155.61663)"
     id="layer1"
     inkscape:groupmode="layer"
     inkscape:label="Layer 1">
    <path
       style="fill:#dcc5a1;fill-opacity:1;fill-rule:nonzero;stroke:none;stroke-width:0.352778"
       d="M 115.13979,206.13827 V 234.4914 H 99.671333 c -0.248045,-0.11024 -0.383092,-0.1626 -0.383092,-0.1626 0,-15.20941 9.472639,-16.34354 9.472639,-16.34354 0.94257,0 1.55027,-1.21129 1.95544,-3.05235 0.062,-0.27836 0.11574,-0.56913 0.15984,-0.8847 0.091,-0.51814 0.16259,-1.06798 0.2136,-1.64124 0.0358,-0.34589 0.0689,-0.6904 0.10058,-1.04593 0.14058,-1.7446 0.18331,-3.63389 0.18331,-5.42948 0,0 2.08357,0.20671 3.76614,0.20671"
       id="path1255"
       inkscape:connector-curvature="0" />
    <path
       style="fill:#ebd9b3;fill-opacity:1;fill-rule:nonzero;stroke:none;stroke-width:0.352778"
       d="m 131.04101,234.3288 c 0,0 -0.14059,0.0537 -0.36933,0.1626 h -15.53189 v -28.35313 h 0.0317 c 1.68258,0 3.77307,-0.20671 3.77307,-0.20671 0,1.78457 0.0414,3.65456 0.18327,5.38262 0.0358,0.34865 0.0675,0.69454 0.0992,1.02664 0.0634,0.59531 0.12816,1.1548 0.21773,1.68534 v 0.0124 c 0.0346,0.23978 0.0772,0.452 0.1185,0.67111 0.40238,1.95543 1.03078,3.2756 2.00505,3.2756 0,0 9.47264,1.13412 9.47264,16.34353"
       id="path1257"
       inkscape:connector-curvature="0" />
    <g
       id="use1259"
       clip-path="url(#clip9)"
       transform="matrix(0.09333912,0,0,0.09333912,110.71908,211.31281)">
      <g
         clip-path="url(#clip10)"
         id="g1068"
         style="clip-rule:nonzero">
        <path
           style="fill:#ba9e7f;fill-opacity:1;fill-rule:nonzero;stroke:none"
           d="M 24.730469,7.691406 V 7.730469 C 23.660156,9.449219 19.929688,14.3125 12.582031,14.3125 H 12.53125 C 5.550781,14.289063 1.496094,9.230469 0.445313,7.753906 0.703125,6.285156 0.90625,4.726563 1.050781,3.101563 1.152344,2.121094 1.246094,1.144531 1.335938,0.136719 4.75,0.992188 8.433594,1.507813 12.398438,1.570313 H 12.53125 C 16.589844,1.507813 20.335938,0.957031 23.835938,0.00390625 23.9375,0.992188 24.027344,1.972656 24.117188,2.914063 c 0.179687,1.6875 0.367187,3.269531 0.613281,4.777343"
           id="path1066"
           inkscape:connector-curvature="0" />
      </g>
    </g>
    <path
       style="fill:#baca30;fill-opacity:1;fill-rule:nonzero;stroke:none;stroke-width:0.352778"
       d="m 128.24496,222.49421 c -1.6123,-2.47772 -3.55395,-3.67799 -4.92234,-4.24712 l -8.2889,4.29397 0.16259,9.45196 -0.16259,-9.45196 -7.96508,-4.29397 c -1.36288,0.56913 -3.30867,1.7694 -4.92097,4.24712 0.47542,0.53743 0.93293,1.36012 1.27882,2.60449 1.01837,3.64353 0.4327,8.08908 0.22875,9.40373 h 23.08491 c -0.2081,-1.31465 -0.79375,-5.7602 0.22874,-9.40373 0.34315,-1.24437 0.79925,-2.06706 1.27607,-2.60449"
       id="path1261"
       inkscape:connector-curvature="0" />
    <path
       style="fill:#4f1c1c;fill-opacity:1;fill-rule:nonzero;stroke:none;stroke-width:0.352778"
       d="m 139.12043,190.39832 c 0,3.78133 -11.61824,12.65728 -24.08947,12.65728 -12.4685,0 -24.083987,-7.65225 -24.083987,-11.43496 0,-3.7841 11.195187,-5.2834 23.662277,-5.2834 12.46851,0 24.51118,0.27698 24.51118,4.06108"
       id="path1263"
       inkscape:connector-curvature="0" />
    <path
       style="fill:#ccab8a;fill-opacity:1;fill-rule:nonzero;stroke:none;stroke-width:0.352778"
       d="m 115.18252,173.61932 c -16.383483,0 -16.475812,13.67014 -15.746832,22.61361 -1.124479,-2.11804 -4.451061,-1.46485 -4.176832,1.87138 0.263204,3.22185 4.959554,4.88376 4.893414,4.51032 1.34359,7.3601 9.04958,11.61135 15.03025,11.61135 0.0414,0 0.0882,-0.007 0.12266,-0.007 v -40.5969 c -0.04,0 -0.0813,-0.003 -0.12266,-0.003"
       id="path1265"
       inkscape:connector-curvature="0" />
    <path
       style="fill:#d9bd9e;fill-opacity:1;fill-rule:nonzero;stroke:none;stroke-width:0.352778"
       d="m 115.26521,173.61932 c 16.38487,0 16.47581,13.67014 15.74962,22.61361 1.12032,-2.11804 4.44553,-1.46485 4.17406,1.87138 -0.2632,3.22185 -4.95818,4.88376 -4.89754,4.51032 -1.33946,7.3601 -9.04822,11.61135 -15.02614,11.61135 -0.0441,0 -0.0854,-0.007 -0.12817,-0.007 v -40.5969 c 0.0427,0 0.0841,-0.003 0.12817,-0.003"
       id="path1267"
       inkscape:connector-curvature="0" />
    <path
       style="fill:#ba9e7f;fill-opacity:1;fill-rule:nonzero;stroke:none;stroke-width:0.352778"
       d="m 134.14157,196.6932 c -0.81026,-1.28709 -2.05878,-0.73036 -2.36608,-0.44787 -0.3266,0.30868 -0.5829,0.71658 -0.38446,1.48278 0.11713,0.42718 0.5691,0.46163 0.45886,1.11345 -0.12125,0.73449 -0.46302,0.77997 -0.6573,0.94671 -0.1888,0.16536 -0.43409,0.29214 -0.554,0.60358 -0.11437,0.30868 -0.13504,0.63803 -0.0717,0.91915 0.12541,0.52917 0.89849,0.10887 1.41249,-0.12402 0.34452,-0.15296 1.42353,-1.06523 1.69636,-1.37528 0.68764,-0.76895 1.00461,-2.25861 0.46578,-3.1185"
       id="path1269"
       inkscape:connector-curvature="0" />
    <path
       style="fill:#dcc5a1;fill-opacity:1;fill-rule:nonzero;stroke:none;stroke-width:0.352778"
       d="m 115.04197,177.4737 c -5.39088,0 -9.33621,1.55855 -11.72573,4.64261 -3.336227,4.29672 -3.20945,10.86583 -1.97886,15.58285 0.37483,1.44143 0.57051,5.32612 0.82958,6.75101 1.16307,6.38032 8.22275,9.77581 12.87501,9.77581 0.04,0 0.0827,-0.007 0.12541,-0.007 v -36.74253 c -0.0441,0 -0.0854,-0.003 -0.12541,-0.003"
       id="path1271"
       inkscape:connector-curvature="0" />
    <path
       style="fill:#ebd9b3;fill-opacity:1;fill-rule:nonzero;stroke:none;stroke-width:0.352778"
       d="m 126.74153,182.11906 c -2.37162,-3.05924 -6.27147,-4.6178 -11.57415,-4.64261 v 36.74402 c 5.3068,-0.0579 11.65405,-3.77859 12.7441,-9.7703 0.26045,-1.42489 0.45473,-5.30958 0.83234,-6.75101 1.22506,-4.70737 1.34356,-11.26684 -2.00229,-15.5801"
       id="path1273"
       inkscape:connector-curvature="0" />
    <path
       style="fill:#c733c5;fill-opacity:1;fill-rule:nonzero;stroke:none;stroke-width:0.352778"
       d="M 131.38687,179.26928 H 99.906978 c 0,0 -0.05926,-0.7028 0,-0.92604 1.129992,-4.36425 5.330252,-9.60217 15.307252,-9.60217 9.66968,0 14.79462,5.11803 16.17264,9.60217 0.0662,0.22324 0,0.92604 0,0.92604"
       id="path1275"
       inkscape:connector-curvature="0" />
    <path
       style="fill:#700c68;fill-opacity:1;fill-rule:nonzero;stroke:none;stroke-width:0.352778"
       d="M 131.20773,184.45897 H 99.727834 v -5.62791 c 0,0 5.337146,-3.90122 15.311386,-3.90122 9.66971,0 16.16851,3.90122 16.16851,3.90122 z m 0,0"
       id="path1277"
       inkscape:connector-curvature="0" />
    <path
       style="fill:#c733c5;fill-opacity:1;fill-rule:nonzero;stroke:none;stroke-width:0.352778"
       d="m 114.60925,186.33724 c -8.76017,0.28112 -23.448681,4.42212 -23.448681,4.42212 0,0 9.084031,-11.23377 23.173091,-11.2503 12.50294,-0.0165 24.78677,10.12169 24.78677,10.12169 0,0 -18.75095,-3.47817 -24.51118,-3.29351"
       id="path1279"
       inkscape:connector-curvature="0" />
    <path
       style="fill:#301e11;fill-opacity:1;fill-rule:nonzero;stroke:none;stroke-width:0.352778"
       d="m 107.03419,191.85628 c 1.10105,0 1.99678,1.01561 1.99678,2.26688 0,1.25263 -0.89573,2.26687 -1.99678,2.26687 -1.10105,0 -1.9954,-1.01424 -1.9954,-2.26687 0,-1.25127 0.89435,-2.26688 1.9954,-2.26688"
       id="path1281"
       inkscape:connector-curvature="0" />
    <path
       style="fill:#301e11;fill-opacity:1;fill-rule:nonzero;stroke:none;stroke-width:0.352778"
       d="m 123.2413,191.85628 c 1.10381,0 1.99679,1.01561 1.99679,2.26688 0,1.25263 -0.89298,2.26687 -1.99679,2.26687 -1.10105,0 -1.994,-1.01424 -1.994,-2.26687 0,-1.25127 0.89295,-2.26688 1.994,-2.26688"
       id="path1283"
       inkscape:connector-curvature="0" />
    <path
       style="fill:#ffffff;fill-opacity:1;fill-rule:nonzero;stroke:none;stroke-width:0.352778"
       d="m 111.01671,206.18512 c 0.71109,1.57097 2.28617,2.66375 4.12308,2.66375 1.8342,0 3.41066,-1.09278 4.11897,-2.66375 z m 0,0"
       id="path1285"
       inkscape:connector-curvature="0" />
    <path
       style="fill:#1c2e23;fill-opacity:1;fill-rule:nonzero;stroke:none;stroke-width:0.352778"
       d="m 113.37178,194.67713 c -0.20532,2.53421 -1.76114,4.01836 -4.27742,4.13825 -0.25494,0.0138 -0.50298,0.0165 -0.73863,0.005 -3.96462,-0.007 -4.64261,-3.4768 -4.72254,-5.67063 -0.0496,-1.25539 0.8475,-2.33164 2.11529,-2.45566 0.72623,-0.0717 1.54478,-0.0717 2.4915,-0.0717 2.96278,0 4.2526,0.70693 4.59438,1.27468 0.20256,0.33624 0.65179,1.40285 0.53742,2.77951 m 0.45477,-3.47404 c -2.54526,-3.10059 -12.13777,-0.90124 -12.14879,-0.90399 0.17638,0.70142 0.32797,1.39457 0.46715,2.07808 0.71245,0.073 0.75517,1.67156 0.82545,2.2586 0.34588,2.82774 2.23793,4.91133 6.22046,4.81349 3.99219,-0.20808 4.92648,-3.09783 5.08908,-4.91684 0.18055,-1.98437 -0.45611,-3.32245 -0.45335,-3.32934"
       id="path1287"
       inkscape:connector-curvature="0" />
    <path
       style="fill:#1c2e23;fill-opacity:1;fill-rule:nonzero;stroke:none;stroke-width:0.352778"
       d="m 118.08055,191.89762 c 0.34449,-0.56775 1.63435,-1.27468 4.59437,-1.27468 0.94671,0 1.76664,0 2.49424,0.0717 1.26644,0.12402 2.16355,1.20027 2.11117,2.45566 -0.0785,2.19384 -0.75516,5.66374 -4.71978,5.67063 -0.23703,0.011 -0.48507,0.008 -0.73861,-0.005 -2.51492,-0.12127 -4.07212,-1.60404 -4.27744,-4.13825 -0.1144,-1.37529 0.33624,-2.44326 0.53605,-2.77951 m -1.44558,2.63481 c 0.16401,1.81901 1.09831,4.70738 5.09048,4.91684 3.98254,0.0978 5.8746,-1.98575 6.22046,-4.81348 0.0703,-0.58705 0.11299,-2.18557 0.82546,-2.25861 0.1378,-0.6835 0.29076,-1.37666 0.46715,-2.07808 -0.01,0.003 -9.60494,-2.19798 -12.14878,0.90399 0,0.007 -0.63391,1.34497 -0.45477,3.32934"
       id="path1289"
       inkscape:connector-curvature="0" />
    <path
       style="fill:#1c2e23;fill-opacity:1;fill-rule:nonzero;stroke:none;stroke-width:0.352778"
       d="m 117.17931,193.63946 c 0,0 -0.65045,-0.51263 -1.78869,-0.51263 -1.06662,0 -1.65365,0.51263 -1.65365,0.51263 -0.17226,-0.48093 -0.34727,-0.96049 -0.52091,-1.44005 1.49518,0.001 2.98898,0.001 4.48554,0 -0.17501,0.48094 -0.35003,0.95912 -0.52229,1.44005"
       id="path1291"
       inkscape:connector-curvature="0" />
  </g>
</svg>
