<?xml version="1.0" encoding="UTF-8" standalone="no"?>
<svg
   xmlns:dc="http://purl.org/dc/elements/1.1/"
   xmlns:cc="http://creativecommons.org/ns#"
   xmlns:rdf="http://www.w3.org/1999/02/22-rdf-syntax-ns#"
   xmlns:svg="http://www.w3.org/2000/svg"
   xmlns="http://www.w3.org/2000/svg"
   xmlns:sodipodi="http://sodipodi.sourceforge.net/DTD/sodipodi-0.dtd"
   xmlns:inkscape="http://www.inkscape.org/namespaces/inkscape"
   inkscape:version="1.0 (4035a4fb49, 2020-05-01)"
   sodipodi:docname="drawing1.svg"
   id="svg8"
   version="1.1"
   viewBox="0 0 84.297356 80.171501"
   height="80.171501mm"
   width="84.297356mm">
  <defs
     id="defs2">
    <clipPath
       id="clip4">
      <rect
         id="rect845"
         height="14"
         width="23"
         y="0"
         x="0" />
    </clipPath>
    <clipPath
       id="clip5">
      <path
         id="path842"
         d="m 0.523438,0.136719 h 22.230468 v 13.09375 H 0.523438 Z m 0,0"
         inkscape:connector-curvature="0" />
    </clipPath>
  </defs>
  <sodipodi:namedview
     inkscape:document-rotation="0"
     inkscape:window-maximized="1"
     inkscape:window-y="-8"
     inkscape:window-x="-8"
     inkscape:window-height="705"
     inkscape:window-width="1366"
     showgrid="false"
     inkscape:current-layer="layer1"
     inkscape:document-units="mm"
     inkscape:cy="250.89456"
     inkscape:cx="314.89524"
     inkscape:zoom="1.4"
     inkscape:pageshadow="2"
     inkscape:pageopacity="0.0"
     borderopacity="1.0"
     bordercolor="#666666"
     pagecolor="#ffffff"
     id="base" />
  <metadata
     id="metadata5">
    <rdf:RDF>
      <cc:Work
         rdf:about="">
        <dc:format>image/svg+xml</dc:format>
        <dc:type
           rdf:resource="http://purl.org/dc/dcmitype/StillImage" />
        <dc:title />
      </cc:Work>
    </rdf:RDF>
  </metadata>
  <g
     transform="translate(28.541533,-179.8071)"
     id="layer1"
     inkscape:groupmode="layer"
     inkscape:label="Layer 1">
    <path
       style="fill:#260507;fill-opacity:1;fill-rule:nonzero;stroke:none;stroke-width:0.352778"
       d="m 29.030147,221.60852 c 0,0 1.026636,9.21218 -0.792374,13.30358 -1.819011,4.09001 -4.78317,8.87732 -7.758356,10.32426 -2.979317,1.45107 -11.259947,1.74046 -16.30357,4.21266 -5.044995,2.4722 -8.127667,3.56223 -7.916826,5.70232 0.214973,2.14699 1.878265,3.02893 1.878265,3.02893 0,0 -6.118491,-2.05465 -6.118491,-6.33897 0,-4.28708 2.316483,-6.16259 3.720705,-8.24205 4.277431,-6.34173 1.028015,-14.95723 1.028015,-14.95723 0,0 4.497918,-16.17127 4.962317,-16.14372 0.460262,0.0262 15.180469,-5.39225 17.003612,-4.20852 1.819011,1.18649 10.296703,13.31874 10.296703,13.31874"
       id="path1135"
       inkscape:connector-curvature="0" />
    <path
       style="fill:#dcc5a1;fill-opacity:1;fill-rule:nonzero;stroke:none;stroke-width:0.352778"
       d="M 13.682935,233.98881 V 259.929 H -0.468138 c -0.228756,-0.0978 -0.348644,-0.14883 -0.348644,-0.14883 0,-2.31372 0.237022,-4.27192 0.6463,-5.9228 1.992643,-8.3082 8.02018,-9.02891 8.02018,-9.02891 h 0.0689 c 0.05925,-0.0124 0.128159,-0.0207 0.186034,-0.0427 0.7152,-0.19706 1.20165,-1.24575 1.532379,-2.74919 0.05512,-0.25631 0.10473,-0.52228 0.146071,-0.80891 0.07855,-0.47404 0.14745,-0.98116 0.197062,-1.50481 0.03305,-0.31695 0.06201,-0.6339 0.09233,-0.9605 0.125402,-1.59301 0.169497,-3.32107 0.169497,-4.96507 0,0 1.903072,0.19155 3.440965,0.19155"
       id="path1137"
       inkscape:connector-curvature="0" />
    <path
       style="fill:#ebd9b3;fill-opacity:1;fill-rule:nonzero;stroke:none;stroke-width:0.352778"
       d="m 28.233637,259.78017 c 0,0 -0.128156,0.051 -0.336238,0.14883 H 13.682935 v -25.94019 h 0.03168 c 1.535137,0 3.453366,-0.19155 3.453366,-0.19155 0,1.63436 0.03996,3.34588 0.168121,4.92649 0.02755,0.31695 0.05787,0.63528 0.08819,0.93982 0.05926,0.54571 0.118512,1.05834 0.199813,1.54478 v 0.007 c 0.02893,0.21911 0.06891,0.41893 0.110244,0.61599 0.2949,1.45245 0.733118,2.51905 1.368394,2.87734 0.04961,0.0207 0.09784,0.0496 0.147449,0.0593 0.09922,0.04 0.210841,0.0606 0.318326,0.0606 0,0 0.09922,0.008 0.278365,0.0482 0.921909,0.19981 3.93981,1.10794 6.085417,4.76663 1.318784,2.21313 2.301322,5.4529 2.301322,10.13685"
       id="path1139"
       inkscape:connector-curvature="0" />
    <g
       id="use1141"
       clip-path="url(#clip4)"
       transform="matrix(0.09333912,0,0,0.09333912,9.592921,238.67828)">
      <g
         clip-path="url(#clip5)"
         id="g884"
         style="clip-rule:nonzero">
        <path
           style="fill:#ba9e7f;fill-opacity:1;fill-rule:nonzero;stroke:none"
           d="m 22.753906,7.175781 v 0.019532 c -0.992187,1.574218 -4.390625,6.035156 -11.105468,6.035156 h -0.06641 C 5.195313,13.199219 1.480469,8.578125 0.523438,7.226563 0.746094,5.882813 0.949219,4.449219 1.089844,2.964844 1.179688,2.070313 1.253906,1.175781 1.347656,0.25 c 3.109375,0.777344 6.5,1.257813 10.121094,1.316406 h 0.113281 C 15.292969,1.507813 18.730469,1 21.933594,0.136719 c 0.08594,0.890625 0.171875,1.789062 0.261719,2.664062 0.152343,1.542969 0.339843,3 0.558593,4.375"
           id="path882"
           inkscape:connector-curvature="0" />
      </g>
    </g>
    <path
       style="fill:#4c1717;fill-opacity:1;fill-rule:nonzero;stroke:none;stroke-width:0.352778"
       d="m 29.384299,253.24552 c 0,0 -4.109309,-8.08082 -9.835054,-8.41706 -0.147453,-0.0124 4.256757,6.41752 -1.610929,7.91132 -1.44694,0.3638 -2.884234,0.49471 -4.223689,0.4451 h -0.03168 c -1.338075,0.0496 -2.780879,-0.0813 -4.227822,-0.4451 -5.866307,-1.4938 -1.459341,-7.92372 -1.605415,-7.91132 -5.728504,0.33624 -9.836436,8.41706 -9.836436,8.41706 l 1.816256,0.61185 2.559016,0.85989 c 0,0 -0.894345,2.32337 -0.942578,5.21036 h 24.504277 c -0.05099,-2.88699 -0.939827,-5.21036 -0.939827,-5.21036 l 2.55764,-0.85989 z m 0,0"
       id="path1143"
       inkscape:connector-curvature="0" />
    <path
       style="fill:#ccab8a;fill-opacity:1;fill-rule:nonzero;stroke:none;stroke-width:0.352778"
       d="m 13.669155,206.1111 c -14.771192,-0.0289 -14.858007,11.80014 -14.199306,19.51302 -1.016995,-1.81074 -4.007336,-1.13826 -3.764802,1.75975 0.235646,2.77537 4.470358,4.03214 4.408348,3.72622 1.208537,6.28523 8.170384,9.7758 13.55576,10.2719 0.03721,0.003 0.07855,0.001 0.110242,0.003 v -35.27231 c -0.03721,0 -0.07304,-0.001 -0.110242,-0.001"
       id="path1145"
       inkscape:connector-curvature="0" />
    <path
       style="fill:#ba9e7f;fill-opacity:1;fill-rule:nonzero;stroke:none;stroke-width:0.352778"
       d="m -3.553565,226.15742 c 0.740004,-1.11759 1.883777,-0.63665 2.167654,-0.39136 0.294896,0.27285 0.531921,0.62563 0.348644,1.28984 -0.104733,0.36932 -0.520901,0.40239 -0.418926,0.96876 0.11162,0.63252 0.424434,0.678 0.602203,0.82269 0.175011,0.14332 0.395496,0.25218 0.507118,0.52366 0.101974,0.26734 0.125402,0.55259 0.06477,0.7965 -0.115755,0.45889 -0.819933,0.0923 -1.293979,-0.10611 -0.312817,-0.13642 -1.298112,-0.92604 -1.551671,-1.19338 -0.628385,-0.6711 -0.920531,-1.96508 -0.425813,-2.7106"
       id="path1147"
       inkscape:connector-curvature="0" />
    <path
       style="fill:#d9bd9e;fill-opacity:1;fill-rule:nonzero;stroke:none;stroke-width:0.352778"
       d="m 13.742191,206.1111 c 14.77119,-0.0289 14.856629,11.80014 14.197925,19.51302 1.016992,-1.81074 4.008713,-1.13826 3.760669,1.75975 -0.231511,2.77537 -4.46209,4.03214 -4.406969,3.72622 -1.208537,6.28523 -8.171765,9.7758 -13.551625,10.2719 -0.03583,0.003 -0.07717,0.001 -0.114379,0.003 v -35.27231 c 0.03996,0 0.07855,-0.001 0.114379,-0.001"
       id="path1149"
       inkscape:connector-curvature="0" />
    <path
       style="fill:#ba9e7f;fill-opacity:1;fill-rule:nonzero;stroke:none;stroke-width:0.352778"
       d="m 31.071018,226.15742 c -0.742762,-1.11759 -1.886532,-0.63665 -2.169033,-0.39136 -0.296275,0.27285 -0.536056,0.62563 -0.348641,1.28984 0.103351,0.36932 0.518141,0.40239 0.416168,0.96876 -0.114379,0.63252 -0.42168,0.678 -0.598069,0.82269 -0.176387,0.14332 -0.39963,0.25218 -0.505741,0.52366 -0.110244,0.26734 -0.126778,0.55259 -0.0689,0.7965 0.11438,0.45889 0.821315,0.0923 1.29398,-0.10611 0.31006,-0.13642 1.300869,-0.92604 1.550291,-1.19338 0.631143,-0.6711 0.921909,-1.96508 0.429948,-2.7106"
       id="path1151"
       inkscape:connector-curvature="0" />
    <path
       style="fill:#dcc5a1;fill-opacity:1;fill-rule:nonzero;stroke:none;stroke-width:0.352778"
       d="m 13.590606,209.4556 c -4.933376,0 -8.541084,1.35874 -10.729405,4.03352 -3.050976,3.73448 -2.936599,9.44507 -1.807985,13.54197 0.343128,1.25265 0.516763,4.62746 0.75792,5.8677 1.063845,5.53971 7.525467,8.49146 11.77947,8.49146 0.03721,0 0.07855,-0.005 0.115755,-0.005 v -31.92551 c -0.03859,0 -0.07441,-0.004 -0.115755,-0.004"
       id="path1153"
       inkscape:connector-curvature="0" />
    <path
       style="fill:#ebd9b3;fill-opacity:1;fill-rule:nonzero;stroke:none;stroke-width:0.352778"
       d="m 24.295206,213.49601 c -2.166274,-2.661 -5.735394,-4.01423 -10.588845,-4.03628 v 31.92501 c 4.857586,-0.051 10.667394,-3.28248 11.662336,-8.48595 0.235646,-1.24024 0.413411,-4.61505 0.757923,-5.8677 1.121719,-4.08863 1.233342,-9.78958 -1.831414,-13.53508"
       id="path1155"
       inkscape:connector-curvature="0" />
    <path
       style="fill:#b36e6e;fill-opacity:1;fill-rule:nonzero;stroke:none;stroke-width:0.352778"
       d="m 16.189587,236.37971 c 0,0 -1.116211,1.19062 -2.48874,1.19062 -1.375283,0 -2.428102,-1.16168 -2.428102,-1.16168 0,0 1.052819,-0.1819 2.428102,-0.1819 1.372529,0 2.48874,0.15296 2.48874,0.15296"
       id="path1157"
       inkscape:connector-curvature="0" />
    <path
       style="fill:#bf7873;fill-opacity:1;fill-rule:nonzero;stroke:none;stroke-width:0.352778"
       d="m 14.402268,235.83263 c -0.38585,0 -0.695907,0.23977 -0.70004,0.53743 -0.0096,-0.29766 -0.319706,-0.53743 -0.705556,-0.53743 -0.389985,0 -1.788697,0.54708 -1.788697,0.54708 0,0 1.36426,0.14607 1.752864,0.14607 0.385853,0 0.73174,0.15296 0.741389,-0.13643 0.0041,0.29077 0.281117,0.17777 0.669724,0.17777 0.387228,0 1.819011,-0.18741 1.819011,-0.18741 0,0 -1.39871,-0.54708 -1.788695,-0.54708"
       id="path1159"
       inkscape:connector-curvature="0" />
    <path
       style="fill:#260507;fill-opacity:1;fill-rule:nonzero;stroke:none;stroke-width:0.352778"
       d="m -2.008786,215.62094 c -0.03168,-2.87872 1.223698,-3.81303 2.021581,-5.21725 0.797886,-1.40422 2.571419,-3.0744 3.369302,-3.76618 0.792372,-0.69178 1.650892,-1.56683 1.650892,-1.56683 0,0 1.344964,-1.01837 3.183268,-1.42213 1.838301,-0.39826 2.386761,0.0689 4.099663,0.72484 0.214971,0.0868 0.405143,0.1695 0.574643,0.25219 1.056955,-0.97703 1.044552,-1.06247 2.221397,-1.52274 2.202106,-0.86403 3.48506,0.41755 3.48506,0.41755 l -1.284335,0.19017 c 0,0 2.080839,-0.27837 3.793741,0.85989 1.712902,1.13826 2.30959,2.06706 2.30959,2.06706 0,0 -2.468065,-0.55535 -0.875053,0 1.590257,0.55673 2.997234,1.42627 4.27881,2.56315 1.288462,1.13551 2.637562,2.74092 3.250789,4.41248 0.609095,1.67294 -0.308681,-0.87092 -1.532379,-1.80523 -1.220938,-0.93569 -2.20486,-1.27055 -2.20486,-1.27055 0,0 1.674318,1.64538 3.124012,5.01468 0.881946,2.05741 1.795587,4.7749 1.506196,9.20943 -0.461642,7.07898 -3.839212,9.66142 -3.839212,9.66142 0,0 0.781349,-0.82131 1.095539,-1.91685 0.315571,-1.10243 0.165364,-2.47771 0.135048,-2.30959 -0.06477,0.33486 -3.394107,5.21588 -3.394107,5.21588 0,0 2.66926,-3.80201 1.671559,-8.71885 -0.359667,-1.77492 -1.346343,-2.84152 -1.766645,-3.38309 -0.132291,-0.17225 -0.239778,-0.33899 -0.352776,-0.50436 -1.616438,2.04501 -4.666036,2.91042 -4.666036,2.91042 0,0 1.969214,-2.10151 2.213126,-3.64078 0.245292,-1.53927 0.137805,-4.72667 -1.576475,-6.53603 -0.234267,-0.24392 -0.50574,-0.4961 -0.796507,-0.7469 0.792372,1.76802 0.737251,3.4134 -0.01929,5.10563 -0.376203,0.83785 -1.058333,1.49379 -1.710142,1.96646 -1.736331,1.48002 -4.375275,2.42259 -7.336679,2.42259 -1.426268,0 -2.776744,-0.2191 -3.992174,-0.61322 v 10e-4 c 0,0 -0.0055,-0.003 -0.0083,-0.004 -0.203951,-0.0648 -0.402389,-0.13781 -0.599448,-0.21498 -2.104263,-0.66835 -8.739517,-2.08359 -5.576916,8.14145 l 0.02617,0.15158 0.0055,-10e-4 c 0.456131,2.28066 1.758376,5.10977 1.758376,5.10977 0,0 -1.653646,-2.91593 -2.999989,-5.32336 -1.349099,-2.40743 -1.514463,-4.6495 -1.390441,-7.70737 0.02617,-0.62563 0.07442,-1.17133 0.14056,-1.68672 -0.148829,0.20257 -0.30179,0.38309 -0.460265,0.51952 -1.10243,0.93155 -1.978861,0.9164 -1.978861,0.9164 0,0 2.520433,-1.44281 2.446016,-7.95542"
       id="path1161"
       inkscape:connector-curvature="0" />
    <path
       style="fill:#301e11;fill-opacity:1;fill-rule:nonzero;stroke:none;stroke-width:0.352778"
       d="m 5.625547,225.44911 c 1.030769,0 1.867239,0.95084 1.867239,2.12355 0,1.17272 -0.83647,2.12356 -1.867239,2.12356 -1.033531,0 -1.871377,-0.95084 -1.871377,-2.12356 0,-1.17271 0.837846,-2.12355 1.871377,-2.12355"
       id="path1163"
       inkscape:connector-curvature="0" />
    <path
       style="fill:#301e11;fill-opacity:1;fill-rule:nonzero;stroke:none;stroke-width:0.352778"
       d="m 20.804634,225.44911 c 1.029396,0 1.867244,0.95084 1.867244,2.12355 0,1.17272 -0.837848,2.12356 -1.867244,2.12356 -1.033528,0 -1.869995,-0.95084 -1.869995,-2.12356 0,-1.17271 0.836467,-2.12355 1.869995,-2.12355"
       id="path1165"
       inkscape:connector-curvature="0" />
  </g>
</svg>
