<?xml version="1.0" encoding="UTF-8" standalone="no"?>
<svg
   xmlns:dc="http://purl.org/dc/elements/1.1/"
   xmlns:cc="http://creativecommons.org/ns#"
   xmlns:rdf="http://www.w3.org/1999/02/22-rdf-syntax-ns#"
   xmlns:svg="http://www.w3.org/2000/svg"
   xmlns="http://www.w3.org/2000/svg"
   xmlns:sodipodi="http://sodipodi.sourceforge.net/DTD/sodipodi-0.dtd"
   xmlns:inkscape="http://www.inkscape.org/namespaces/inkscape"
   inkscape:version="1.0 (4035a4fb49, 2020-05-01)"
   sodipodi:docname="drawing9.svg"
   id="svg8"
   version="1.1"
   viewBox="0 0 84.297356 80.171501"
   height="80.171501mm"
   width="84.297356mm">
  <defs
     id="defs2">
    <clipPath
       id="clip3">
      <path
         id="path834"
         d="m 724.39453,213.71484 h 25.26563 v 14.875 h -25.26563 z m 0,0"
         inkscape:connector-curvature="0" />
    </clipPath>
  </defs>
  <sodipodi:namedview
     inkscape:document-rotation="0"
     inkscape:window-maximized="1"
     inkscape:window-y="-8"
     inkscape:window-x="-8"
     inkscape:window-height="705"
     inkscape:window-width="1366"
     showgrid="false"
     inkscape:current-layer="layer1"
     inkscape:document-units="mm"
     inkscape:cy="238.03565"
     inkscape:cx="-137.70466"
     inkscape:zoom="0.35"
     inkscape:pageshadow="2"
     inkscape:pageopacity="0.0"
     borderopacity="1.0"
     bordercolor="#666666"
     pagecolor="#ffffff"
     id="base" />
  <metadata
     id="metadata5">
    <rdf:RDF>
      <cc:Work
         rdf:about="">
        <dc:format>image/svg+xml</dc:format>
        <dc:type
           rdf:resource="http://purl.org/dc/dcmitype/StillImage" />
        <dc:title />
      </cc:Work>
    </rdf:RDF>
  </metadata>
  <g
     transform="translate(-112.82156,-276.56901)"
     id="layer1"
     inkscape:groupmode="layer"
     inkscape:label="Layer 1">
    <path
       style="fill:#dcc5a1;fill-opacity:1;fill-rule:nonzero;stroke:none;stroke-width:0.352778"
       d="m 155.49664,327.13198 v 29.48313 h -16.0817 c -0.25631,-0.11162 -0.39687,-0.16812 -0.39687,-0.16812 0,-15.81574 9.84746,-16.99534 9.84746,-16.99534 0.98116,0 1.61368,-1.2554 2.02709,-3.17087 0.0717,-0.28939 0.12678,-0.59669 0.17225,-0.92466 0.0909,-0.53468 0.16812,-1.10657 0.226,-1.70464 0.0317,-0.36104 0.0675,-0.71657 0.10335,-1.08727 0.14332,-1.81488 0.18741,-3.78133 0.18741,-5.64444 0,0 2.16628,0.21221 3.91501,0.21221"
       id="path1093"
       inkscape:connector-curvature="0" />
    <path
       style="fill:#ebd9b3;fill-opacity:1;fill-rule:nonzero;stroke:none;stroke-width:0.352778"
       d="m 172.03035,356.44561 c 0,0 -0.14332,0.0579 -0.38034,0.1695 h -16.15475 v -29.48313 h 0.0345 c 1.75011,0 3.92466,-0.21359 3.92466,-0.21359 0,1.85208 0.0469,3.79787 0.19292,5.59759 0.0344,0.35967 0.0675,0.72071 0.1006,1.07211 0.0717,0.61598 0.1378,1.1989 0.23013,1.75011 v 0.007 c 0.0303,0.25356 0.0744,0.4768 0.11851,0.70142 0.42168,2.03398 1.07212,3.40514 2.09048,3.40514 0,0 9.84333,1.17959 9.84333,16.99396"
       id="path1095"
       inkscape:connector-curvature="0" />
    <g
       clip-path="url(#clip3)"
       id="g1099"
       style="clip-rule:nonzero"
       transform="matrix(0.35277777,0,0,0.35277777,-104.48541,257.12351)">
      <path
         style="fill:#ba9e7f;fill-opacity:1;fill-rule:nonzero;stroke:none"
         d="m 749.66016,221.70703 v 0.0352 c -1.12891,1.77734 -4.99219,6.84765 -12.64063,6.84765 h -0.0664 c -7.2539,-0.0312 -11.47265,-5.28125 -12.55468,-6.8164 0.2539,-1.52735 0.47656,-3.14844 0.63672,-4.84375 0.0898,-1.01172 0.1875,-2.03907 0.29296,-3.08203 3.54297,0.88281 7.38672,1.41796 11.49219,1.48437 h 0.13281 c 4.22657,-0.0664 8.12891,-0.63281 11.76954,-1.62109 0.0976,1.01953 0.1914,2.04297 0.28515,3.03906 0.20313,1.74609 0.39063,3.39453 0.65235,4.95703"
         id="path1097"
         inkscape:connector-curvature="0" />
    </g>
    <path
       style="fill:#9e8c1c;fill-opacity:1;fill-rule:nonzero;stroke:none;stroke-width:0.352778"
       d="m 152.79982,356.57791 c -0.10886,-0.22187 -0.22186,-0.46992 -0.339,-0.70419 -0.008,-0.0289 -0.0289,-0.051 -0.0427,-0.0799 -0.21911,-0.48369 -0.44924,-0.9536 -0.66697,-1.42213 -0.19017,-0.38861 -0.36518,-0.77446 -0.5457,-1.17685 -0.67937,-1.47174 -1.26091,-2.80843 -1.60541,-3.75515 -0.41893,-1.13275 -0.75793,-2.36885 -0.98806,-3.60632 -0.0358,-0.15021 -0.0648,-0.30179 -0.0854,-0.44236 -0.011,-0.0358 -0.011,-0.0565 -0.0207,-0.0937 -0.0289,-0.14745 -0.0482,-0.28663 -0.0662,-0.43408 -0.0179,-0.0606 -0.0262,-0.12953 -0.0289,-0.19843 -0.26458,-1.83417 -0.29489,-3.60082 0.003,-4.98713 0.0152,-0.0551 0.0289,-0.0937 0.0441,-0.14469 -1.85897,0.42995 -9.43128,3.0372 -9.43128,16.91404 0,0 0.13504,0.0593 0.3886,0.17088 h 13.40686 z m 0,0"
       id="path1101"
       inkscape:connector-curvature="0" />
    <path
       style="fill:#9e8c1c;fill-opacity:1;fill-rule:nonzero;stroke:none;stroke-width:0.352778"
       d="m 158.25547,356.57791 c 0.11576,-0.22187 0.22325,-0.46992 0.33762,-0.70419 0.011,-0.0289 0.0317,-0.051 0.0441,-0.0799 0.22049,-0.48369 0.44924,-0.9536 0.67662,-1.42213 0.1819,-0.38861 0.35829,-0.77446 0.53744,-1.17685 0.67661,-1.47174 1.26228,-2.80843 1.61092,-3.75515 0.41479,-1.13275 0.75379,-2.36885 0.98392,-3.60632 0.0345,-0.15021 0.0606,-0.30179 0.0896,-0.44236 0.011,-0.0358 0.011,-0.0565 0.0152,-0.0937 0.0262,-0.14745 0.0482,-0.28663 0.0689,-0.43408 0.0124,-0.0606 0.0207,-0.12953 0.0289,-0.19843 0.2577,-1.83417 0.28939,-3.60082 -0.008,-4.98713 -0.01,-0.0551 -0.0303,-0.0937 -0.0413,-0.14469 1.8576,0.42995 9.4313,3.0372 9.4313,16.91404 0,0 -0.1323,0.0593 -0.38585,0.17088 h -13.41002 z m 0,0"
       id="path1103"
       inkscape:connector-curvature="0" />
    <path
       style="fill:#756311;fill-opacity:1;fill-rule:nonzero;stroke:none;stroke-width:0.352778"
       d="m 153.62527,356.62062 h -2.7988 c -0.12815,-0.14469 -0.23564,-0.28387 -0.34451,-0.4079 -5.73126,-6.78821 -6.62009,-11.79049 -6.62009,-11.79049 l 2.36471,-1.17822 -1.45797,-1.07074 c 0,0 0.56638,-0.7152 1.58613,-1.77905 0.28663,-0.29076 0.71382,-0.63114 1.16306,-0.9536 0.81167,-0.56499 1.68258,-1.05971 1.88102,-1.10105 -0.0703,0.0909 -0.67661,0.94671 -0.51676,5.04775 0.0193,0.27423 0.0275,0.54019 0.0675,0.82407 0.007,0.0689 0.0207,0.1254 0.0289,0.18328 0.0207,0.13504 0.0386,0.26321 0.0675,0.39825 0,0.0317 0,0.0606 0.011,0.0909 0.0179,0.13367 0.0469,0.27147 0.0772,0.40652 0.42719,2.05741 1.34772,4.48276 2.35644,6.79511 0.16812,0.37482 0.33349,0.72622 0.49748,1.08589 0.19292,0.43546 0.41479,0.8847 0.61047,1.31327 0.12678,0.24529 0.23564,0.48645 0.34864,0.72072 0.11576,0.24666 0.25632,0.52779 0.38861,0.80064 0.0951,0.2067 0.19292,0.40927 0.28939,0.6146"
       id="path1105"
       inkscape:connector-curvature="0" />
    <path
       style="fill:#756311;fill-opacity:1;fill-rule:nonzero;stroke:none;stroke-width:0.352778"
       d="m 166.99775,344.42223 c 0,0 -0.87781,5.0009 -6.62561,11.79049 -0.10335,0.12265 -0.226,0.26321 -0.35415,0.4079 h -2.76848 c 0.73449,-1.49379 1.60541,-3.27422 2.384,-5.10838 0.0248,-0.0606 0.0455,-0.11576 0.0648,-0.16537 0,-0.01 0.01,-0.01 0.01,-0.0207 0.93983,-2.21588 1.74322,-4.47449 2.08773,-6.39272 0.0152,-0.0413 0.0152,-0.0799 0.0262,-0.12953 0.0317,-0.14608 0.0455,-0.2825 0.0717,-0.42582 0.004,-0.051 0.004,-0.10886 0.0152,-0.16123 0.0386,-0.27974 0.0469,-0.55397 0.0703,-0.8282 0.0744,-2.23793 -0.0579,-3.50848 -0.2067,-4.22369 -0.0289,-0.1254 -0.0579,-0.23288 -0.0882,-0.32797 0,-0.0179 -0.008,-0.0262 -0.008,-0.0482 -0.0992,-0.30454 -0.18053,-0.40927 -0.20534,-0.44786 0.18742,0.0386 1.04318,0.5333 1.8576,1.09968 h 0.008 c 0.45475,0.32246 0.88332,0.66283 1.17547,0.95911 1.00872,1.05696 1.57372,1.77491 1.57372,1.77491 l -1.45935,1.06936 z m 0,0"
       id="path1107"
       inkscape:connector-curvature="0" />
    <path
       style="fill:#4c4c47;fill-opacity:1;fill-rule:nonzero;stroke:none;stroke-width:0.352778"
       d="m 163.14476,343.41213 c 0.0689,1.55856 -2.83738,8.66372 -4.97059,13.20849 h -5.29442 c -2.13183,-4.53374 -5.03811,-11.64993 -4.97885,-13.23192 0.0579,-1.3739 0.30317,-2.51354 0.83096,-3.60495 0.36104,-0.75241 0.86127,-1.46485 1.52548,-2.22277 0.0303,-0.0234 0.0524,-0.0496 0.0703,-0.0703 h 0.15434 l 5.04225,3.53605 5.03948,-3.53605 h 0.15985 c 0.022,0.0427 0.0606,0.0813 0.10473,0.12127 0.45751,0.53192 0.83647,1.03904 1.15342,1.5558 0.10473,0.19568 0.21222,0.39136 0.31419,0.58705 0.54295,1.1038 0.78686,2.25171 0.84888,3.65731"
       id="path1109"
       inkscape:connector-curvature="0" />
    <path
       style="fill:#fdfdfd;fill-opacity:1;fill-rule:nonzero;stroke:none;stroke-width:0.352778"
       d="m 161.68817,338.20314 c -0.24254,-0.627 -0.83096,-1.20854 -1.04731,-1.70876 -0.35553,-0.82131 -0.68213,-1.54892 -0.68213,-1.54892 -0.0785,0.7841 -0.84198,3.00274 -2.42535,4.28294 -1.58474,1.27882 -2.40605,1.87689 -1.80523,2.00643 0.60359,0.12953 3.14469,3.64904 3.95359,4.59438 0.81718,0.94395 0.68214,1.82314 0.89297,0.54432 0.2136,-1.27468 0.9288,-2.57417 0.99908,-4.2416 0.073,-1.67431 0.76619,-2.25723 0.11438,-3.92879"
       id="path1111"
       inkscape:connector-curvature="0" />
    <path
       style="fill:#fdfdfd;fill-opacity:1;fill-rule:nonzero;stroke:none;stroke-width:0.352778"
       d="m 153.53294,339.2284 c -1.58337,-1.2802 -2.34818,-3.49746 -2.42672,-4.28432 0,0 -0.3266,0.72899 -0.68627,1.55168 -0.21084,0.49746 -0.80615,1.079 -1.04455,1.70738 -0.65319,1.67156 0.0441,2.25585 0.113,3.92879 0.073,1.66605 0.78824,2.96692 1.00045,4.2416 0.21222,1.27882 0.0772,0.39963 0.88746,-0.54432 0.8158,-0.94396 3.3569,-4.46347 3.95772,-4.59438 0.60221,-0.12954 -0.21772,-0.72623 -1.80109,-2.00643"
       id="path1113"
       inkscape:connector-curvature="0" />
    <path
       style="fill:#d9bd9e;fill-opacity:1;fill-rule:nonzero;stroke:none;stroke-width:0.352778"
       d="m 155.40431,293.3232 c 17.03531,0 17.13177,14.21446 16.37385,23.51484 1.16996,-2.20348 4.62332,-1.52411 4.34496,1.95268 -0.27699,3.34174 -5.158,5.07669 -5.09599,4.68395 -1.39319,7.65776 -9.40924,12.07575 -15.62282,12.07575 -0.0482,0 -0.0923,-0.003 -0.13091,-0.003 v -42.21891 c 0.0441,0 0.0827,-0.005 0.13091,-0.005"
       id="path1115"
       inkscape:connector-curvature="0" />
    <path
       style="fill:#ba9e7f;fill-opacity:1;fill-rule:nonzero;stroke:none;stroke-width:0.352778"
       d="m 175.02896,317.32035 c -0.84198,-1.34221 -2.13596,-0.76067 -2.4598,-0.46715 -0.33762,0.32108 -0.60772,0.74689 -0.39825,1.54202 0.11988,0.44511 0.58704,0.48094 0.47404,1.15618 -0.11989,0.76205 -0.47956,0.80891 -0.67937,0.98392 -0.19844,0.175 -0.452,0.3073 -0.57878,0.62976 -0.11713,0.31833 -0.14194,0.66146 -0.073,0.95222 0.13229,0.55398 0.93155,0.11438 1.46761,-0.1254 0.35691,-0.16123 1.48002,-1.10932 1.76389,-1.4304 0.7152,-0.80064 1.04869,-2.34956 0.48369,-3.24115"
       id="path1117"
       inkscape:connector-curvature="0" />
    <path
       style="fill:#ccab8a;fill-opacity:1;fill-rule:nonzero;stroke:none;stroke-width:0.352778"
       d="m 155.3175,293.3232 c -17.03944,0 -17.1359,14.21446 -16.37936,23.51484 -1.16444,-2.20348 -4.62332,-1.52411 -4.34082,1.95268 0.27423,3.34174 5.15937,5.07669 5.0946,4.68395 1.3932,7.65776 9.40787,12.07575 15.62558,12.07575 0.0386,0 0.0841,-0.003 0.1254,-0.003 v -42.21891 c -0.0413,0 -0.0868,-0.005 -0.1254,-0.005"
       id="path1119"
       inkscape:connector-curvature="0" />
    <path
       style="fill:#ba9e7f;fill-opacity:1;fill-rule:nonzero;stroke:none;stroke-width:0.352778"
       d="m 135.65565,317.32035 c 0.84198,-1.34221 2.13596,-0.76067 2.45842,-0.46715 0.339,0.32108 0.6091,0.74689 0.39964,1.54202 -0.11989,0.44511 -0.58705,0.48094 -0.47405,1.15618 0.12127,0.76205 0.47956,0.80891 0.67937,0.98392 0.19982,0.175 0.45338,0.3073 0.57878,0.62976 0.11713,0.31833 0.13917,0.66146 0.0717,0.95222 -0.12939,0.55398 -0.93141,0.11438 -1.46471,-0.1254 -0.35828,-0.16123 -1.48276,-1.10932 -1.76251,-1.4304 -0.71796,-0.80064 -1.05006,-2.34956 -0.48644,-3.24115"
       id="path1121"
       inkscape:connector-curvature="0" />
    <path
       style="fill:#dcc5a1;fill-opacity:1;fill-rule:nonzero;stroke:none;stroke-width:0.352778"
       d="m 155.39467,297.33329 c -5.60586,0 -9.70552,1.62333 -12.19702,4.82313 -3.46301,4.47173 -3.33209,11.30405 -2.0519,16.21124 0.39137,1.49655 0.59118,5.5342 0.86266,7.01697 1.20854,6.63663 8.55348,10.16579 13.38626,10.16579 0.0455,0 0.0896,-0.003 0.12954,-0.003 v -38.20586 c -0.0441,0 -0.0841,-0.008 -0.12954,-0.008"
       id="path1123"
       inkscape:connector-curvature="0" />
    <path
       style="fill:#ebd9b3;fill-opacity:1;fill-rule:nonzero;stroke:none;stroke-width:0.352778"
       d="m 167.55999,302.16331 c -2.46255,-3.17776 -6.51674,-4.80108 -12.03578,-4.82175 v 38.20611 c 5.52317,-0.0634 12.12122,-3.93293 13.25534,-10.16166 0.26734,-1.48415 0.46854,-5.5218 0.86403,-7.01835 1.27331,-4.89617 1.40147,-11.7147 -2.08359,-16.20435"
       id="path1125"
       inkscape:connector-curvature="0" />
    <path
       style="fill:#473019;fill-opacity:1;fill-rule:nonzero;stroke:none;stroke-width:0.352778"
       d="m 160.34596,292.47157 c -7.69083,-5.11114 -18.39957,0.30868 -20.82354,5.10976 -2.38813,4.72805 -3.48643,18.00545 2.76986,22.4951 -0.71658,-4.44142 0.38172,-11.60584 1.62471,-13.43725 1.88102,-2.77399 6.68486,0.11162 9.42716,-0.57464 -2.40743,1.21129 -1.1107,3.25768 0,4.367 0.57464,-2.87321 7.47034,-3.90674 8.38949,-7.58472 3.29214,1.80247 6.15846,2.84289 6.15846,6.62698 0,4.2981 -0.6215,10.60263 -0.6215,10.60263 3.86953,-2.10151 4.7749,-4.48552 5.01468,-11.60584 0.2384,-7.06795 -1.57647,-16.2388 -11.93932,-15.99902 m -5.37573,33.18591 c -0.97565,-0.97565 -6.12813,-0.92879 -8.39776,2.78502 1.72668,1.72806 7.38628,1.01148 8.39776,0 1.01148,1.01148 6.66971,1.72806 8.39777,0 -2.26963,-3.71381 -7.42349,-3.76067 -8.39777,-2.78502"
       id="path1127"
       inkscape:connector-curvature="0" />
    <path
       style="fill:#301e11;fill-opacity:1;fill-rule:nonzero;stroke:none;stroke-width:0.352778"
       d="m 147.9257,313.80773 c 1.02251,0 1.85071,0.9412 1.85071,2.10289 0,1.16168 -0.8282,2.10289 -1.85071,2.10289 -1.0225,0 -1.85208,-0.94121 -1.85208,-2.10289 0,-1.16169 0.82958,-2.10289 1.85208,-2.10289"
       id="path1129"
       inkscape:connector-curvature="0" />
    <path
       style="fill:#301e11;fill-opacity:1;fill-rule:nonzero;stroke:none;stroke-width:0.352778"
       d="m 162.95734,313.80773 c 1.02388,0 1.85071,0.9412 1.85071,2.10289 0,1.16168 -0.82683,2.10289 -1.85071,2.10289 -1.02112,0 -1.85071,-0.94121 -1.85071,-2.10289 0,-1.16169 0.82959,-2.10289 1.85071,-2.10289"
       id="path1131"
       inkscape:connector-curvature="0" />
    <path
       style="fill:#d92e45;fill-opacity:1;fill-rule:nonzero;stroke:none;stroke-width:0.352778"
       d="m 153.62527,345.71758 -1.03491,7.32703 2.68304,3.04409 2.23242,-3.2315 -0.46715,-7.0211 z m 0,0"
       id="path1551"
       inkscape:connector-curvature="0" />
    <path
       style="fill:#c52645;fill-opacity:1;fill-rule:nonzero;stroke:none;stroke-width:0.352778"
       d="m 155.4429,340.97989 -3.12677,3.67385 2.95727,2.40192 3.47541,-2.40192 c 0,0 -2.37298,-3.09783 -3.30591,-3.67385"
       id="path1553"
       inkscape:connector-curvature="0" />
  </g>
</svg>
