<?xml version="1.0" encoding="UTF-8" standalone="no"?>
<svg
   xmlns:dc="http://purl.org/dc/elements/1.1/"
   xmlns:cc="http://creativecommons.org/ns#"
   xmlns:rdf="http://www.w3.org/1999/02/22-rdf-syntax-ns#"
   xmlns:svg="http://www.w3.org/2000/svg"
   xmlns="http://www.w3.org/2000/svg"
   xmlns:sodipodi="http://sodipodi.sourceforge.net/DTD/sodipodi-0.dtd"
   xmlns:inkscape="http://www.inkscape.org/namespaces/inkscape"
   inkscape:version="1.0 (4035a4fb49, 2020-05-01)"
   sodipodi:docname="drawing8.svg"
   id="svg8"
   version="1.1"
   viewBox="0 0 84.297348 80.171509"
   height="80.171509mm"
   width="84.297348mm">
  <defs
     id="defs2">
    <clipPath
       id="clip11">
      <path
         id="path888"
         d="m 443.10937,216.48828 h 24.21875 v 14.26563 h -24.21875 z m 0,0"
         inkscape:connector-curvature="0" />
    </clipPath>
  </defs>
  <sodipodi:namedview
     inkscape:document-rotation="0"
     inkscape:window-maximized="1"
     inkscape:window-y="-8"
     inkscape:window-x="-8"
     inkscape:window-height="705"
     inkscape:window-width="1366"
     showgrid="false"
     inkscape:current-layer="layer1"
     inkscape:document-units="mm"
     inkscape:cy="12.244742"
     inkscape:cx="288.70754"
     inkscape:zoom="0.35"
     inkscape:pageshadow="2"
     inkscape:pageopacity="0.0"
     borderopacity="1.0"
     bordercolor="#666666"
     pagecolor="#ffffff"
     id="base" />
  <metadata
     id="metadata5">
    <rdf:RDF>
      <cc:Work
         rdf:about="">
        <dc:format>image/svg+xml</dc:format>
        <dc:type
           rdf:resource="http://purl.org/dc/dcmitype/StillImage" />
        <dc:title />
      </cc:Work>
    </rdf:RDF>
  </metadata>
  <g
     transform="translate(181.24391,-217.60472)"
     id="layer1"
     inkscape:groupmode="layer"
     inkscape:label="Layer 1">
    <path
       style="fill:#3f2e11;fill-opacity:1;fill-rule:nonzero;stroke:none;stroke-width:0.352778"
       d="m -130.19311,284.5443 c 3.07716,0.56087 1.58475,4.48552 4.01974,2.47358 2.43775,-2.01193 3.76893,-30.43673 3.53191,-34.19602 -0.23426,-3.75791 -1.14102,-7.54337 -3.15157,-10.64809 -2.96692,-4.58749 -8.32611,-6.85023 -13.57781,-6.85023 -5.25171,0 -10.6109,2.26274 -13.57643,6.85023 -2.01194,3.10472 -2.91731,6.89018 -3.15296,10.64809 -0.23702,3.75929 2.53008,32.18409 4.96645,34.19602 2.43637,2.01194 -0.49196,-1.91271 2.58382,-2.47358 z m 0,0"
       id="path1295"
       inkscape:connector-curvature="0" />
    <path
       style="fill:#dcc5a1;fill-opacity:1;fill-rule:nonzero;stroke:none;stroke-width:0.352778"
       d="m -139.01255,269.36521 v 28.25668 h -15.4106 c -0.24667,-0.11438 -0.38172,-0.16399 -0.38172,-0.16399 0,-15.15842 9.44232,-16.28566 9.44232,-16.28566 h 0.0717 c 0.0675,-0.0124 0.14194,-0.0207 0.20808,-0.0441 0.77584,-0.21359 1.30776,-1.35874 1.66054,-2.99034 0.0675,-0.28526 0.12264,-0.57602 0.16674,-0.89021 0.0868,-0.51263 0.15847,-1.06109 0.21497,-1.63573 0.0317,-0.34451 0.0648,-0.68627 0.0978,-1.0418 0.13781,-1.73633 0.17915,-3.62287 0.17915,-5.40604 0,0 2.07946,0.20119 3.75102,0.20119"
       id="path1297"
       inkscape:connector-curvature="0" />
    <path
       style="fill:#ebd9b3;fill-opacity:1;fill-rule:nonzero;stroke:none;stroke-width:0.352778"
       d="m -123.16649,297.4579 c 0,0 -0.13781,0.0496 -0.3638,0.16399 h -15.48364 v -28.25668 h 0.0413 c 1.66881,0 3.75929,-0.20119 3.75929,-0.20119 0,1.77216 0.0386,3.63389 0.18328,5.36332 0.0317,0.34176 0.0662,0.68902 0.0965,1.02113 0.062,0.59394 0.12953,1.1548 0.21497,1.67845 v 0.0124 c 0.0331,0.23979 0.0772,0.45476 0.12402,0.66698 0.32246,1.5875 0.79513,2.74918 1.48691,3.13366 0.0565,0.022 0.11024,0.0551 0.16811,0.0703 0.10198,0.0413 0.22601,0.062 0.33762,0.062 0,0 9.43543,1.12861 9.43543,16.28565"
       id="path1299"
       inkscape:connector-curvature="0" />
    <g
       clip-path="url(#clip11)"
       id="g1303"
       style="clip-rule:nonzero"
       transform="matrix(0.35277777,0,0,0.35277777,-299.58156,198.15923)">
      <path
         style="fill:#ba9e7f;fill-opacity:1;fill-rule:nonzero;stroke:none"
         d="m 467.32812,224.14062 v 0.0391 c -1.07421,1.71484 -4.78125,6.57422 -12.10937,6.57422 h -0.0625 c -6.95313,-0.0625 -11,-5.08594 -12.04688,-6.53907 0.2461,-1.48047 0.46875,-3.03515 0.62891,-4.64453 0.0898,-0.97656 0.18359,-1.96484 0.27734,-2.97265 3.39844,0.84375 7.07422,1.38671 11.01954,1.44531 h 0.12109 c 4.05469,-0.0586 7.79687,-0.625 11.28906,-1.55469 0.0899,0.95313 0.16797,1.94141 0.26172,2.88281 0.1875,1.6836 0.37891,3.28125 0.62109,4.76953"
         id="path1301"
         inkscape:connector-curvature="0" />
    </g>
    <path
       style="fill:#996817;fill-opacity:1;fill-rule:nonzero;stroke:none;stroke-width:0.352778"
       d="m -129.93679,288.22229 c -0.97152,-0.95499 -1.31465,-3.81854 -1.31465,-6.66419 0,0 -0.39274,-0.17088 -0.95361,-0.29904 -0.17914,-0.0386 -0.72898,-0.19844 -0.72898,-0.13091 0.75793,5.31096 -4.53788,9.42302 -5.9228,9.4685 h -0.0234 c -0.0207,0 -0.0537,-0.01 -0.0758,-0.01 -0.0234,0 -0.0317,0.01 -0.0565,0.01 -0.0138,0 -0.0262,-0.01 -0.0469,-0.01 -0.0248,0 -0.0565,0.01 -0.0786,0.01 h -0.0207 c -1.38769,-0.0455 -6.68211,-4.15754 -5.92419,-9.4685 0,-0.0675 -0.54708,0.0923 -0.73725,0.13091 -0.54846,0.12816 -0.94396,0.29904 -0.94396,0.29904 0,2.84565 -0.34175,5.7092 -1.31326,6.66419 -1.87,1.83692 -3.27974,4.35873 -2.80707,9.3996 h 23.74773 c 0.47267,-5.04087 -0.93017,-7.56268 -2.80017,-9.3996"
       id="path1305"
       inkscape:connector-curvature="0" />
    <path
       style="fill:#ccab8a;fill-opacity:1;fill-rule:nonzero;stroke:none;stroke-width:0.352778"
       d="m -139.0222,239.00566 c -16.08997,-0.0317 -16.18368,12.85158 -15.46159,21.25348 -1.10518,-1.97335 -4.37113,-1.23886 -4.10242,1.91547 0.2577,3.0179 4.86586,4.39318 4.79971,4.0597 1.31878,6.84747 8.90213,10.64534 14.7643,11.18692 0.0386,0.004 0.0799,0.004 0.12127,0.004 v -38.41682 c -0.0413,0 -0.0827,-0.003 -0.12127,-0.003"
       id="path1307"
       inkscape:connector-curvature="0" />
    <path
       style="fill:#ba9e7f;fill-opacity:1;fill-rule:nonzero;stroke:none;stroke-width:0.352778"
       d="m -157.78005,260.83791 c 0.81166,-1.2168 2.05327,-0.69039 2.3592,-0.41892 0.32522,0.28939 0.57877,0.67662 0.37896,1.40284 -0.10749,0.39688 -0.56638,0.42995 -0.452,1.04869 0.11713,0.69177 0.46027,0.73863 0.65181,0.90124 0.19293,0.15296 0.43408,0.27285 0.55673,0.56913 0.10749,0.28801 0.13643,0.60358 0.0703,0.87091 -0.1254,0.49748 -0.89572,0.0965 -1.40836,-0.11851 -0.33899,-0.14882 -1.41662,-1.01285 -1.6936,-1.30086 -0.68076,-0.73036 -0.99908,-2.13734 -0.46303,-2.95452"
       id="path1309"
       inkscape:connector-curvature="0" />
    <path
       style="fill:#d9bd9e;fill-opacity:1;fill-rule:nonzero;stroke:none;stroke-width:0.352778"
       d="m -138.94227,239.00566 c 16.08997,-0.0317 16.18092,12.85158 15.46434,21.25348 1.10381,-1.97335 4.36425,-1.23886 4.10242,1.91547 -0.25907,3.0179 -4.86723,4.39318 -4.80797,4.0597 -1.31189,6.84747 -8.89524,10.64534 -14.75879,11.18692 -0.0413,0.004 -0.0841,0.004 -0.1254,0.004 v -38.41682 c 0.0455,0 0.0841,-0.003 0.1254,-0.003"
       id="path1311"
       inkscape:connector-curvature="0" />
    <path
       style="fill:#ba9e7f;fill-opacity:1;fill-rule:nonzero;stroke:none;stroke-width:0.352778"
       d="m -120.07004,260.83791 c -0.80615,-1.2168 -2.05741,-0.69039 -2.3592,-0.41892 -0.32384,0.28939 -0.58291,0.67662 -0.38447,1.40284 0.11575,0.39688 0.56637,0.42995 0.4575,1.04869 -0.12264,0.69177 -0.46302,0.73863 -0.65594,0.90124 -0.19155,0.15296 -0.42719,0.27285 -0.54708,0.56913 -0.11713,0.28801 -0.13781,0.60358 -0.073,0.87091 0.1254,0.49748 0.88883,0.0965 1.40835,-0.11851 0.33211,-0.14882 1.41663,-1.01285 1.68672,-1.30086 0.68627,-0.73036 1.00597,-2.13734 0.46716,-2.95452"
       id="path1313"
       inkscape:connector-curvature="0" />
    <path
       style="fill:#dcc5a1;fill-opacity:1;fill-rule:nonzero;stroke:none;stroke-width:0.352778"
       d="m -139.10764,242.65332 c -5.37021,0 -9.30038,1.47175 -11.68714,4.38906 -3.32107,4.06934 -3.19291,10.28429 -1.96922,14.74913 0.37208,1.36702 0.565,5.04225 0.82683,6.38997 1.15893,6.03167 8.19519,9.24801 12.82953,9.24801 0.04,0 0.0854,-0.003 0.12403,-0.003 v -34.77317 h -0.12403"
       id="path1315"
       inkscape:connector-curvature="0" />
    <path
       style="fill:#ebd9b3;fill-opacity:1;fill-rule:nonzero;stroke:none;stroke-width:0.352778"
       d="m -127.44806,247.04651 c -2.35782,-2.8925 -6.24664,-4.36425 -11.53555,-4.39319 v 34.77204 c 5.2958,-0.0579 11.61824,-3.57325 12.70688,-9.24664 0.2577,-1.34496 0.45063,-5.02157 0.82269,-6.38721 1.2237,-4.45657 1.34221,-10.66325 -1.99402,-14.745"
       id="path1317"
       inkscape:connector-curvature="0" />
    <path
       style="fill:#b36e6e;fill-opacity:1;fill-rule:nonzero;stroke:none;stroke-width:0.352778"
       d="m -136.27714,271.97108 c 0,0 -1.21957,1.29949 -2.71061,1.29949 -1.49792,0 -2.6417,-1.26779 -2.6417,-1.26779 0,0 1.14378,-0.19569 2.6417,-0.19569 1.49104,0 2.71061,0.16399 2.71061,0.16399"
       id="path1319"
       inkscape:connector-curvature="0" />
    <path
       style="fill:#bf7873;fill-opacity:1;fill-rule:nonzero;stroke:none;stroke-width:0.352778"
       d="m -138.2188,271.37577 c -0.42444,0 -0.76068,0.26045 -0.76895,0.59394 -0.01,-0.33349 -0.34864,-0.59394 -0.76619,-0.59394 -0.43132,0 -1.94716,0.59945 -1.94716,0.59945 0,0 1.48276,0.15847 1.90996,0.15847 0.41341,0 0.79375,0.16123 0.80339,-0.15021 0.004,0.31144 0.31006,0.19155 0.72761,0.19155 0.42857,0 1.98162,-0.19981 1.98162,-0.19981 0,0 -1.51998,-0.59945 -1.94028,-0.59945"
       id="path1321"
       inkscape:connector-curvature="0" />
    <path
       style="fill:#0f0f0f;fill-opacity:1;fill-rule:nonzero;stroke:none;stroke-width:0.352778"
       d="m -141.24635,263.37488 c 0,1.8259 -2.6982,3.63251 -5.86907,3.71106 -0.0648,0.005 -0.14193,0.005 -0.21359,0.005 -0.26734,0 -0.52642,-0.005 -0.76068,-0.0138 -3.8461,-0.17776 -4.38216,-1.73771 -4.38216,-3.50022 0,-1.86172 -1.12448,-3.36654 5.51491,-3.36654 1.0101,0 1.83554,0.0289 2.52181,0.0896 0.9288,0.0744 1.59439,0.20808 2.0643,0.38309 1.46899,0.54019 1.12448,1.50206 1.12448,2.69131"
       id="path1323"
       inkscape:connector-curvature="0" />
    <path
       style="fill:#0f0f0f;fill-opacity:1;fill-rule:nonzero;stroke:none;stroke-width:0.352778"
       d="m -125.46506,263.57745 c 0,1.87 -0.61323,3.514 -5.14284,3.514 -0.1943,0 -0.3886,-0.005 -0.56637,-0.0207 -0.34589,-0.0165 -0.67524,-0.0634 -0.99908,-0.1254 -2.54937,-0.47129 -4.51996,-2.01469 -4.51996,-3.56911 0,-1.86036 -0.82269,-3.16536 5.71196,-3.16536 0.9729,0 1.7763,0.0289 2.44051,0.0896 1.77767,0.1626 2.57142,0.52228 2.90077,1.0225 0.41892,0.59945 0.17501,1.38355 0.17501,2.25447"
       id="path1325"
       inkscape:connector-curvature="0" />
    <path
       style="fill:#050505;fill-opacity:1;fill-rule:nonzero;stroke:none;stroke-width:0.352778"
       d="m -141.60051,263.62844 c -1.1548,3.75929 -6.72758,3.32107 -8.0753,3.02342 -0.59531,-0.12954 -2.32613,-0.61599 -2.60312,-3.6711 -0.19292,-2.12907 1.20579,-2.25722 3.18465,-2.43774 1.61368,-0.14746 3.04409,-0.0841 4.01147,0.005 0.97014,0.0868 3.22737,0.42994 3.44647,1.01561 0.22462,0.58153 0.28526,1.24575 0.0358,2.0643 m 1.55857,-2.83049 c -0.39275,-0.0634 -1.32981,-0.29903 -2.29031,-0.48507 -0.84335,-0.16399 -1.70738,-0.28112 -2.17867,-0.33211 -1.15204,-0.11162 -4.08726,-0.19568 -5.90903,-0.073 -2.16214,0.14745 -3.81441,0.32384 -3.89985,0.44924 -0.062,0.0868 -0.19292,1.23472 -0.0138,1.35875 0.17088,0.1254 0.78135,0.36931 0.93017,0.77583 0.14746,0.40653 0.74552,3.32797 2.08498,4.13136 2.20072,1.31189 9.60217,1.37115 10.87685,-3.42442 0.17639,-0.65595 0.40652,-1.03629 0.80615,-1.14515 0.17364,-0.0482 0.44649,-0.0868 0.71245,-0.0785 v -1.10794 c -0.35967,0.0138 -0.6904,0 -1.11897,-0.0689"
       id="path1327"
       inkscape:connector-curvature="0" />
    <path
       style="fill:#050505;fill-opacity:1;fill-rule:nonzero;stroke:none;stroke-width:0.352778"
       d="m -136.3488,261.56414 c 0.22186,-0.58567 2.48046,-0.9288 3.44922,-1.01562 0.96739,-0.0896 2.40055,-0.15158 4.0101,-0.005 1.98024,0.18053 3.3817,0.30868 3.18326,2.435 -0.27698,3.05786 -2.00642,3.54844 -2.60173,3.67522 -1.34635,0.29353 -6.92051,0.73588 -8.07393,-3.02479 -0.24942,-0.81855 -0.19017,-1.48139 0.0331,-2.0643 m -2.71335,-0.69729 v 1.10794 c 0.2701,-0.008 0.53606,0.0303 0.7152,0.0786 0.39963,0.10611 0.62839,0.48921 0.8034,1.14377 1.27744,4.79695 8.67613,4.7377 10.88237,3.4258 1.33394,-0.80339 1.93338,-3.72759 2.08221,-4.13135 0.15021,-0.4079 0.7593,-0.65182 0.93018,-0.77584 0.17501,-0.12402 0.0455,-1.27193 -0.0152,-1.35875 -0.0799,-0.1254 -1.73909,-0.30179 -3.89709,-0.44923 -1.82866,-0.12265 -4.75561,-0.0386 -5.91041,0.073 -0.47267,0.051 -1.33808,0.16812 -2.18281,0.3321 -0.95774,0.18604 -1.89343,0.42168 -2.28617,0.48232 -0.43408,0.0717 -0.7593,0.0854 -1.12172,0.0717"
       id="path1329"
       inkscape:connector-curvature="0" />
    <path
       style="fill:#996817;fill-opacity:1;fill-rule:nonzero;stroke:none;stroke-width:0.352778"
       d="m -139.36533,237.08605 c -8.89937,0 -16.1134,6.97563 -16.1134,15.58148 0,0.92052 0.53192,2.50527 0.56775,2.3716 1.96371,-7.64536 10.9554,-9.34034 15.55254,-9.34034 4.59438,0 13.49237,1.21129 15.55254,9.34034 0.0317,0.13229 0.55672,-1.45108 0.55672,-2.3716 0,-8.60585 -7.21402,-15.58148 -16.11615,-15.58148"
       id="path1331"
       inkscape:connector-curvature="0" />
  </g>
</svg>
