<?xml version="1.0" encoding="UTF-8" standalone="no"?>
<svg
   xmlns:dc="http://purl.org/dc/elements/1.1/"
   xmlns:cc="http://creativecommons.org/ns#"
   xmlns:rdf="http://www.w3.org/1999/02/22-rdf-syntax-ns#"
   xmlns:svg="http://www.w3.org/2000/svg"
   xmlns="http://www.w3.org/2000/svg"
   xmlns:sodipodi="http://sodipodi.sourceforge.net/DTD/sodipodi-0.dtd"
   xmlns:inkscape="http://www.inkscape.org/namespaces/inkscape"
   inkscape:version="1.0 (4035a4fb49, 2020-05-01)"
   sodipodi:docname="drawing5.svg"
   id="svg8"
   version="1.1"
   viewBox="0 0 84.298721 80.17289"
   height="80.17289mm"
   width="84.298721mm">
  <defs
     id="defs2">
    <clipPath
       id="clip26">
      <rect
         id="rect1011"
         height="15"
         width="24"
         y="0"
         x="0" />
    </clipPath>
    <clipPath
       id="clip27">
      <path
         id="path1008"
         d="m 0.261719,0.257813 h 23.539062 v 13.875 H 0.261719 Z m 0,0"
         inkscape:connector-curvature="0" />
    </clipPath>
  </defs>
  <sodipodi:namedview
     inkscape:document-rotation="0"
     inkscape:window-maximized="1"
     inkscape:window-y="-8"
     inkscape:window-x="-8"
     inkscape:window-height="705"
     inkscape:window-width="1366"
     showgrid="false"
     inkscape:current-layer="layer1"
     inkscape:document-units="mm"
     inkscape:cy="40.38574"
     inkscape:cx="-220.62986"
     inkscape:zoom="0.35"
     inkscape:pageshadow="2"
     inkscape:pageopacity="0.0"
     borderopacity="1.0"
     bordercolor="#666666"
     pagecolor="#ffffff"
     id="base" />
  <metadata
     id="metadata5">
    <rdf:RDF>
      <cc:Work
         rdf:about="">
        <dc:format>image/svg+xml</dc:format>
        <dc:type
           rdf:resource="http://purl.org/dc/dcmitype/StillImage" />
        <dc:title />
      </cc:Work>
    </rdf:RDF>
  </metadata>
  <g
     transform="translate(-0.939924,-205.50879)"
     id="layer1"
     inkscape:groupmode="layer"
     inkscape:label="Layer 1">
    <path
       style="fill:#dcc5a1;fill-opacity:1;fill-rule:nonzero;stroke:none;stroke-width:0.352778"
       d="m 43.880958,257.7075 v 27.49186 H 28.885157 c -0.245289,-0.10611 -0.367932,-0.15572 -0.367932,-0.15572 0,-14.74914 9.181867,-15.84882 9.181867,-15.84882 h 0.01659 c 0.906743,-0.0207 1.485511,-1.18649 1.874131,-2.95588 0.06477,-0.27286 0.117123,-0.55811 0.159843,-0.85715 0.08407,-0.50711 0.157093,-1.03904 0.209444,-1.59439 0.03175,-0.33486 0.06477,-0.67248 0.09511,-1.01837 0.13642,-1.68671 0.179142,-3.52088 0.179142,-5.26134 0,0 2.018805,0.19981 3.647652,0.19981"
       id="path1435"
       inkscape:connector-curvature="0" />
    <path
       style="fill:#ebd9b3;fill-opacity:1;fill-rule:nonzero;stroke:none;stroke-width:0.352778"
       d="m 59.29985,284.96785 v 0.0758 c 0,0 -0.07168,0.0303 -0.198437,0.0813 h -0.0095 c -0.0441,0.022 -0.0937,0.0441 -0.147426,0.0758 H 43.882476 v -27.49324 h 0.03457 c 1.62747,0 3.661447,-0.19981 3.661447,-0.19981 0,1.73081 0.03722,3.54293 0.172259,5.22 0.03457,0.33487 0.06615,0.66973 0.0992,0.99632 0.06064,0.5774 0.124037,1.12035 0.208103,1.63574 v 0.01 c 0.03034,0.23013 0.07715,0.44097 0.115747,0.64905 0.38862,1.89894 0.999067,3.17638 1.948532,3.17638 0,0 1.346377,0.15572 3.013782,1.19476 2.673384,1.65503 6.14468,5.54523 6.163979,14.57827"
       id="path1437"
       inkscape:connector-curvature="0" />
    <g
       id="use1439"
       clip-path="url(#clip26)"
       transform="matrix(0.09333912,0,0,0.09333912,39.66142,262.63675)">
      <g
         clip-path="url(#clip27)"
         id="g1384"
         style="clip-rule:nonzero">
        <path
           style="fill:#ba9e7f;fill-opacity:1;fill-rule:nonzero;stroke:none"
           d="m 23.804688,7.71875 v 0.035156 c -1.035157,1.660157 -4.640625,6.378907 -11.777344,6.378907 h -0.05078 C 5.207031,14.109375 1.269531,9.203125 0.253906,7.78125 0.492188,6.355469 0.699219,4.839844 0.847656,3.261719 0.941406,2.3125 1.03125,1.359375 1.121094,0.386719 4.433594,1.214844 8.007813,1.71875 11.851563,1.773438 h 0.125 C 15.90625,1.71875 19.542969,1.1875 22.945313,0.257813 c 0.08594,0.957031 0.179687,1.90625 0.261718,2.828125 0.1875,1.632812 0.359375,3.179687 0.597657,4.632812"
           id="path1382"
           inkscape:connector-curvature="0" />
      </g>
    </g>
    <path
       style="fill:#ccab8a;fill-opacity:1;fill-rule:nonzero;stroke:none;stroke-width:0.352778"
       d="m 43.930593,226.17799 c -15.890171,0 -15.979743,13.25397 -15.274186,21.92458 -1.090031,-2.05603 -4.313262,-1.41938 -4.048679,1.82039 0.254938,3.11712 4.810732,4.73081 4.748721,4.36838 1.299491,7.13962 8.775361,11.26271 14.574144,11.26271 0.03719,0 0.07991,-0.005 0.121251,-0.005 v -39.36781 c -0.04135,0 -0.08407,-0.003 -0.121251,-0.003"
       id="path1441"
       inkscape:connector-curvature="0" />
    <path
       style="fill:#ba9e7f;fill-opacity:1;fill-rule:nonzero;stroke:none;stroke-width:0.352778"
       d="m 25.626099,248.55457 c 0.785484,-1.25539 1.995398,-0.71383 2.291678,-0.43959 0.315571,0.30316 0.567751,0.70279 0.373449,1.43729 -0.111622,0.41479 -0.552595,0.44924 -0.442352,1.08038 0.117137,0.71107 0.449242,0.7593 0.635278,0.91915 0.181899,0.16124 0.418923,0.28388 0.536057,0.58429 0.111619,0.29904 0.132291,0.6215 0.06752,0.89297 -0.119888,0.51263 -0.866785,0.10473 -1.371147,-0.12265 -0.325216,-0.14882 -1.37666,-1.03215 -1.638488,-1.3298 -0.671103,-0.75103 -0.977028,-2.19108 -0.451996,-3.02204"
       id="path1443"
       inkscape:connector-curvature="0" />
    <path
       style="fill:#d9bd9e;fill-opacity:1;fill-rule:nonzero;stroke:none;stroke-width:0.352778"
       d="m 44.007746,226.17799 c 15.887417,0 15.978365,13.25397 15.271432,21.92458 1.090012,-2.05603 4.313238,-1.41938 4.05003,1.82039 -0.257669,3.11712 -4.809349,4.73081 -4.747331,4.36838 -1.29949,7.13962 -8.779473,11.26271 -14.574131,11.26271 -0.03859,0 -0.08269,-0.005 -0.121248,-0.005 v -39.36781 c 0.04134,0 0.08266,-0.003 0.121248,-0.003"
       id="path1445"
       inkscape:connector-curvature="0" />
    <path
       style="fill:#ba9e7f;fill-opacity:1;fill-rule:nonzero;stroke:none;stroke-width:0.352778"
       d="m 62.312222,248.55457 c -0.785461,-1.25539 -1.996758,-0.71383 -2.291681,-0.43959 -0.318312,0.30316 -0.566349,0.70279 -0.373451,1.43729 0.111654,0.41479 0.549841,0.44924 0.442383,1.08038 -0.117158,0.71107 -0.446511,0.7593 -0.635281,0.91915 -0.18743,0.16124 -0.420301,0.28388 -0.537458,0.58429 -0.111617,0.29904 -0.130916,0.6215 -0.06752,0.89297 0.118533,0.51263 0.868188,0.10473 1.368391,-0.12265 0.332105,-0.14882 1.378055,-1.03215 1.64539,-1.3298 0.668338,-0.75103 0.972892,-2.19108 0.449229,-3.02204"
       id="path1447"
       inkscape:connector-curvature="0" />
    <path
       style="fill:#dcc5a1;fill-opacity:1;fill-rule:nonzero;stroke:none;stroke-width:0.352778"
       d="m 43.788637,229.91385 c -5.226897,0 -9.052328,1.5117 -11.366053,4.49791 -3.234256,4.17133 -3.110233,10.542 -1.916854,15.11433 0.363802,1.39871 0.54846,5.16488 0.802021,6.54844 1.125858,6.18601 7.973338,9.47952 12.480886,9.47952 0.04547,0 0.08682,-0.005 0.124036,-0.005 V 229.9171 c -0.04135,0 -0.07856,-0.003 -0.124036,-0.003"
       id="path1449"
       inkscape:connector-curvature="0" />
    <path
       style="fill:#ebd9b3;fill-opacity:1;fill-rule:nonzero;stroke:none;stroke-width:0.352778"
       d="m 55.13679,234.41865 c -2.297181,-2.96829 -6.077159,-4.47586 -11.222741,-4.50205 v 35.63194 c 5.146958,-0.0565 11.302683,-3.66421 12.361016,-9.47401 0.24666,-1.38356 0.436808,-5.14973 0.802005,-6.54844 1.187873,-4.55993 1.304994,-10.92233 -1.94028,-15.10744"
       id="path1451"
       inkscape:connector-curvature="0" />
    <path
       style="fill:#23785e;fill-opacity:1;fill-rule:nonzero;stroke:none;stroke-width:0.352778"
       d="m 50.864865,268.66842 c 0.01236,0.0482 -0.50024,-0.16537 -0.602192,-0.35692 -0.311433,-0.50436 -0.679378,-0.99907 -1.125855,-1.52273 -0.0386,-0.0386 -0.07994,-0.0744 -0.106116,-0.11162 l -0.166757,0.9412 -4.904422,8.39363 -4.836901,-8.22 -0.239784,-1.11483 c -0.01799,0.0165 -0.0386,0.0441 -0.06752,0.0634 -0.650452,0.74414 -1.768052,1.97611 -1.757011,1.92788 -1.817635,0.41754 -9.210807,2.9614 -9.210807,16.51441 0,0 0.132291,0.0592 0.381714,0.16398 h 31.467512 c 0.243912,-0.10473 0.377579,-0.16398 0.377579,-0.16398 0,-13.55301 -7.393162,-16.09687 -9.209439,-16.51441"
       id="path1453"
       inkscape:connector-curvature="0" />
    <path
       style="fill:#000200;fill-opacity:1;fill-rule:nonzero;stroke:none;stroke-width:0.352778"
       d="m 61.362754,236.64557 c -0.584269,-2.48599 -3.340346,-7.21128 -6.223212,-6.85161 -0.545711,-1.79972 -1.73496,-3.4134 -3.231512,-4.44693 -2.337155,-1.60817 -5.265457,-1.96646 -8.01878,-1.59715 -4.448318,0.59532 -9.837823,2.21589 -12.752375,5.88147 -2.913176,3.66558 -5.674762,8.91453 -5.531445,13.73353 0.693151,-0.99632 1.459342,-1.87414 2.279274,-2.64859 -0.155718,4.39043 0.884701,8.82633 3.136414,12.46987 -0.148826,-2.84014 0.208086,-5.70784 1.015616,-8.40604 0.01929,1.32154 0.214971,2.64722 0.598067,3.92328 -0.121267,-0.41066 2.820836,-4.01285 3.560857,-5.08772 -0.01516,0.19568 -0.02752,0.39274 -0.03457,0.58842 0.01516,-0.45061 4.752869,-3.26457 5.363316,-3.78685 1.320165,-1.12999 2.550758,-2.3592 3.686281,-3.66971 -0.399627,0.71658 -0.770327,1.4497 -1.10797,2.18281 -0.321063,0.69315 -1.422119,5.19796 -1.871345,5.38675 3.388572,-1.42902 6.354128,-3.84748 8.436327,-6.88192 0.486445,-0.70969 0.80204,-1.43178 0.975643,-2.11116 0.175012,-0.0179 0.344522,-0.0289 0.505741,-0.0386 0.05376,0.16537 0.114406,0.32935 0.180552,0.48645 0.519501,1.21681 1.379397,2.25172 2.1318,3.33899 2.829137,4.07761 4.247127,9.11848 3.95912,14.07528 3.287995,-4.78179 4.263636,-10.92508 2.942095,-16.54059"
       id="path1455"
       inkscape:connector-curvature="0" />
    <path
       style="fill:#301e11;fill-opacity:1;fill-rule:nonzero;stroke:none;stroke-width:0.352778"
       d="m 36.445073,243.72455 c 1.02249,0 1.850708,0.93982 1.850708,2.10151 0,1.1603 -0.828218,2.10288 -1.850708,2.10288 -1.021122,0 -1.85208,-0.94258 -1.85208,-2.10288 0,-1.16169 0.830958,-2.10151 1.85208,-2.10151"
       id="path1457"
       inkscape:connector-curvature="0" />
    <path
       style="fill:#301e11;fill-opacity:1;fill-rule:nonzero;stroke:none;stroke-width:0.352778"
       d="m 51.476722,243.72455 c 1.022493,0 1.850707,0.93982 1.850707,2.10151 0,1.1603 -0.828214,2.10288 -1.850707,2.10288 -1.021115,0 -1.850708,-0.94258 -1.850708,-2.10288 0,-1.16169 0.829593,-2.10151 1.850708,-2.10151"
       id="path1459"
       inkscape:connector-curvature="0" />
    <path
       style="fill:#ffffff;fill-opacity:1;fill-rule:nonzero;stroke:none;stroke-width:0.352778"
       d="m 40.138233,257.01435 c 0.660083,1.45383 2.120794,2.46806 3.82129,2.46806 1.70462,0 3.163956,-1.01423 3.825415,-2.46806 z m 0,0"
       id="path1461"
       inkscape:connector-curvature="0" />
  </g>
</svg>
