<?xml version="1.0" encoding="UTF-8" standalone="no"?>
<svg
   xmlns:dc="http://purl.org/dc/elements/1.1/"
   xmlns:cc="http://creativecommons.org/ns#"
   xmlns:rdf="http://www.w3.org/1999/02/22-rdf-syntax-ns#"
   xmlns:svg="http://www.w3.org/2000/svg"
   xmlns="http://www.w3.org/2000/svg"
   xmlns:sodipodi="http://sodipodi.sourceforge.net/DTD/sodipodi-0.dtd"
   xmlns:inkscape="http://www.inkscape.org/namespaces/inkscape"
   sodipodi:docname="drawing0.svg"
   inkscape:version="1.0 (4035a4fb49, 2020-05-01)"
   id="svg8"
   version="1.1"
   viewBox="0 0 84.297348 80.403015"
   height="80.403015mm"
   width="84.297348mm">
  <defs
     id="defs2">
    <clipPath
       id="clip1">
      <rect
         id="rect826"
         height="15"
         width="24"
         y="0"
         x="0" />
    </clipPath>
    <clipPath
       id="clip2">
      <path
         id="path823"
         d="M 0.265625,0.65625 H 23.300781 V 14.226563 H 0.265625 Z m 0,0"
         inkscape:connector-curvature="0" />
    </clipPath>
  </defs>
  <sodipodi:namedview
     inkscape:document-rotation="0"
     inkscape:window-maximized="1"
     inkscape:window-y="-8"
     inkscape:window-x="-8"
     inkscape:window-height="705"
     inkscape:window-width="1366"
     showgrid="false"
     inkscape:current-layer="layer1"
     inkscape:document-units="mm"
     inkscape:cy="125.67065"
     inkscape:cx="132.31679"
     inkscape:zoom="0.98994949"
     inkscape:pageshadow="2"
     inkscape:pageopacity="0.0"
     borderopacity="1.0"
     bordercolor="#666666"
     pagecolor="#ffffff"
     id="base" />
  <metadata
     id="metadata5">
    <rdf:RDF>
      <cc:Work
         rdf:about="">
        <dc:format>image/svg+xml</dc:format>
        <dc:type
           rdf:resource="http://purl.org/dc/dcmitype/StillImage" />
        <dc:title />
      </cc:Work>
    </rdf:RDF>
  </metadata>
  <g
     transform="translate(-0.18466,0.225318)"
     id="layer1"
     inkscape:groupmode="layer"
     inkscape:label="Layer 1">
    <path
       style="fill:#2b2111;fill-opacity:1;fill-rule:nonzero;stroke:none;stroke-width:0.352778"
       d="m 43.146376,45.510389 c -0.61736,2.06844 -1.327049,4.43177 -2.656856,6.79511 -1.329806,2.36609 -5.371592,5.40604 -5.512154,8.64719 -0.301789,6.95909 9.587013,10.26225 13.575052,11.4446 3.9908,1.18236 5.32061,1.30225 5.76434,3.01653 0.44373,1.7129 0.0827,4.57646 0.0827,4.57646 0,0 3.35828,-1.83554 4.30499,-3.23563 2.03536,-3.01239 -0.19155,-5.06291 -0.19155,-5.06291 0,0 -0.82682,0.70555 0.14883,2.30408 0.97427,1.59439 0.97427,3.01515 0.61874,3.42856 -0.35554,0.41066 -1.59439,1.7129 -1.59439,1.7129 0,0 6.16396,-1.74046 4.96507,-6.73999 -0.20809,-0.85438 -0.76894,-0.22737 0,0 1.71152,0.51263 1.39182,3.32934 1.39182,3.32934 0,0 4.17959,-5.39226 -4.28708,-8.44324 -0.80753,-0.29214 -5.16764,-1.36701 -5.61688,-4.96093 -0.24943,-1.99265 1.21129,-2.16352 1.48001,-4.60127 0.34451,-3.1502 -4.18235,-2.48461 -5.92419,-5.45428 -0.33073,-0.56499 1.30914,-0.88745 0,-2.41983 -1.58061,-1.85071 -2.16076,-1.70739 -4.41936,-2.80018 -2.262741,-1.09416 -2.129074,-1.53651 -2.129074,-1.53651"
       id="path1055"
       inkscape:connector-curvature="0" />
    <path
       style="fill:#dcc5a1;fill-opacity:1;fill-rule:nonzero;stroke:none;stroke-width:0.352778"
       d="m 41.472061,53.282529 v 26.89517 h -14.67335 c -0.234265,-0.11438 -0.359667,-0.15572 -0.359667,-0.15572 0,-4.00045 0.689018,-6.9839 1.686719,-9.18738 1.648132,-3.63802 4.127225,-5.19658 5.734013,-5.85529 0.923288,-0.38723 1.559941,-0.45888 1.559941,-0.45888 h 0.07442 c 0.06063,-0.011 0.132292,-0.022 0.194302,-0.0413 0.740005,-0.21222 1.244367,-1.29122 1.58474,-2.84978 0.06202,-0.27974 0.11438,-0.54571 0.154342,-0.84336 0.08406,-0.49196 0.15434,-1.01561 0.208085,-1.56683 0.02893,-0.31833 0.05926,-0.6463 0.09233,-0.98392 0.132291,-1.66191 0.172254,-3.4575 0.172254,-5.14697 0,0 1.977485,0.1943 3.571875,0.1943"
       id="path1057"
       inkscape:connector-curvature="0" />
    <path
       style="fill:#ebd9b3;fill-opacity:1;fill-rule:nonzero;stroke:none;stroke-width:0.352778"
       d="m 56.553308,80.021979 c 0,0 -0.13367,0.0413 -0.34727,0.15434 H 41.472061 v -26.89379 h 0.0303 c 1.59439,0 3.580137,-0.19431 3.580137,-0.19431 0,1.68948 0.04,3.46439 0.17364,5.10564 0.0317,0.32797 0.0648,0.65594 0.0937,0.97151 0.0606,0.56499 0.12264,1.0983 0.20395,1.59164 v 0.0207 c 0.0331,0.22324 0.0758,0.42994 0.11299,0.63527 0.31006,1.50758 0.76344,2.61414 1.42076,2.98346 0.0537,0.0207 0.10335,0.0524 0.15572,0.0634 0.10473,0.0386 0.21911,0.0606 0.32797,0.0606 0,0 4.53926,0.54432 7.16029,6.02891 1.07073,2.23518 1.82177,5.28891 1.82177,9.47264"
       id="path1059"
       inkscape:connector-curvature="0" />
    <g
       id="use1061"
       clip-path="url(#clip1)"
       transform="matrix(0.09333912,0,0,0.09333912,37.333816,57.960969)">
      <g
         clip-path="url(#clip2)"
         id="g1146"
         style="clip-rule:nonzero">
        <path
           style="fill:#ba9e7f;fill-opacity:1;fill-rule:nonzero;stroke:none"
           d="m 23.300781,7.949219 v 0.03125 C 22.285156,9.601563 18.757813,14.226563 11.78125,14.226563 H 11.73047 C 5.105469,14.199219 1.253906,9.40625 0.265625,8.007813 0.5,6.613281 0.695313,5.128906 0.851563,3.589844 0.929688,2.660156 1.019531,1.730469 1.109375,0.773438 c 3.238281,0.816406 6.738281,1.3125 10.5,1.367187 h 0.121094 C 15.582031,2.085938 19.132813,1.5625 22.457031,0.660156 c 0.08594,0.929688 0.183594,1.859375 0.261719,2.753907 0.175781,1.601562 0.355469,3.113281 0.582031,4.535156"
           id="path1144"
           inkscape:connector-curvature="0" />
      </g>
    </g>
    <path
       style="fill:#ccab8a;fill-opacity:1;fill-rule:nonzero;stroke:none;stroke-width:0.352778"
       d="m 41.456903,24.379549 c -15.310005,-0.0275 -15.400955,12.23423 -14.718826,20.2296 -1.04731,-1.8755 -4.154785,-1.18097 -3.899847,1.82728 0.24529,2.87459 4.631584,4.18097 4.570952,3.86264 1.255392,6.51261 8.472178,10.13134 14.047721,10.64673 0.04134,0.004 0.07992,0 0.119888,0.004 v -36.56897 c -0.03996,0 -0.07855,-10e-4 -0.119888,-10e-4"
       id="path1063"
       inkscape:connector-curvature="0" />
    <path
       style="fill:#ba9e7f;fill-opacity:1;fill-rule:nonzero;stroke:none;stroke-width:0.352778"
       d="m 23.607173,45.164499 c 0.768946,-1.16306 1.952682,-0.66145 2.244824,-0.40376 0.30868,0.27836 0.551215,0.64492 0.361047,1.33394 -0.107488,0.38447 -0.537436,0.41479 -0.429948,1.00183 0.115757,0.66146 0.438217,0.70418 0.620116,0.85163 0.181903,0.15296 0.409279,0.26459 0.523655,0.5457 0.111623,0.27561 0.132292,0.57189 0.07028,0.82821 -0.118512,0.4768 -0.850251,0.0978 -1.340831,-0.113 -0.323839,-0.14194 -1.350479,-0.95636 -1.608173,-1.2361 -0.650434,-0.69591 -0.9536,-2.03261 -0.440972,-2.80845"
       id="path1065"
       inkscape:connector-curvature="0" />
    <path
       style="fill:#d9bd9e;fill-opacity:1;fill-rule:nonzero;stroke:none;stroke-width:0.352778"
       d="m 41.535453,24.379549 c 15.312755,-0.0275 15.400955,12.23423 14.718825,20.2296 1.05006,-1.8755 4.15754,-1.18097 3.90398,1.82728 -0.24667,2.87459 -4.63434,4.18097 -4.57371,3.86264 -1.25264,6.51261 -8.46804,10.13134 -14.049095,10.64673 -0.03859,0.004 -0.07855,0 -0.115758,0.004 v -36.56897 c 0.03721,0 0.07717,-10e-4 0.115758,-10e-4"
       id="path1067"
       inkscape:connector-curvature="0" />
    <path
       style="fill:#ba9e7f;fill-opacity:1;fill-rule:nonzero;stroke:none;stroke-width:0.352778"
       d="m 59.495418,45.164499 c -0.76756,-1.16306 -1.9513,-0.66145 -2.24482,-0.40376 -0.30868,0.27836 -0.54984,0.64492 -0.3638,1.33394 0.11024,0.38447 0.53881,0.41479 0.43546,1.00183 -0.11438,0.66146 -0.43822,0.70418 -0.6215,0.85163 -0.1819,0.15296 -0.41203,0.26459 -0.52503,0.5457 -0.11024,0.27561 -0.13091,0.57189 -0.0703,0.82821 0.11989,0.4768 0.85301,0.0978 1.34221,-0.113 0.32384,-0.14194 1.34634,-0.95636 1.60679,-1.2361 0.65319,-0.69591 0.9536,-2.03261 0.44097,-2.80845"
       id="path1069"
       inkscape:connector-curvature="0" />
    <path
       style="fill:#dcc5a1;fill-opacity:1;fill-rule:nonzero;stroke:none;stroke-width:0.352778"
       d="m 41.379732,27.850829 c -5.113898,0 -8.85803,1.40698 -11.122144,4.17959 -3.163975,3.87367 -3.045468,9.79096 -1.875512,14.03946 0.355534,1.29673 0.538813,4.79695 0.785482,6.08266 1.103809,5.74228 7.801072,8.80015 12.212174,8.80015 0.03721,0 0.07717,-0.003 0.118512,-0.003 v -33.09499 c -0.04134,0 -0.07855,-0.004 -0.118512,-0.004"
       id="path1071"
       inkscape:connector-curvature="0" />
    <path
       style="fill:#ebd9b3;fill-opacity:1;fill-rule:nonzero;stroke:none;stroke-width:0.352778"
       d="m 52.475688,32.035939 c -2.24757,-2.75746 -5.94761,-4.1603 -10.977444,-4.1796 v 33.09359 c 5.035344,-0.051 11.053244,-3.40513 12.090904,-8.79877 0.24392,-1.28433 0.42857,-4.78455 0.7841,-6.07991 1.16445,-4.23746 1.27883,-10.14787 -1.89756,-14.03531"
       id="path1073"
       inkscape:connector-curvature="0" />
    <path
       style="fill:#b36e6e;fill-opacity:1;fill-rule:nonzero;stroke:none;stroke-width:0.352778"
       d="m 44.071042,55.762999 c 0,0 -1.153419,1.23058 -2.581066,1.23058 -1.422135,0 -2.512163,-1.20716 -2.512163,-1.20716 0,0 1.090028,-0.18603 2.512163,-0.18603 1.427647,0 2.581066,0.16261 2.581066,0.16261"
       id="path1075"
       inkscape:connector-curvature="0" />
    <path
       style="fill:#bf7873;fill-opacity:1;fill-rule:nonzero;stroke:none;stroke-width:0.352778"
       d="m 42.223091,55.192489 c -0.401007,0 -0.72209,0.2508 -0.733115,0.56086 -0.0069,-0.31006 -0.327975,-0.56086 -0.727604,-0.56086 -0.405143,0 -1.850705,0.57051 -1.850705,0.57051 0,0 1.408353,0.14469 1.814878,0.14469 0.399629,0 0.756541,0.15848 0.763431,-0.13643 0.0083,0.30041 0.299035,0.18328 0.698667,0.18328 0.405143,0 1.883775,-0.19154 1.883775,-0.19154 0,0 -1.445559,-0.57051 -1.849327,-0.57051"
       id="path1077"
       inkscape:connector-curvature="0" />
    <path
       style="fill:#0f0f0f;fill-opacity:1;fill-rule:nonzero;stroke:none;stroke-width:0.352778"
       d="m 39.377445,46.262799 c 0,1.83555 -2.716115,3.65731 -5.90903,3.73586 -0.06615,0.007 -0.143314,0.007 -0.21635,0.007 -0.268718,0 -0.529166,-0.007 -0.764812,-0.0152 -3.873667,-0.17914 -4.413856,-1.75148 -4.413856,-3.52364 0,-1.87551 -1.131369,-3.39273 5.554869,-3.39273 1.016995,0 1.846575,0.0289 2.53697,0.0923 0.939822,0.073 1.60817,0.20808 2.08084,0.38585 1.48001,0.54295 1.131369,1.51171 1.131369,2.7106"
       id="path1079"
       inkscape:connector-curvature="0" />
    <path
       style="fill:#0f0f0f;fill-opacity:1;fill-rule:nonzero;stroke:none;stroke-width:0.352778"
       d="m 55.271738,46.465369 c 0,1.88378 -0.61736,3.5388 -5.18005,3.5388 -0.1943,0 -0.38999,-0.005 -0.57051,-0.0207 -0.34588,-0.0165 -0.67937,-0.0634 -1.00321,-0.1254 -2.56866,-0.47404 -4.553037,-2.03123 -4.553037,-3.5953 0,-1.87413 -0.830953,-3.18878 5.751927,-3.18878 0.97979,0 1.7887,0.0317 2.45842,0.0923 1.79008,0.16123 2.58934,0.52503 2.92282,1.02802 0.4203,0.60633 0.17364,1.39319 0.17364,2.271"
       id="path1081"
       inkscape:connector-curvature="0" />
    <path
       style="fill:#050505;fill-opacity:1;fill-rule:nonzero;stroke:none;stroke-width:0.352778"
       d="m 39.021911,46.517739 c -1.161688,3.78685 -6.775818,3.34312 -8.131807,3.04546 -0.599443,-0.12953 -2.342664,-0.62011 -2.621026,-3.70141 -0.195681,-2.14009 1.212675,-2.26963 3.206694,-2.45153 1.624708,-0.14883 3.063378,-0.0854 4.039031,0.007 0.975649,0.0868 3.25079,0.43271 3.472656,1.01838 0.225997,0.58841 0.285253,1.25401 0.03446,2.08221 m 1.569583,-2.85392 c -0.395489,-0.062 -1.339446,-0.29905 -2.30545,-0.48647 -0.848871,-0.16398 -1.719792,-0.28249 -2.196592,-0.33211 -1.160312,-0.11575 -4.114824,-0.19843 -5.950371,-0.0758 -2.177301,0.14883 -3.841971,0.32522 -3.927407,0.452 -0.06063,0.0882 -0.192927,1.24575 -0.01379,1.36839 0.172255,0.12678 0.785483,0.3707 0.937065,0.78135 0.14745,0.40928 0.751033,3.35277 2.098752,4.16167 2.217267,1.32154 9.669695,1.3808 10.955406,-3.44922 0.177769,-0.66146 0.409279,-1.04593 0.811663,-1.15204 0.175011,-0.051 0.450617,-0.0854 0.71796,-0.0813 v -1.11622 c -0.361048,0.0165 -0.694532,0 -1.127239,-0.0703"
       id="path1083"
       inkscape:connector-curvature="0" />
    <path
       style="fill:#050505;fill-opacity:1;fill-rule:nonzero;stroke:none;stroke-width:0.352778"
       d="m 44.312199,44.435519 c 0.22324,-0.58566 2.496999,-0.93293 3.472649,-1.01975 0.97566,-0.091 2.41708,-0.15296 4.03904,-0.007 1.99401,0.18328 3.40375,0.31282 3.20669,2.45291 -0.27974,3.08129 -2.02158,3.57187 -2.62103,3.70279 -1.35599,0.29628 -6.97012,0.74001 -8.130422,-3.04684 -0.25218,-0.8282 -0.192929,-1.49242 0.03306,-2.08222 m -2.734027,-0.70142 v 1.11621 c 0.272851,-0.006 0.540189,0.0303 0.720714,0.0813 0.402384,0.10611 0.632518,0.49058 0.808908,1.15204 1.287084,4.83002 8.738137,4.77214 10.959537,3.44923 1.34496,-0.80891 1.94854,-3.7524 2.09875,-4.16168 0.1502,-0.41065 0.76343,-0.65456 0.93706,-0.78134 0.17639,-0.12265 0.0455,-1.2802 -0.0165,-1.3684 -0.0813,-0.1254 -1.75148,-0.30454 -3.92603,-0.45199 -1.84106,-0.12265 -4.78868,-0.04 -5.95174,0.0758 -0.47543,0.051 -1.34635,0.16812 -2.19797,0.33211 -0.963252,0.18879 -1.907209,0.42443 -2.302708,0.48507 -0.438214,0.0717 -0.764807,0.0882 -1.129988,0.0717"
       id="path1085"
       inkscape:connector-curvature="0" />
    <path
       style="fill:#3a3019;fill-opacity:1;fill-rule:nonzero;stroke:none;stroke-width:0.352778"
       d="m 58.081558,32.793859 c -0.19982,-0.63252 -0.41066,-1.21957 -0.62012,-1.78319 v -0.24391 c 0,-2.384 -1.94855,-5.4777 -5.05189,-8.47907 -3.10472,-3.00412 -5.0574,-2.38676 -7.62606,-2.29857 0,0 -0.0069,0.0193 -0.01929,0.0496 -1.127236,-0.26045 -7.198873,-1.56132 -10.806576,-0.12264 -3.990797,1.59025 -7.25675,4.32015 -9.560831,11.65407 -2.305456,7.33116 -0.414789,13.33941 0.03168,15.90118 1.416622,8.11389 8.213107,13.24983 8.213107,13.24983 0,0 -1.717035,-2.16903 -2.484602,-4.32704 -0.593934,-1.67707 -1.482772,-4.55579 -1.482772,-8.79739 0,-4.23747 3.876426,-9.49055 3.876426,-9.49055 0,0 -1.788697,3.29351 -2.140095,6.91775 -0.354158,3.62149 1.519975,6.42166 1.519975,6.42166 0,0 -2.375736,-4.70324 1.419379,-8.21586 1.205785,-1.11759 2.217266,-2.28479 3.030304,-3.34726 0,10e-4 -0.0013,0.003 -0.0013,0.007 -0.952225,2.77675 0.961868,5.10701 0.961868,5.10701 0,0 -0.03721,-3.55947 1.943034,-4.76939 4.823135,-2.94487 5.592083,-4.16305 6.270073,-6.53603 0.0937,-0.32522 0.1447,-0.6215 0.18052,-0.91089 l 4.41111,6.85988 c 0.20394,0.29628 0.54156,0.80064 0.93293,1.45383 1.14377,1.90169 2.72438,5.01881 2.72438,7.72528 0,4.2416 -0.88884,7.12308 -1.48415,8.79877 -0.76481,2.16077 -2.48322,4.32842 -2.48322,4.32842 0,0 6.7951,-5.1387 8.2131,-13.25259 0.44511,-2.56177 2.33853,-8.56864 0.0331,-15.8998"
       id="path1087"
       inkscape:connector-curvature="0" />
    <path
       style="fill:#b359b8;fill-opacity:1;fill-rule:nonzero;stroke:none;stroke-width:0.352778"
       d="m 52.838118,66.094149 c -1.97473,-0.94258 -4.32015,-1.53652 -4.19475,-1.2554 1.28158,1.79283 0.80478,3.29627 0.59118,5.87045 -0.004,0.0799 -0.0124,0.15158 -0.022,0.22599 -0.79513,-0.5581 -1.76251,-0.88745 -2.80982,-0.88745 -2.276515,0 -4.1851,1.55029 -4.736314,3.64491 -0.07579,-0.001 -0.147453,-0.003 -0.223243,-0.003 h -0.111622 c -0.553971,-2.09324 -2.462554,-3.64216 -4.736317,-3.64216 -1.090028,0 -2.094619,0.35967 -2.911795,0.96187 -0.0096,-0.0992 -0.02204,-0.19705 -0.02755,-0.30041 -0.214974,-2.57417 -0.690395,-4.07762 0.589799,-5.87044 0.125402,-0.28112 -2.21864,0.31281 -4.194747,1.25539 -1.976104,0.94258 -3.584277,2.22691 -3.584277,2.22691 0,0 1.475882,0.48645 2.082217,2.3027 0.310057,0.90262 0.49885,2.54248 0.602202,4.05695 0.213598,3.07853 1.762511,4.45933 1.672937,5.49561 h 21.24383 c -0.0937,-1.03628 1.45521,-2.41708 1.66881,-5.49561 0.10749,-1.51447 0.29352,-3.15433 0.6022,-4.05695 0.60634,-1.81625 2.08498,-2.3027 2.08498,-2.3027 0,0 -1.6068,-1.28433 -3.58566,-2.22691"
       id="path1089"
       inkscape:connector-curvature="0" />
  </g>
</svg>
