<?xml version="1.0" encoding="UTF-8" standalone="no"?>
<svg
   xmlns:dc="http://purl.org/dc/elements/1.1/"
   xmlns:cc="http://creativecommons.org/ns#"
   xmlns:rdf="http://www.w3.org/1999/02/22-rdf-syntax-ns#"
   xmlns:svg="http://www.w3.org/2000/svg"
   xmlns="http://www.w3.org/2000/svg"
   xmlns:sodipodi="http://sodipodi.sourceforge.net/DTD/sodipodi-0.dtd"
   xmlns:inkscape="http://www.inkscape.org/namespaces/inkscape"
   inkscape:version="1.0 (4035a4fb49, 2020-05-01)"
   sodipodi:docname="drawing4.svg"
   id="svg8"
   version="1.1"
   viewBox="0 0 84.297348 80.171501"
   height="80.171501mm"
   width="84.297348mm">
  <defs
     id="defs2">
    <clipPath
       id="clip8">
      <path
         id="path869"
         d="m 173.19531,819.32422 h 22.52344 v 13.26172 h -22.52344 z m 0,0"
         inkscape:connector-curvature="0" />
    </clipPath>
  </defs>
  <sodipodi:namedview
     inkscape:document-rotation="0"
     inkscape:window-maximized="1"
     inkscape:window-y="-8"
     inkscape:window-x="-8"
     inkscape:window-height="705"
     inkscape:window-width="1366"
     showgrid="false"
     inkscape:current-layer="layer1"
     inkscape:document-units="mm"
     inkscape:cy="340.07775"
     inkscape:cx="178.57785"
     inkscape:zoom="1.4"
     inkscape:pageshadow="2"
     inkscape:pageopacity="0.0"
     borderopacity="1.0"
     bordercolor="#666666"
     pagecolor="#ffffff"
     id="base" />
  <metadata
     id="metadata5">
    <rdf:RDF>
      <cc:Work
         rdf:about="">
        <dc:format>image/svg+xml</dc:format>
        <dc:type
           rdf:resource="http://purl.org/dc/dcmitype/StillImage" />
        <dc:title />
      </cc:Work>
    </rdf:RDF>
  </metadata>
  <g
     transform="translate(-28.910849,-219.11663)"
     id="layer1"
     inkscape:groupmode="layer"
     inkscape:label="Layer 1">
    <path
       style="fill:#dcc5a1;fill-opacity:1;fill-rule:nonzero;stroke:none;stroke-width:0.352778"
       d="m 69.988787,272.83669 v 26.28332 h -14.34262 c -0.225999,-0.11024 -0.347267,-0.14883 -0.347267,-0.14883 0,-5.26962 1.227832,-8.71609 2.753321,-10.96505 2.576934,-3.77858 6.024785,-4.19061 6.024785,-4.19061 0.270092,0 0.511252,-0.10611 0.727604,-0.2949 0,0 0,-0.0152 0.0083,-0.0152 0.06615,-0.0661 0.139184,-0.15021 0.210841,-0.23565 0.361046,-0.49334 0.654569,-1.28295 0.864029,-2.27789 0.05926,-0.26045 0.111622,-0.52779 0.146071,-0.81856 0.08131,-0.48093 0.155721,-0.99632 0.205327,-1.52687 0.03168,-0.3197 0.05926,-0.64354 0.08958,-0.96738 0.129538,-1.61506 0.173633,-3.36792 0.173633,-5.02984 0,0 1.926495,0.18742 3.486436,0.18742"
       id="path1207"
       inkscape:connector-curvature="0" />
    <path
       style="fill:#ebd9b3;fill-opacity:1;fill-rule:nonzero;stroke:none;stroke-width:0.352778"
       d="m 84.732418,298.97118 c 0,0 -0.128156,0.0386 -0.343132,0.14883 H 69.988787 v -26.28332 h 0.03168 c 1.555805,0 3.497463,-0.18742 3.497463,-0.18742 0,1.64952 0.04134,3.38309 0.177763,4.98437 0.02479,0.32108 0.05512,0.64217 0.08406,0.95223 0.06201,0.55259 0.124026,1.07486 0.199816,1.56545 v 0.011 c 0.03447,0.21772 0.07028,0.41892 0.112998,0.62011 0.259075,1.29123 0.633899,2.28203 1.156176,2.73816 0.213593,0.19982 0.443728,0.29491 0.704178,0.29491 0,0 8.779481,1.05557 8.779481,15.15566"
       id="path1209"
       inkscape:connector-curvature="0" />
    <g
       clip-path="url(#clip8)"
       id="g1213"
       style="clip-rule:nonzero"
       transform="matrix(0.35277777,0,0,0.35277777,4.934363,-11.405729)">
      <path
         style="fill:#ba9e7f;fill-opacity:1;fill-rule:nonzero;stroke:none"
         d="m 195.71484,826.44531 v 0.0234 c -1.00781,1.58984 -4.45312,6.11719 -11.26172,6.11719 h -0.0664 c -6.46485,-0.0274 -10.21485,-4.72266 -11.19141,-6.07422 0.23047,-1.37891 0.42578,-2.82422 0.57422,-4.33203 0.082,-0.90625 0.17578,-1.82422 0.26172,-2.75391 3.15625,0.80859 6.57812,1.28125 10.25,1.34375 h 0.10547 c 3.78125,-0.0625 7.25781,-0.5625 10.5039,-1.44531 0.0937,0.91015 0.17969,1.82031 0.2461,2.68359 0.17578,1.57422 0.34765,3.05078 0.57812,4.4375"
         id="path1211"
         inkscape:connector-curvature="0" />
    </g>
    <path
       style="fill:#ffffff;fill-opacity:1;fill-rule:nonzero;stroke:none;stroke-width:0.352778"
       d="m 84.732418,298.97118 c 0,0 -0.128156,0.0345 -0.343132,0.14883 H 55.646167 c -0.225999,-0.11438 -0.347267,-0.14883 -0.347267,-0.14883 0,-2.33026 0.241158,-4.30223 0.62563,-5.98206 l 0.0083,-0.0386 c 0.05512,-0.23565 0.117133,-0.4644 0.180525,-0.68764 0.06201,-0.21498 0.118512,-0.42168 0.177763,-0.63528 0.135051,-0.41479 0.270097,-0.80064 0.424439,-1.17547 0.104727,-0.26045 0.20946,-0.51263 0.333483,-0.75516 0.239779,-0.53744 0.511252,-1.02388 0.792375,-1.46623 0.07028,-0.11438 0.143316,-0.22463 0.210838,-0.32798 0.525031,-0.77996 1.088649,-1.41662 1.649511,-1.93201 0.373451,-0.34726 0.737253,-0.63665 1.085895,-0.86265 0.07166,-0.0537 0.133667,-0.10473 0.195683,-0.14883 0.270092,-0.1695 0.520895,-0.32108 0.762053,-0.43959 h 0.0096 c 0.09508,-0.0717 0.199814,-0.11989 0.290762,-0.16399 0.04134,-0.0193 0.09095,-0.04 0.126783,-0.0593 0.526409,-0.25631 0.978408,-0.40789 1.310513,-0.49472 h 0.0083 c 0.220485,-0.0606 0.38585,-0.0923 0.482314,-0.10197 h 0.02066 c 0.06063,-0.022 0.08268,-0.022 0.08268,-0.022 0.270092,0 0.511252,-0.11024 0.726223,-0.30454 0,0 0,-0.01 0.0096,-0.01 0.107489,-0.0207 0.228756,-0.0207 0.337624,0.01 0.935686,0.26458 1.903068,2.24757 2.891123,3.74964 0.136425,0.20533 0.265959,0.39963 0.398251,0.58153 0.51263,0.6835 1.026639,1.17409 1.548916,1.17409 h 0.01929 c 1.824522,0 3.581522,-5.86907 5.240681,-5.50526 0.213593,0.20394 0.443728,0.30454 0.704176,0.30454 0,0 8.779481,1.06109 8.779481,15.29347"
       id="path1215"
       inkscape:connector-curvature="0" />
    <path
       style="fill:#3f2e11;fill-opacity:1;fill-rule:nonzero;stroke:none;stroke-width:0.352778"
       d="m 67.242357,299.12001 h -8.747784 c 0.07441,-1.1796 0.150207,-3.35001 0.112998,-6.28661 -0.0083,-1.28847 -0.246668,-3.06889 -0.556725,-4.97472 2.578309,-3.83508 6.02616,-4.25262 6.02616,-4.25262 0.270092,0 0.511252,-0.113 0.727604,-0.30042 0,0 0,-0.008 0.0083,-0.008 0.06615,-0.0744 0.139184,-0.15434 0.210841,-0.24529 0.02893,0.0207 0.07579,0.0992 0.126781,0.25356 0.403765,1.07625 1.373904,5.35092 1.602655,7.05142 0.480939,3.5016 0.511252,7.06382 0.489204,8.76295"
       id="path1217"
       inkscape:connector-curvature="0" />
    <path
       style="fill:#3f2e11;fill-opacity:1;fill-rule:nonzero;stroke:none;stroke-width:0.352778"
       d="m 72.772424,299.12001 h 8.746408 c -0.07165,-1.1796 -0.150204,-3.35001 -0.108863,-6.28661 0.0069,-1.28847 0.243914,-3.06889 0.549836,-4.97472 -2.574174,-3.83508 -6.022025,-4.25262 -6.022025,-4.25262 -0.267341,0 -0.511255,-0.113 -0.719336,-0.30042 0,0 0,-0.008 -0.0096,-0.008 -0.07304,-0.0744 -0.147447,-0.15434 -0.216353,-0.24529 -0.0303,0.0207 -0.08268,0.0992 -0.128156,0.25356 -0.405143,1.07625 -1.368391,5.35092 -1.601279,7.05142 -0.480936,3.5016 -0.511252,7.06382 -0.490583,8.76295"
       id="path1219"
       inkscape:connector-curvature="0" />
    <path
       style="fill:#d9bd9e;fill-opacity:1;fill-rule:nonzero;stroke:none;stroke-width:0.352778"
       d="m 70.101786,242.68659 c 15.187358,0 15.279687,12.67107 14.600316,20.95858 1.043173,-1.96094 4.125844,-1.35185 3.869532,1.73909 -0.2384,2.98759 -4.597136,4.5241 -4.535125,4.18096 -1.244367,6.82543 -8.390872,10.76662 -13.934723,10.76662 -0.03721,0 -0.07441,-0.005 -0.118513,-0.005 v -37.63975 h 0.118513"
       id="path1221"
       inkscape:connector-curvature="0" />
    <path
       style="fill:#ba9e7f;fill-opacity:1;fill-rule:nonzero;stroke:none;stroke-width:0.352778"
       d="m 87.605629,264.08063 c -0.753787,-1.19889 -1.914096,-0.68488 -2.193837,-0.4203 -0.300411,0.28663 -0.541571,0.66835 -0.356913,1.37666 0.104733,0.39274 0.525032,0.42306 0.423059,1.03078 -0.111623,0.67799 -0.431327,0.72347 -0.607717,0.87919 -0.177765,0.14882 -0.39825,0.26871 -0.511251,0.55672 -0.108866,0.28663 -0.129535,0.59118 -0.06615,0.85163 0.115755,0.49058 0.828201,0.10335 1.30638,-0.11024 0.319707,-0.14332 1.321538,-0.98944 1.572342,-1.27607 0.638029,-0.71382 0.935686,-2.09323 0.434083,-2.88837"
       id="path1223"
       inkscape:connector-curvature="0" />
    <path
       style="fill:#ccab8a;fill-opacity:1;fill-rule:nonzero;stroke:none;stroke-width:0.352778"
       d="m 70.027372,242.68659 c -15.188734,0 -15.275553,12.67107 -14.600312,20.95858 -1.036284,-1.96094 -4.121714,-1.35185 -3.873665,1.73909 0.248045,2.98759 4.599891,4.5241 4.53788,4.18096 1.247122,6.82543 8.396386,10.76662 13.936097,10.76662 0.03859,0 0.07993,-0.005 0.115757,-0.005 v -37.63975 h -0.115757"
       id="path1225"
       inkscape:connector-curvature="0" />
    <path
       style="fill:#ba9e7f;fill-opacity:1;fill-rule:nonzero;stroke:none;stroke-width:0.352778"
       d="m 52.542824,264.08063 c 0.753787,-1.19889 1.914098,-0.68488 2.193836,-0.4203 0.301791,0.28663 0.54295,0.66835 0.358292,1.37666 -0.106108,0.39274 -0.525032,0.42306 -0.424437,1.03078 0.113001,0.67799 0.431327,0.72347 0.609095,0.87919 0.17639,0.14882 0.398251,0.26871 0.509874,0.55672 0.110243,0.28663 0.130913,0.59118 0.06615,0.85163 -0.115757,0.49058 -0.828202,0.10335 -1.305002,-0.11024 -0.31971,-0.14332 -1.321543,-0.98944 -1.572347,-1.27607 -0.639409,-0.71382 -0.935686,-2.09323 -0.435461,-2.88837"
       id="path1227"
       inkscape:connector-curvature="0" />
    <path
       style="fill:#dcc5a1;fill-opacity:1;fill-rule:nonzero;stroke:none;stroke-width:0.352778"
       d="m 69.897839,246.25433 c -4.998145,0 -8.654081,1.44832 -10.875478,4.30499 -3.089561,3.98529 -2.97243,10.07898 -1.831411,14.44874 0.345884,1.33807 0.526407,4.93888 0.767567,6.26318 1.079002,5.90765 7.624683,9.0606 11.939322,9.0606 h 0.111618 v -34.07337 c -0.03446,0 -0.07717,-0.004 -0.111618,-0.004"
       id="path1229"
       inkscape:connector-curvature="0" />
    <path
       style="fill:#ebd9b3;fill-opacity:1;fill-rule:nonzero;stroke:none;stroke-width:0.352778"
       d="m 80.742997,250.56622 c -2.195214,-2.83876 -5.811184,-4.28019 -10.734916,-4.30775 v 34.06786 c 4.927864,-0.051 10.80933,-3.5016 11.822192,-9.05509 0.239776,-1.3243 0.420298,-4.92235 0.767566,-6.26318 1.136878,-4.35736 1.2485,-10.44415 -1.854842,-14.44184"
       id="path1231"
       inkscape:connector-curvature="0" />
    <path
       style="fill:#3f2e11;fill-opacity:1;fill-rule:nonzero;stroke:none;stroke-width:0.352778"
       d="m 88.396622,266.23589 c -0.741386,-5.31509 0.530543,-9.45334 -0.457509,-13.60262 -0.988052,-4.15065 -1.252636,-4.55855 -2.900767,-6.81164 -1.641248,-2.25585 -3.220477,-4.0721 -7.664652,-5.5659 -4.435906,-1.49517 -5.381238,-0.9853 -7.076225,-0.96187 -2.70509,0.0345 -4.43315,1.30638 -4.43315,1.30638 0,0 -0.249425,-0.93569 0.159854,-2.19797 0.412033,-1.26366 0.746897,-1.86448 0.746897,-1.86448 0,0 -1.08314,1.65778 -1.316027,2.07808 -0.96325,1.71014 -0.658704,2.3964 -0.658704,2.3964 -0.903991,-0.5016 -4.768011,-2.03536 -4.768011,-2.03536 0,0 1.314649,0.81029 1.47588,1.53376 0.166741,0.72071 -8.72436,4.09415 -9.964596,13.30082 -0.445103,3.3445 -0.311436,5.94762 0.03721,7.91959 0.260449,0.91502 1.26504,3.81854 4.051435,6.54293 0.146072,-1.24575 0.07441,-2.1401 0.279742,-3.1943 0.05374,-0.28525 0.106108,-0.65181 0.155715,-1.06384 0.128159,0.69177 0.340378,1.40973 0.672483,2.12218 0.522277,1.11758 1.196139,1.90031 1.196139,1.90031 0,0 -1.037664,-2.32337 -0.837848,-4.77628 0.133668,-1.53927 1.058334,-1.77767 3.115744,-7.41936 0.155721,-0.42443 0.263205,-0.91088 0.337619,-1.42213 0.104733,0.29352 0.228756,0.56361 0.384471,0.80201 1.548916,2.3661 3.797875,3.15158 3.797875,3.15158 0,0 -2.455664,-1.88654 -2.483223,-5.22966 -0.01654,-1.80798 0.658698,-3.24528 0.658698,-3.24528 0,0 -0.631139,3.76067 5.061538,6.01377 1.641242,0.6518 2.913171,0.21359 2.913171,0.21359 0,0 -2.364711,-1.38906 -2.382626,-3.79098 0,0 3.584276,4.61091 10.114798,6.13364 2.520432,0.58705 4.236088,0.42444 4.236088,0.42444 0,0 0.264583,-0.54295 0.184658,1.99816 -0.08268,2.54937 -0.525031,3.6325 -1.127233,4.51169 -0.24529,0.35416 -0.993566,1.01148 -0.993566,1.01148 0,0 1.892046,-0.70004 3.074405,-3.09507 0.598067,-1.21268 1.062466,-1.82728 1.029393,-2.54386 0.0565,0.88883 -0.293523,2.23931 -0.478179,5.09736 -0.356912,5.35506 -2.224153,7.68946 -2.224153,7.68946 0,0 1.360122,-0.75655 2.485977,-2.97794 0.117136,-0.23565 0.23427,-0.48369 0.34589,-0.75379 0.05788,-0.13367 0.114377,-0.26872 0.166743,-0.41204 h 0.0013 c 0.333486,-0.84887 0.650436,-4.11895 0.927417,-5.34265 0,0 0.646301,3.1061 0.974276,4.74321 0.334862,-0.44786 0.682127,-1.06385 0.993566,-1.92237 0,0 0.768942,3.51676 0.187412,-0.66145"
       id="path1233"
       inkscape:connector-curvature="0" />
    <path
       style="fill:#301e11;fill-opacity:1;fill-rule:nonzero;stroke:none;stroke-width:0.352778"
       d="m 63.441731,261.40035 c 0.910881,0 1.64951,0.83923 1.64951,1.87551 0,1.03628 -0.738629,1.87413 -1.64951,1.87413 -0.912262,0 -1.650892,-0.83785 -1.650892,-1.87413 0,-1.03628 0.73863,-1.87551 1.650892,-1.87551"
       id="path1235"
       inkscape:connector-curvature="0" />
    <path
       style="fill:#301e11;fill-opacity:1;fill-rule:nonzero;stroke:none;stroke-width:0.352778"
       d="m 76.844528,261.40035 c 0.910881,0 1.64951,0.83923 1.64951,1.87551 0,1.03628 -0.738629,1.87413 -1.64951,1.87413 -0.91226,0 -1.650889,-0.83785 -1.650889,-1.87413 0,-1.03628 0.738629,-1.87551 1.650889,-1.87551"
       id="path1237"
       inkscape:connector-curvature="0" />
    <path
       style="fill:#ffffff;fill-opacity:1;fill-rule:nonzero;stroke:none;stroke-width:0.352778"
       d="m 66.733862,273.2501 c 0.588423,1.29811 1.890668,2.20073 3.409267,2.20073 1.517219,0 2.819467,-0.90262 3.407889,-2.20073 z m 0,0"
       id="path1239"
       inkscape:connector-curvature="0" />
    <path
       style="fill:#0f0f0f;fill-opacity:1;fill-rule:nonzero;stroke:none;stroke-width:0.352778"
       d="m 68.016816,263.65207 c -0.208084,2.5659 -1.784562,4.07072 -4.336685,4.19474 -0.256318,0.0124 -0.508497,0.0138 -0.748279,0.006 -4.018356,-0.007 -4.705998,-3.52502 -4.785923,-5.74917 -0.04961,-1.27331 0.858517,-2.36472 2.141471,-2.48874 0.737248,-0.0744 1.568207,-0.0744 2.527321,-0.0744 3.002746,0 4.309126,0.71795 4.65777,1.2926 0.203949,0.34175 0.661459,1.42351 0.544325,2.81947 m 0.460264,-3.52227 c -2.578309,-3.14331 -12.301747,-0.91364 -12.31415,-0.91502 0.179149,0.70969 0.333488,1.40973 0.474046,2.10289 0.722093,0.0758 0.764812,1.69636 0.836472,2.2903 0.350017,2.86632 2.268246,4.97885 6.305902,4.87825 4.045918,-0.20946 4.992629,-3.13917 5.157994,-4.98161 0.183279,-2.01193 -0.46164,-3.3693 -0.460264,-3.37481"
       id="path1241"
       inkscape:connector-curvature="0" />
    <path
       style="fill:#0f0f0f;fill-opacity:1;fill-rule:nonzero;stroke:none;stroke-width:0.352778"
       d="m 72.791717,260.8326 c 0.345887,-0.57464 1.65227,-1.2926 4.656392,-1.2926 0.959114,0 1.790072,0 2.527321,0.0744 1.284332,0.12403 2.192462,1.21543 2.141474,2.48874 -0.0813,2.22415 -0.76757,5.74228 -4.787308,5.74918 -0.237021,0.008 -0.490579,0.007 -0.748273,-0.005 -2.55075,-0.12403 -4.127225,-1.62885 -4.335306,-4.19475 -0.117134,-1.39596 0.338994,-2.47909 0.5457,-2.81947 m -1.467609,2.67202 c 0.16674,1.84243 1.112075,4.77214 5.159375,4.9816 4.036271,0.1006 5.955882,-2.01193 6.304523,-4.87825 0.07304,-0.59393 0.114379,-2.21451 0.837848,-2.2903 0.14056,-0.69315 0.296278,-1.3932 0.472665,-2.10288 -0.0096,0.001 -9.733081,-2.22967 -12.312769,0.91501 0,0.006 -0.643543,1.36288 -0.461642,3.37482"
       id="path1243"
       inkscape:connector-curvature="0" />
    <path
       style="fill:#0f0f0f;fill-opacity:1;fill-rule:nonzero;stroke:none;stroke-width:0.352778"
       d="m 71.875325,262.59924 c 0,-0.001 -0.658704,-0.52089 -1.812121,-0.51814 -1.080384,-0.003 -1.675696,0.51676 -1.675696,0.51814 -0.176387,-0.48782 -0.352777,-0.97565 -0.529167,-1.45934 h 4.54615 c -0.176389,0.48645 -0.352779,0.97152 -0.529166,1.45934"
       id="path1245"
       inkscape:connector-curvature="0" />
    <path
       style="fill:#3f2e11;fill-opacity:1;fill-rule:nonzero;stroke:none;stroke-width:0.352778"
       d="m 70.059069,272.31441 c -0.150207,1.94028 -3.8778,1.76251 -5.820834,1.76251 0.971516,-0.86954 3.504351,-2.84151 5.443252,-2.84151 0,0 0.402386,0.79788 0.377582,1.079"
       id="path1247"
       inkscape:connector-curvature="0" />
    <path
       style="fill:#3f2e11;fill-opacity:1;fill-rule:nonzero;stroke:none;stroke-width:0.352778"
       d="m 69.784836,272.31441 c 0.152966,1.94028 3.881935,1.76251 5.820833,1.76251 -0.96738,-0.86954 -3.500215,-2.84151 -5.444627,-2.84151 0,0 -0.398254,0.79788 -0.376206,1.079"
       id="path1249"
       inkscape:connector-curvature="0" />
    <path
       style="fill:#3f2e11;fill-opacity:1;fill-rule:nonzero;stroke:none;stroke-width:0.352778"
       d="m 83.477023,267.95706 c -0.55259,0.92604 -1.960946,1.10105 -3.045462,2.40191 -1.076249,1.30087 -6.044076,3.50849 -6.044076,3.50849 0,0 -0.103351,1.92099 -3.0744,1.93201 -0.542951,0 -0.930177,-0.81993 -1.362885,-0.7965 -0.0069,0 -0.0083,10e-4 -0.01241,10e-4 0,0 -0.0069,-10e-4 -0.01379,-10e-4 -0.435462,-0.0234 -0.817179,0.7965 -1.362885,0.7965 -2.969667,-0.011 -3.071646,-1.93201 -3.071646,-1.93201 0,0 -4.970581,-2.20762 -6.050962,-3.50849 -1.079003,-1.30086 -2.490116,-1.47587 -3.04133,-2.40191 -0.420304,-0.70143 0.705556,3.34587 1.09416,4.21541 0.389986,0.86679 1.22921,3.75929 2.218643,5.27651 0.98943,1.51585 1.438672,1.59026 1.79696,1.9513 0.359666,0.35967 0,-1.73632 0,-1.73632 0,0 1.3491,2.09599 1.88791,2.60311 0.538816,0.50712 3.779962,2.45705 5.937967,3.10748 0.163989,0.0524 0.314196,0.0841 0.4644,0.12127 v 0.04 c 0.02204,-0.006 0.05374,-0.0124 0.07717,-0.0207 0.01516,0.003 0.02893,0.01 0.04685,0.011 v 0.01 c 0.0069,0 0.01101,-10e-4 0.01654,-0.004 0.0041,0.003 0.01101,0.004 0.01654,0.004 v -0.01 c 0.01516,-10e-4 0.0303,-0.008 0.04272,-0.011 0.02755,0.008 0.0565,0.0152 0.07993,0.0207 v -0.04 c 0.151585,-0.0372 0.296278,-0.0689 0.465778,-0.12127 2.158008,-0.65043 5.400532,-2.60036 5.937964,-3.10748 0.534681,-0.50712 1.886538,-2.60311 1.886538,-2.60311 0,0 -0.361048,2.09599 0,1.73632 0.358288,-0.36104 0.808908,-0.43545 1.798341,-1.9513 0.988052,-1.51722 1.827276,-4.40972 2.217261,-5.27651 0.388604,-0.86954 1.511707,-4.91684 1.094161,-4.21541"
       id="path1251"
       inkscape:connector-curvature="0" />
  </g>
</svg>
