<?xml version="1.0" encoding="UTF-8" standalone="no"?>
<svg
   xmlns:dc="http://purl.org/dc/elements/1.1/"
   xmlns:cc="http://creativecommons.org/ns#"
   xmlns:rdf="http://www.w3.org/1999/02/22-rdf-syntax-ns#"
   xmlns:svg="http://www.w3.org/2000/svg"
   xmlns="http://www.w3.org/2000/svg"
   xmlns:sodipodi="http://sodipodi.sourceforge.net/DTD/sodipodi-0.dtd"
   xmlns:inkscape="http://www.inkscape.org/namespaces/inkscape"
   inkscape:version="1.0 (4035a4fb49, 2020-05-01)"
   sodipodi:docname="drawing6.svg"
   id="svg8"
   version="1.1"
   viewBox="0 0 84.297348 80.27623"
   height="80.27623mm"
   width="84.297348mm">
  <defs
     id="defs2">
    <clipPath
       id="clip28">
      <rect
         id="rect1027"
         height="15"
         width="26"
         y="0"
         x="0" />
    </clipPath>
    <clipPath
       id="clip29">
      <path
         id="path1024"
         d="M 0.617188,0.03125 H 25.257813 V 14.542969 H 0.617188 Z m 0,0"
         inkscape:connector-curvature="0" />
    </clipPath>
  </defs>
  <sodipodi:namedview
     inkscape:document-rotation="0"
     inkscape:window-maximized="1"
     inkscape:window-y="-8"
     inkscape:window-x="-8"
     inkscape:window-height="705"
     inkscape:window-width="1366"
     showgrid="false"
     inkscape:current-layer="layer1"
     inkscape:document-units="mm"
     inkscape:cy="126.37457"
     inkscape:cx="-12.756359"
     inkscape:zoom="0.35"
     inkscape:pageshadow="2"
     inkscape:pageopacity="0.0"
     borderopacity="1.0"
     bordercolor="#666666"
     pagecolor="#ffffff"
     id="base" />
  <metadata
     id="metadata5">
    <rdf:RDF>
      <cc:Work
         rdf:about="">
        <dc:format>image/svg+xml</dc:format>
        <dc:type
           rdf:resource="http://purl.org/dc/dcmitype/StillImage" />
        <dc:title />
      </cc:Work>
    </rdf:RDF>
  </metadata>
  <g
     transform="translate(54.999864,-239.47498)"
     id="layer1"
     inkscape:groupmode="layer"
     inkscape:label="Layer 1">
    <path
       style="fill:#4f3d05;fill-opacity:1;fill-rule:nonzero;stroke:none;stroke-width:0.352778"
       d="m -10.905401,254.28889 c -8.977915,0 -21.012327,3.72208 -16.256717,26.5355 H 5.349938 c 4.75561,-22.81342 -7.27742,-26.5355 -16.255339,-26.5355"
       id="path1465"
       inkscape:connector-curvature="0" />
    <path
       style="fill:#dcc5a1;fill-opacity:1;fill-rule:nonzero;stroke:none;stroke-width:0.352778"
       d="m -11.018399,291.01085 v 28.73898 h -15.679319 c -0.253558,-0.10749 -0.38585,-0.16123 -0.38585,-0.16123 0,-15.41887 9.599414,-16.57091 9.599414,-16.57091 h 0.07855 c 0.06477,-0.008 0.146074,-0.0207 0.208087,-0.0413 0.79099,-0.21911 1.331182,-1.38217 1.692227,-3.04409 0.0689,-0.28801 0.119893,-0.58428 0.166746,-0.90123 0.08682,-0.52779 0.165364,-1.08314 0.220485,-1.66743 0.03305,-0.35002 0.06339,-0.70142 0.09784,-1.05971 0.143315,-1.76664 0.186037,-3.68487 0.186037,-5.50251 0,0 2.109774,0.20947 3.815786,0.20947"
       id="path1467"
       inkscape:connector-curvature="0" />
    <path
       style="fill:#ebd9b3;fill-opacity:1;fill-rule:nonzero;stroke:none;stroke-width:0.352778"
       d="m 5.101889,319.5886 c 0,0 -0.143315,0.0537 -0.372068,0.16261 H -11.01702 v -28.74036 h 0.03443 c 1.703258,0 3.825436,-0.20946 3.825436,-0.20946 0,1.8066 0.0441,3.70554 0.186036,5.45565 0.03168,0.3514 0.06752,0.70417 0.09647,1.04317 0.06752,0.60358 0.136421,1.17409 0.224615,1.70739 v 0.0138 c 0.03447,0.23978 0.07442,0.46027 0.119893,0.678 0.327973,1.60955 0.811663,2.79466 1.515841,3.1874 0.05512,0.0207 0.111622,0.0565 0.163988,0.0661 0.111617,0.0441 0.231511,0.0648 0.354153,0.0648 0,0 9.598036,1.15204 9.598036,16.57091"
       id="path1469"
       inkscape:connector-curvature="0" />
    <g
       id="use1471"
       clip-path="url(#clip28)"
       transform="matrix(0.09333912,0,0,0.09333912,-15.563163,296.25015)">
      <g
         clip-path="url(#clip29)"
         id="g1232"
         style="clip-rule:nonzero">
        <path
           style="fill:#ba9e7f;fill-opacity:1;fill-rule:nonzero;stroke:none"
           d="m 25.257813,7.835938 v 0.019531 c -1.097657,1.75 -4.867188,6.6875 -12.316407,6.6875 h -0.05859 C 5.8125,14.507813 1.683594,9.382813 0.617188,7.886719 0.882813,6.398438 1.09375,4.816406 1.246094,3.167969 1.34375,2.175781 1.441406,1.179688 1.535156,0.15625 c 3.453125,0.875 7.199219,1.394531 11.21875,1.460938 h 0.128907 c 4.113281,-0.066407 7.910156,-0.613282 11.472656,-1.585938 0.08594,1 0.183594,1.992188 0.277344,2.949219 0.183593,1.707031 0.363281,3.324219 0.625,4.855469"
           id="path1230"
           inkscape:connector-curvature="0" />
      </g>
    </g>
    <path
       style="fill:#ccab8a;fill-opacity:1;fill-rule:nonzero;stroke:none;stroke-width:0.352778"
       d="m -11.034935,260.12212 c -16.364204,-0.0276 -16.457912,13.07621 -15.730308,21.6228 -1.121719,-2.00505 -4.440036,-1.26228 -4.168563,1.94992 0.25907,3.07578 4.951288,4.46898 4.885142,4.13136 1.339456,6.96323 9.052336,10.82725 15.013729,11.37846 0.04134,0.001 0.0882,0 0.129534,0.004 v -39.08251 c -0.0441,0 -0.0882,-0.004 -0.129534,-0.004"
       id="path1473"
       inkscape:connector-curvature="0" />
    <path
       style="fill:#ba9e7f;fill-opacity:1;fill-rule:nonzero;stroke:none;stroke-width:0.352778"
       d="m -30.113872,282.33748 c 0.824064,-1.24162 2.089104,-0.70556 2.401919,-0.42857 0.326593,0.29489 0.592558,0.68901 0.385849,1.42075 -0.117131,0.41341 -0.576019,0.44786 -0.458885,1.07349 0.121266,0.70556 0.465775,0.75103 0.662834,0.91227 0.191548,0.15847 0.434083,0.27974 0.556728,0.57739 0.12127,0.29766 0.143317,0.61461 0.07442,0.88608 -0.128159,0.51263 -0.908129,0.10611 -1.430406,-0.11851 -0.345887,-0.15021 -1.441428,-1.02388 -1.719791,-1.32429 -0.698665,-0.74139 -1.01975,-2.17179 -0.472665,-2.99861"
       id="path1475"
       inkscape:connector-curvature="0" />
    <path
       style="fill:#d9bd9e;fill-opacity:1;fill-rule:nonzero;stroke:none;stroke-width:0.352778"
       d="m -10.952253,260.12212 c 16.368337,-0.0276 16.46342,13.07621 15.733062,21.6228 1.124479,-2.00505 4.442796,-1.26228 4.169942,1.94992 -0.257694,3.07578 -4.949913,4.46898 -4.885145,4.13136 -1.339454,6.96323 -9.050954,10.82725 -15.017859,11.37846 -0.04134,0.001 -0.08406,0 -0.125402,0.004 v -39.08251 c 0.04272,0 0.08406,-0.004 0.125402,-0.004"
       id="path1477"
       inkscape:connector-curvature="0" />
    <path
       style="fill:#ba9e7f;fill-opacity:1;fill-rule:nonzero;stroke:none;stroke-width:0.352778"
       d="m 8.245197,282.33748 c -0.818555,-1.24162 -2.086351,-0.70556 -2.399165,-0.42857 -0.330729,0.29489 -0.591177,0.68901 -0.389985,1.42075 0.117133,0.41341 0.577397,0.44786 0.464399,1.07349 -0.124026,0.70556 -0.465778,0.75103 -0.665591,0.91227 -0.191548,0.15847 -0.438219,0.27974 -0.560864,0.57739 -0.112998,0.29766 -0.137803,0.61461 -0.07166,0.88608 0.125402,0.51263 0.912262,0.10611 1.43316,-0.11851 0.343133,-0.15021 1.440048,-1.02388 1.717035,-1.32429 0.697288,-0.74139 1.022504,-2.17179 0.472668,-2.99861"
       id="path1479"
       inkscape:connector-curvature="0" />
    <path
       style="fill:#dcc5a1;fill-opacity:1;fill-rule:nonzero;stroke:none;stroke-width:0.352778"
       d="m -11.118993,263.83456 c -5.465302,0 -9.46575,1.50206 -11.888338,4.46208 -3.380327,4.14376 -3.252168,10.46758 -2.002287,15.00684 0.380336,1.38493 0.573262,5.12906 0.839221,6.50158 1.176845,6.13641 8.337132,9.40925 13.051404,9.40925 0.04134,0 0.08406,-0.006 0.125396,-0.006 v -35.37425 h -0.125396"
       id="path1481"
       inkscape:connector-curvature="0" />
    <path
       style="fill:#ebd9b3;fill-opacity:1;fill-rule:nonzero;stroke:none;stroke-width:0.352778"
       d="m 0.741777,268.30491 c -2.404676,-2.94487 -6.355511,-4.44417 -11.733993,-4.4676 v 35.37149 c 5.383996,-0.0551 11.818054,-3.63803 12.924618,-9.40374 0.261829,-1.37252 0.457507,-5.11527 0.839227,-6.50158 1.242989,-4.52686 1.365636,-10.84516 -2.029852,-14.99857"
       id="path1483"
       inkscape:connector-curvature="0" />
    <path
       style="fill:#b36e6e;fill-opacity:1;fill-rule:nonzero;stroke:none;stroke-width:0.352778"
       d="m -8.240274,293.66495 c 0,0 -1.236099,1.31602 -2.758831,1.31602 -1.522736,0 -2.687177,-1.29122 -2.687177,-1.29122 0,0 1.164441,-0.1943 2.687177,-0.1943 1.522732,0 2.758831,0.1695 2.758831,0.1695"
       id="path1485"
       inkscape:connector-curvature="0" />
    <path
       style="fill:#bf7873;fill-opacity:1;fill-rule:nonzero;stroke:none;stroke-width:0.352778"
       d="m -10.217759,293.05585 c -0.429948,0 -0.768943,0.26872 -0.781346,0.5967 -0.01101,-0.32798 -0.351399,-0.5967 -0.778592,-0.5967 -0.431327,0 -1.977486,0.6091 -1.977486,0.6091 0,0 1.506197,0.1571 1.937523,0.1571 0.431324,0 0.807529,0.16949 0.818555,-0.14883 0.0055,0.3197 0.319704,0.19568 0.746897,0.19568 0.432702,0 2.011934,-0.20395 2.011934,-0.20395 0,0 -1.543404,-0.6091 -1.977485,-0.6091"
       id="path1487"
       inkscape:connector-curvature="0" />
    <path
       style="fill:#301e11;fill-opacity:1;fill-rule:nonzero;stroke:none;stroke-width:0.352778"
       d="m -18.494254,280.40133 c 1.030769,0 1.867239,0.94947 1.867239,2.12356 0,1.17271 -0.83647,2.12218 -1.867239,2.12218 -1.033531,0 -1.870001,-0.94947 -1.870001,-2.12218 0,-1.17409 0.83647,-2.12356 1.870001,-2.12356"
       id="path1489"
       inkscape:connector-curvature="0" />
    <path
       style="fill:#301e11;fill-opacity:1;fill-rule:nonzero;stroke:none;stroke-width:0.352778"
       d="m -3.315166,280.40133 c 1.030772,0 1.867241,0.94947 1.867241,2.12356 0,1.17271 -0.836469,2.12218 -1.867241,2.12218 -1.033529,0 -1.869996,-0.94947 -1.869996,-2.12218 0,-1.17409 0.836467,-2.12356 1.869996,-2.12356"
       id="path1491"
       inkscape:connector-curvature="0" />
    <path
       style="fill:#631975;fill-opacity:1;fill-rule:nonzero;stroke:none;stroke-width:0.352778"
       d="m 5.446402,311.90053 c 0,0 -4.435906,-8.72436 -10.617784,-9.08541 -0.161232,-0.0124 4.597133,6.92878 -1.739085,8.54108 -1.559939,0.3955 -3.115744,0.53468 -4.55993,0.47818 h -0.03583 c -1.44694,0.0565 -2.998611,-0.0827 -4.559927,-0.47818 -6.337602,-1.6123 -1.576478,-8.55348 -1.736331,-8.54108 -6.183257,0.36105 -10.619161,9.08541 -10.619161,9.08541 l 1.962325,0.66283 2.761591,0.92742 c 0,0 -0.966007,2.51079 -1.016995,5.62653 H 1.738097 c -0.05237,-3.11574 -1.01837,-5.62653 -1.01837,-5.62653 l 2.765721,-0.92742 z m 0,0"
       id="path1493"
       inkscape:connector-curvature="0" />
    <path
       style="fill:#4f3d05;fill-opacity:1;fill-rule:nonzero;stroke:none;stroke-width:0.352778"
       d="m -10.905401,257.13867 c -15.987998,0 -17.184134,14.64441 -15.447809,22.62325 1.205786,-3.80063 23.156556,-11.80152 23.729821,-12.48089 -0.01654,2.4846 0.622871,4.85207 2.377114,6.60769 1.488282,1.4869 3.814411,1.76803 4.721159,4.76526 1.783181,-5.88974 0.606335,-21.51531 -15.380285,-21.51531"
       id="path1495"
       inkscape:connector-curvature="0" />
    <path
       style="fill:#856ba3;fill-opacity:1;fill-rule:nonzero;stroke:none;stroke-width:0.352778"
       d="m 4.432165,271.65354 c 0.664215,-9.53326 -4.60265,-16.3766 -15.358235,-16.3766 -10.755587,0 -16.023828,6.97563 -15.359613,16.3766 0,-6.70966 4.604026,-13.83274 15.359613,-13.83274 10.755585,0 15.358235,7.12308 15.358235,13.83274"
       id="path1497"
       inkscape:connector-curvature="0" />
    <path
       style="fill:#4a0c57;fill-opacity:1;fill-rule:nonzero;stroke:none;stroke-width:0.352778"
       d="m -17.802482,302.81512 1.88378,-1.43454 3.905359,6.62699 v 4.7749 c 0,0 -13.722504,-0.99908 -5.789139,-9.96735"
       id="path1499"
       inkscape:connector-curvature="0" />
    <path
       style="fill:#4a0c57;fill-opacity:1;fill-rule:nonzero;stroke:none;stroke-width:0.352778"
       d="m -3.994537,302.72141 -1.88378,-1.43453 -3.905361,6.62698 v 4.77491 c 0,0 13.722506,-0.99908 5.789141,-9.96736"
       id="path1501"
       inkscape:connector-curvature="0" />
    <path
       style="fill:#b5334c;fill-opacity:1;fill-rule:nonzero;stroke:none;stroke-width:0.352778"
       d="m -12.013343,308.00757 2.229665,-0.0937 v 4.7749 h -2.229665 z m 0,0"
       id="path1503"
       inkscape:connector-curvature="0" />
    <path
       style="fill:#d92e45;fill-opacity:1;fill-rule:nonzero;stroke:none;stroke-width:0.352778"
       d="m -12.013343,308.00757 -2.341288,-1.35737 -0.279741,6.5071 2.621029,-0.46853 z m 0,0"
       id="path1505"
       inkscape:connector-curvature="0" />
    <path
       style="fill:#d92e45;fill-opacity:1;fill-rule:nonzero;stroke:none;stroke-width:0.352778"
       d="m -9.783678,308.00757 2.341287,-1.35737 0.279744,6.5071 -2.621031,-0.46853 z m 0,0"
       id="path1507"
       inkscape:connector-curvature="0" />
  </g>
</svg>
