<?xml version="1.0" encoding="UTF-8" standalone="no"?>
<svg
   xmlns:dc="http://purl.org/dc/elements/1.1/"
   xmlns:cc="http://creativecommons.org/ns#"
   xmlns:rdf="http://www.w3.org/1999/02/22-rdf-syntax-ns#"
   xmlns:svg="http://www.w3.org/2000/svg"
   xmlns="http://www.w3.org/2000/svg"
   xmlns:sodipodi="http://sodipodi.sourceforge.net/DTD/sodipodi-0.dtd"
   xmlns:inkscape="http://www.inkscape.org/namespaces/inkscape"
   inkscape:version="1.0 (4035a4fb49, 2020-05-01)"
   sodipodi:docname="drawing10.svg"
   id="svg8"
   version="1.1"
   viewBox="0 0 84.297356 80.171501"
   height="80.171501mm"
   width="84.297356mm">
  <defs
     id="defs2" />
  <sodipodi:namedview
     inkscape:document-rotation="0"
     inkscape:window-maximized="1"
     inkscape:window-y="-8"
     inkscape:window-x="-8"
     inkscape:window-height="705"
     inkscape:window-width="1366"
     showgrid="false"
     inkscape:current-layer="layer1"
     inkscape:document-units="mm"
     inkscape:cy="-19.03058"
     inkscape:cx="224.45458"
     inkscape:zoom="0.35"
     inkscape:pageshadow="2"
     inkscape:pageopacity="0.0"
     borderopacity="1.0"
     bordercolor="#666666"
     pagecolor="#ffffff"
     id="base" />
  <metadata
     id="metadata5">
    <rdf:RDF>
      <cc:Work
         rdf:about="">
        <dc:format>image/svg+xml</dc:format>
        <dc:type
           rdf:resource="http://purl.org/dc/dcmitype/StillImage" />
        <dc:title />
      </cc:Work>
    </rdf:RDF>
  </metadata>
  <g
     transform="translate(95.821299,-148.81306)"
     id="layer1"
     inkscape:groupmode="layer"
     inkscape:label="Layer 1">
    <path
       style="fill:#73572b;fill-opacity:1;fill-rule:nonzero;stroke:none;stroke-width:0.352778"
       d="m -53.503126,202.45044 v 26.1593 h -14.270961 c -0.231511,-0.10473 -0.352777,-0.15021 -0.352777,-0.15021 0,-14.03394 8.740894,-15.07849 8.740894,-15.07849 0.868164,0 1.430404,-1.11622 1.801095,-2.8112 0.05788,-0.26183 0.10749,-0.53054 0.148829,-0.81856 0.0813,-0.47818 0.148828,-0.98529 0.198437,-1.5186 0.0303,-0.31419 0.06064,-0.63251 0.09095,-0.966 0.133668,-1.60541 0.168119,-3.35139 0.168119,-5.00366 0,0 1.926498,0.18742 3.475411,0.18742"
       id="path1335"
       inkscape:connector-curvature="0" />
    <path
       style="fill:#8a6638;fill-opacity:1;fill-rule:nonzero;stroke:none;stroke-width:0.352778"
       d="m -38.832539,228.45953 c 0,0 -0.133667,0.0469 -0.341736,0.15021 h -14.328851 v -26.1593 h 0.02893 c 1.553051,0 3.483687,-0.18742 3.483687,-0.18742 0,1.644 0.03997,3.36655 0.169511,4.96508 0.02893,0.32108 0.05923,0.63803 0.09094,0.94946 0.05927,0.54571 0.117123,1.06385 0.199813,1.55029 v 0.0124 c 0.03034,0.22049 0.07027,0.42031 0.11162,0.61874 0.367945,1.80523 0.948089,3.02204 1.849332,3.02204 0,0 8.73675,1.04455 8.73675,15.0785"
       id="path1337"
       inkscape:connector-curvature="0" />
    <path
       style="fill:#513f21;fill-opacity:1;fill-rule:nonzero;stroke:none;stroke-width:0.352778"
       d="m -49.530241,209.72785 v 0.0124 c -0.351401,0.55673 -1.564076,2.14423 -3.953592,2.14423 h -0.01929 c -2.272387,-0.011 -3.591168,-1.65089 -3.932923,-2.1332 0.08131,-0.47818 0.150207,-0.9853 0.198438,-1.5186 0.03031,-0.31419 0.06064,-0.63252 0.09095,-0.96463 1.109321,0.28112 2.312347,0.44924 3.602191,0.46854 h 0.04134 c 1.318781,-0.0193 2.542479,-0.19706 3.68213,-0.5085 0.02893,0.32108 0.06064,0.63941 0.09095,0.94947 0.05927,0.5457 0.118499,1.06384 0.199813,1.55029"
       id="path1339"
       inkscape:connector-curvature="0" />
    <path
       style="fill:#0c0f02;fill-opacity:1;fill-rule:nonzero;stroke:none;stroke-width:0.352778"
       d="m -38.810488,228.46229 c 0,0 -0.135044,0.051 -0.341736,0.15296 h -28.635645 c -0.230132,-0.10198 -0.35278,-0.15296 -0.35278,-0.15296 0,-10.68669 5.080831,-13.83688 7.495154,-14.73675 1.573715,1.72531 4.689464,4.09967 7.096892,4.2168 h 0.06615 c 0.01101,0 0.02893,0.011 0.05237,0 2.414339,-0.11713 5.530072,-2.50252 7.103777,-4.22644 2.4033,0.88883 7.515826,4.02525 7.515826,14.74639"
       id="path1341"
       inkscape:connector-curvature="0" />
    <path
       style="fill:#513f21;fill-opacity:1;fill-rule:nonzero;stroke:none;stroke-width:0.352778"
       d="m -53.709832,172.45192 c -15.115699,0 -15.202517,12.61043 -14.528655,20.86212 -1.039039,-1.95681 -4.102421,-1.35185 -3.854373,1.72944 0.243911,2.9683 4.577842,4.49792 4.51721,4.15479 1.237478,6.79234 8.350909,10.71562 13.865818,10.71562 h 0.114377 v -37.46197 h -0.114377"
       id="path1343"
       inkscape:connector-curvature="0" />
    <path
       style="fill:#332814;fill-opacity:1;fill-rule:nonzero;stroke:none;stroke-width:0.352778"
       d="m -71.126855,193.74261 c 0.749653,-1.19338 1.90169,-0.68212 2.185566,-0.41754 0.297657,0.28388 0.538816,0.66697 0.35278,1.36977 -0.106109,0.3955 -0.525034,0.42168 -0.423058,1.02388 0.113001,0.67524 0.427191,0.72071 0.609094,0.87368 0.175009,0.1502 0.396875,0.27561 0.508495,0.55948 0.104733,0.28387 0.124021,0.58704 0.06477,0.84336 -0.113003,0.48783 -0.828204,0.10335 -1.305004,-0.10749 -0.311438,-0.14883 -1.309136,-0.98529 -1.562695,-1.27055 -0.6339,-0.71658 -0.927421,-2.08359 -0.429948,-2.87459"
       id="path1345"
       inkscape:connector-curvature="0" />
    <path
       style="fill:#513f21;fill-opacity:1;fill-rule:nonzero;stroke:none;stroke-width:0.352778"
       d="m -53.635418,172.45192 c 15.114312,0 15.199754,12.61043 14.531417,20.86212 1.03491,-1.95681 4.101041,-1.35185 3.851629,1.72944 -0.241159,2.9683 -4.576482,4.49792 -4.515839,4.15479 -1.236097,6.79234 -8.349544,10.71562 -13.867207,10.71562 h -0.112998 v -37.46197 h 0.112998"
       id="path1347"
       inkscape:connector-curvature="0" />
    <path
       style="fill:#332814;fill-opacity:1;fill-rule:nonzero;stroke:none;stroke-width:0.352778"
       d="m -36.218384,193.74261 c -0.744149,-1.19338 -1.900309,-0.68212 -2.185564,-0.41754 -0.297675,0.28388 -0.531918,0.66697 -0.351401,1.36977 0.101952,0.3955 0.526415,0.42168 0.421674,1.02388 -0.112995,0.67524 -0.425802,0.72071 -0.602191,0.87368 -0.180552,0.1502 -0.402413,0.27561 -0.514033,0.55948 -0.106116,0.28387 -0.124002,0.58704 -0.06477,0.84336 0.114371,0.48783 0.82409,0.10335 1.303621,-0.10749 0.312843,-0.14883 1.309158,-0.98529 1.561322,-1.27055 0.63941,-0.71658 0.928793,-2.08359 0.431342,-2.87459"
       id="path1349"
       inkscape:connector-curvature="0" />
    <path
       style="fill:#73572b;fill-opacity:1;fill-rule:nonzero;stroke:none;stroke-width:0.352778"
       d="m -53.587184,176.00726 c -4.980231,0 -8.615498,1.43592 -10.821734,4.28019 -3.077162,3.96737 -2.960029,10.02936 -1.8259,14.37845 0.347263,1.33119 0.525031,4.91409 0.763431,6.23287 1.074867,5.88284 7.590232,9.01512 11.884203,9.01512 0.03305,0 0.07441,-0.007 0.111622,-0.007 v -33.89975 h -0.111622"
       id="path1351"
       inkscape:connector-curvature="0" />
    <path
       style="fill:#8a6638;fill-opacity:1;fill-rule:nonzero;stroke:none;stroke-width:0.352778"
       d="m -42.798537,180.29296 c -2.184186,-2.8236 -5.779487,-4.25952 -10.677025,-4.2857 V 209.907 c 4.901666,-0.0496 10.75559,-3.48644 11.762946,-9.00823 0.232868,-1.31878 0.413385,-4.90031 0.763411,-6.23287 1.129982,-4.33806 1.241636,-10.39179 -1.849332,-14.37294"
       id="path1353"
       inkscape:connector-curvature="0" />
    <path
       style="fill:#0c0f02;fill-opacity:1;fill-rule:nonzero;stroke:none;stroke-width:0.352778"
       d="m -39.002012,193.17624 c -0.30593,0.30179 -0.653204,0.68075 -0.887484,1.305 -0.482317,1.25677 -0.662834,1.04042 -0.662834,1.04042 0,0 0.759319,-4.92097 0.759319,-6.28936 0,-1.36013 -4.313272,-6.0427 -6.719321,-6.85299 -2.412966,-0.80477 -4.577858,1.91823 -7.165803,1.91823 h -0.202573 c -2.538344,-0.051 -4.788683,-2.71198 -7.165798,-1.91823 -2.400543,0.81029 -6.716556,5.49286 -6.716556,6.85299 0,1.36839 0.756542,6.28936 0.756542,6.28936 0,0 -0.184658,0.21635 -0.665594,-1.04042 -0.272852,-0.73587 -0.713825,-1.14653 -1.059712,-1.44556 -0.640785,-8.52179 -0.274227,-21.07434 14.831825,-21.07434 h 0.07855 c 15.188727,0 15.482274,12.69449 14.81944,21.2149"
       id="path1355"
       inkscape:connector-curvature="0" />
    <path
       style="fill:#301e11;fill-opacity:1;fill-rule:nonzero;stroke:none;stroke-width:0.352778"
       d="m -60.529743,189.78213 c 0.906749,0 1.644002,0.83647 1.644002,1.86586 0,1.03078 -0.737253,1.86587 -1.644002,1.86587 -0.905369,0 -1.64262,-0.83509 -1.64262,-1.86587 0,-1.02939 0.737251,-1.86586 1.64262,-1.86586"
       id="path1357"
       inkscape:connector-curvature="0" />
    <path
       style="fill:#301e11;fill-opacity:1;fill-rule:nonzero;stroke:none;stroke-width:0.352778"
       d="m -47.191713,189.78213 c 0.908121,0 1.642639,0.83647 1.642639,1.86586 0,1.03078 -0.734518,1.86587 -1.642639,1.86587 -0.906743,0 -1.641226,-0.83509 -1.641226,-1.86587 0,-1.02939 0.734483,-1.86586 1.641226,-1.86586"
       id="path1359"
       inkscape:connector-curvature="0" />
    <path
       style="fill:#ffffff;fill-opacity:1;fill-rule:nonzero;stroke:none;stroke-width:0.352778"
       d="m -57.25277,201.57676 c 0.585669,1.28847 1.883781,2.1897 3.392731,2.1897 1.508956,0 2.807068,-0.90123 3.39134,-2.1897 z m 0,0"
       id="path1361"
       inkscape:connector-curvature="0" />
    <path
       style="fill:#2b170c;fill-opacity:1;fill-rule:nonzero;stroke:none;stroke-width:0.352778"
       d="m -64.093349,199.95068 c -0.234265,0.59669 -0.168119,4.83829 3.410645,4.04316 1.000456,-0.22049 0.695908,-1.49104 2.186948,-2.45153 1.034905,-0.66559 2.571417,-0.80202 4.287076,-0.80202 1.615062,0 3.691755,0.13505 4.845198,0.99357 0.548428,0.4079 1.372516,2.723 2.830476,2.22691 2.361953,-0.8034 2.022969,-3.9095 2.022969,-3.9095 0,0 -1.923767,3.24666 -3.599463,0.29628 -0.840597,-1.48277 -2.776749,-1.01837 -3.33897,-1.10105 -0.876435,-0.13229 -1.761133,0.4451 -2.644455,0.42168 -0.957739,-0.0276 -2.313728,-0.72347 -3.261818,-0.59669 -0.720714,0.0992 -2.174544,0.40928 -2.999986,1.77078 -1.351859,2.23104 -3.474037,0.0358 -3.73862,-0.89159"
       id="path1363"
       inkscape:connector-curvature="0" />
    <path
       style="fill:#171707;fill-opacity:1;fill-rule:nonzero;stroke:none;stroke-width:0.352778"
       d="m -60.645495,213.72554 1.382173,-1.84106 5.155239,3.55259 -0.567753,3.97426 z m 0,0"
       id="path1365"
       inkscape:connector-curvature="0" />
    <path
       style="fill:#171707;fill-opacity:1;fill-rule:nonzero;stroke:none;stroke-width:0.352778"
       d="m -46.261544,213.72554 -1.382146,-1.84106 -5.155258,3.55259 0.567753,3.97426 z m 0,0"
       id="path1367"
       inkscape:connector-curvature="0" />
    <path
       style="fill:#cc9728;fill-opacity:1;fill-rule:nonzero;stroke:none;stroke-width:0.352778"
       d="m -54.108083,215.43707 h 1.309135 l 0.567753,3.97426 h -2.444641 z m 0,0"
       id="path1369"
       inkscape:connector-curvature="0" />
    <path
       style="fill:#cc9728;fill-opacity:1;fill-rule:nonzero;stroke:none;stroke-width:0.352778"
       d="m -54.675836,219.41133 -1.120344,5.2021 2.200725,3.22736 2.005049,-3.22736 -0.640789,-5.2021 z m 0,0"
       id="path1371"
       inkscape:connector-curvature="0" />
  </g>
</svg>
